<?xml version="1.0" encoding="UTF-8" standalone="no"?>
<!DOCTYPE svg PUBLIC "-//W3C//DTD SVG 1.1//EN" "http://www.w3.org/Graphics/SVG/1.1/DTD/svg11.dtd">
<svg width="100%" height="100%" viewBox="0 0 27 26" version="1.1" xmlns="http://www.w3.org/2000/svg" xmlns:xlink="http://www.w3.org/1999/xlink" xml:space="preserve" xmlns:serif="http://www.serif.com/" style="fill-rule:evenodd;clip-rule:evenodd;stroke-linecap:round;stroke-linejoin:round;stroke-miterlimit:1.5;">
    <g transform="matrix(1,0,0,1,-1024,-77)">
        <g transform="matrix(0.40625,0,0,0.222222,-517.891,0)">
            <g id="icon-end-flat" transform="matrix(0.4,0,0,0.4,2415.35,27)">
                <g transform="matrix(2.89741,0,0,4.5,887.973,-2.84217e-14)">
                    <path d="M917.5,210L887.5,210" style="fill:none;stroke:rgb(88,212,50);stroke-width:2.86px;"/>
                </g>
                <g transform="matrix(6.15385,0,0,11.25,-2851.35,-67.5)">
                    <path d="M1044.88,95.842C1045.08,95.864 1045.29,95.875 1045.5,95.875C1045.71,95.875 1045.92,95.864 1046.13,95.842L1046.13,102C1046.12,102.077 1046.11,102.149 1046.08,102.222C1046.02,102.388 1045.89,102.521 1045.72,102.584C1045.65,102.612 1045.58,102.62 1045.5,102.625L1025.5,102.625C1025.43,102.621 1025.42,102.623 1025.35,102.607C1025.23,102.577 1025.12,102.509 1025.03,102.414C1024.83,102.181 1024.83,101.819 1025.03,101.586C1025.08,101.529 1025.14,101.482 1025.21,101.447C1025.3,101.398 1025.4,101.381 1025.5,101.375L1044.88,101.375L1044.88,95.842ZM1044.88,84.159L1044.88,78.625L1025.5,78.625C1025.4,78.619 1025.3,78.602 1025.21,78.553C1025.14,78.518 1025.08,78.471 1025.03,78.414C1024.83,78.181 1024.83,77.819 1025.03,77.586C1025.12,77.491 1025.23,77.423 1025.35,77.393C1025.42,77.377 1025.43,77.379 1025.5,77.375C1032.19,77.375 1038.9,76.976 1045.58,77.38C1045.65,77.394 1045.72,77.41 1045.79,77.447C1045.95,77.529 1046.06,77.678 1046.11,77.85C1046.12,77.916 1046.12,77.933 1046.13,78L1046.13,84.159C1045.97,84.143 1045.81,84.133 1045.65,84.127C1045.5,84.125 1045.5,84.125 1045.35,84.127C1045.19,84.133 1045.03,84.143 1044.88,84.159Z" style="fill:rgb(64,64,64);"/>
                </g>
                <g transform="matrix(1.64103,0,0,3,2101.47,360)">
                    <circle cx="902.5" cy="195" r="15" style="fill:none;stroke:rgb(64,64,64);stroke-width:4.69px;"/>
                </g>
            </g>
        </g>
    </g>
</svg>
