<?xml version="1.0" encoding="UTF-8" standalone="no"?>
<!DOCTYPE svg PUBLIC "-//W3C//DTD SVG 1.1//EN" "http://www.w3.org/Graphics/SVG/1.1/DTD/svg11.dtd">
<svg width="100%" height="100%" viewBox="0 0 27 26" version="1.1" xmlns="http://www.w3.org/2000/svg" xmlns:xlink="http://www.w3.org/1999/xlink" xml:space="preserve" xmlns:serif="http://www.serif.com/" style="fill-rule:evenodd;clip-rule:evenodd;stroke-linecap:round;stroke-linejoin:round;stroke-miterlimit:1.5;">
    <g transform="matrix(1,0,0,1,-964,-137)">
        <g transform="matrix(0.40625,0,0,0.222222,-517.891,0)">
            <g id="icon-corner-round" transform="matrix(0.4,0,0,0.4,2208.58,405)">
                <g transform="matrix(2.46154,0,0,4.5,1274.81,0)">
                    <path d="M977.5,120L977.5,150L1007.5,150" style="fill:none;stroke:rgb(64,64,64);stroke-width:3.12px;"/>
                </g>
                <g transform="matrix(2.46154,0,0,4.5,1274.81,0)">
                    <path d="M1007.5,180L962.5,180L962.403,180C954.169,179.947 947.5,173.247 947.5,165L947.5,120" style="fill:none;stroke:rgb(64,64,64);stroke-width:3.12px;"/>
                </g>
                <g transform="matrix(1.23077,0,0,2.25,2440.96,540)">
                    <path d="M977.5,0L977.5,90L1067.5,90" style="fill:none;stroke:rgb(88,212,50);stroke-width:6.25px;"/>
                </g>
            </g>
        </g>
    </g>
</svg>
