<?xml version="1.0" encoding="UTF-8" standalone="no"?><!DOCTYPE svg PUBLIC "-//W3C//DTD SVG 1.1//EN" "http://www.w3.org/Graphics/SVG/1.1/DTD/svg11.dtd"><svg width="100%" height="100%" viewBox="0 0 25 13" version="1.1" xmlns="http://www.w3.org/2000/svg" xmlns:xlink="http://www.w3.org/1999/xlink" xml:space="preserve" style="fill-rule:evenodd;clip-rule:evenodd;"><g id="mask"><path id="path4669" d="M10.172,6.369c0,0 -2.902,-1.893 -4.457,0c1.628,2.28 4.457,0 4.457,0Z" style="fill:none;stroke:#404040;stroke-width:1px;"/><path id="path4673" d="M2.929,2.555c0,0 -0.689,5.017 1.115,6.685c1.459,1.35 5.218,1.129 7.242,0.557c0.478,-0.134 0.887,-0.975 1.114,-1.114c0.227,0.139 0.636,0.98 1.114,1.114c2.024,0.572 5.783,0.793 7.242,-0.557c1.804,-1.668 1.115,-6.685 1.115,-6.685c0,0 -0.133,0.22 -1.115,1.114c-2.374,-1.668 -8.356,0 -8.356,0c0,0 -5.982,-1.668 -8.356,0c-0.982,-0.894 -1.115,-1.114 -1.115,-1.114Z" style="fill:none;stroke:#404040;stroke-width:1px;"/><path id="path4689" d="M14.628,6.369c0,0 2.902,-1.893 4.457,0c-1.628,2.28 -4.457,0 -4.457,0l0,0Z" style="fill:none;stroke:#404040;stroke-width:1px;"/></g></svg>