<?xml version="1.0" encoding="UTF-8" standalone="no"?>
<!DOCTYPE svg PUBLIC "-//W3C//DTD SVG 1.1//EN" "http://www.w3.org/Graphics/SVG/1.1/DTD/svg11.dtd">
<svg width="100%" height="100%" viewBox="0 0 25 24" version="1.1" xmlns="http://www.w3.org/2000/svg" xmlns:xlink="http://www.w3.org/1999/xlink" xml:space="preserve" xmlns:serif="http://www.serif.com/" style="fill-rule:evenodd;clip-rule:evenodd;stroke-linecap:round;stroke-linejoin:round;stroke-miterlimit:1.5;">
    <g transform="matrix(1,0,0,1,-545,-78)">
        <g transform="matrix(0.40625,0,0,0.222222,-517.891,0)">
            <g id="operation-rotate-ccw" transform="matrix(0.419127,9.38344e-17,-5.13282e-17,0.766216,2457.43,233.368)">
                <g transform="matrix(5.87302,-7.19237e-16,7.19237e-16,5.87302,-2821.63,-304.571)">
                    <path d="M558.597,95.687L567.898,100.338C567.919,100.35 567.941,100.361 567.961,100.375C568.043,100.428 568.111,100.5 568.16,100.584C568.297,100.82 568.261,101.127 568.074,101.326C568.024,101.379 567.965,101.423 567.9,101.456C567.81,101.501 567.718,101.517 567.619,101.522L558.489,101.522L558.497,101.5C558.537,101.384 558.565,101.264 558.581,101.142C558.595,101.034 558.593,101.006 558.597,100.897L558.597,100.272L564.971,100.272L558.597,97.085L558.597,95.687ZM545.199,97.955L545.199,90C545.203,89.928 545.211,89.861 545.235,89.792C545.298,89.613 545.443,89.469 545.623,89.408C545.692,89.385 545.759,89.378 545.832,89.375C545.855,89.377 545.879,89.378 545.902,89.38C545.925,89.384 545.949,89.387 545.971,89.393C546.033,89.407 546.046,89.416 546.104,89.441L548.786,90.782L548.227,91.9L546.449,91.011L546.449,95.455L545.199,97.955Z" style="fill:rgb(64,64,64);"/>
                </g>
                <g transform="matrix(1,-2.44929e-16,2.44929e-16,1,-5.18696e-13,-448)">
                    <path d="M448,608L384,736L448,736L448,608Z" style="fill:none;stroke:rgb(88,212,50);stroke-width:7.34px;"/>
                </g>
                <g transform="matrix(-2.33266e-16,-3.80952,3.80952,-2.33266e-16,-3181.71,1062.1)">
                    <g transform="matrix(0.75,0,0,0.75,32,-36)">
                        <path d="M240,1344C248.837,1344 256,1336.84 256,1328" style="fill:none;stroke:rgb(64,64,64);stroke-width:2.57px;"/>
                    </g>
                    <g transform="matrix(-5.35783e-17,-0.125,0.125,-5.35783e-17,52,998)">
                        <path d="M288,1344L320,1376L288,1408" style="fill:none;stroke:rgb(64,64,64);stroke-width:15.42px;"/>
                    </g>
                </g>
            </g>
        </g>
    </g>
</svg>
