<?xml version="1.0" encoding="UTF-8" standalone="no"?><!DOCTYPE svg PUBLIC "-//W3C//DTD SVG 1.1//EN" "http://www.w3.org/Graphics/SVG/1.1/DTD/svg11.dtd"><svg width="100%" height="100%" viewBox="0 0 16 16" version="1.1" xmlns="http://www.w3.org/2000/svg" xmlns:xlink="http://www.w3.org/1999/xlink" xml:space="preserve" xmlns:serif="http://www.serif.com/" style="fill-rule:evenodd;clip-rule:evenodd;stroke-linejoin:round;stroke-miterlimit:1.41421;"><g id="operation-difference"><path d="M11.013,5.016c1.242,-0.018 2.484,-0.05 3.724,0.011c0.037,0.005 0.072,0.012 0.107,0.027c0.102,0.042 0.183,0.131 0.215,0.237c0.011,0.036 0.014,0.072 0.016,0.109l0,9.6c-0.002,0.037 -0.005,0.073 -0.016,0.109c-0.032,0.106 -0.113,0.195 -0.215,0.237c-0.047,0.02 -0.094,0.027 -0.144,0.029l-9.6,0c-0.037,-0.002 -0.073,-0.005 -0.109,-0.016c-0.106,-0.032 -0.195,-0.113 -0.237,-0.215c-0.02,-0.047 -0.027,-0.094 -0.029,-0.144l0,-3.687c0.125,0.008 0.25,0.012 0.375,0.012c0.125,0 0.25,-0.004 0.375,-0.012l0,3.312l8.85,0l0,-8.85l-3.312,0c0.016,-0.253 0.016,-0.507 0,-0.759Z" style="fill:url(#_Linear1);"/><path d="M6.674,9.569c0.063,0.007 0.12,0.021 0.174,0.055c0.151,0.092 0.217,0.284 0.156,0.449c-0.013,0.035 -0.031,0.067 -0.053,0.097c-0.049,0.064 -0.116,0.107 -0.192,0.133c-0.06,0.02 -0.121,0.039 -0.182,0.058c-0.226,0.066 -0.456,0.119 -0.69,0.154c-0.216,0.033 -0.435,0.051 -0.654,0.058l-0.046,0.001c-0.062,-0.002 -0.121,-0.012 -0.177,-0.041c-0.134,-0.068 -0.216,-0.214 -0.204,-0.363c0.003,-0.037 0.012,-0.073 0.025,-0.108c0.013,-0.034 0.032,-0.066 0.055,-0.095c0.046,-0.058 0.108,-0.102 0.178,-0.124c0.032,-0.011 0.04,-0.011 0.072,-0.016c0.083,-0.006 0.166,-0.006 0.248,-0.011c0.39,-0.027 0.776,-0.1 1.145,-0.227l0.036,-0.011l0.036,-0.006c0.037,-0.004 0.036,-0.004 0.073,-0.003Zm-4.58,-0.83c0.037,0.005 0.072,0.012 0.107,0.026c0.03,0.013 0.037,0.018 0.065,0.035c0.064,0.047 0.124,0.098 0.188,0.146c0.316,0.234 0.661,0.431 1.028,0.573l0.034,0.015c0.054,0.031 0.101,0.068 0.137,0.12c0.029,0.04 0.049,0.086 0.06,0.134c0.01,0.047 0.011,0.097 0.003,0.146c-0.028,0.161 -0.162,0.288 -0.324,0.307c-0.065,0.008 -0.128,-0.002 -0.189,-0.025c-0.059,-0.024 -0.117,-0.048 -0.175,-0.073c-0.21,-0.094 -0.414,-0.198 -0.611,-0.318c-0.195,-0.119 -0.381,-0.251 -0.56,-0.393l-0.035,-0.029c-0.047,-0.042 -0.085,-0.088 -0.109,-0.146c-0.069,-0.163 -0.01,-0.357 0.136,-0.456c0.053,-0.035 0.11,-0.052 0.172,-0.062c0.036,-0.002 0.036,-0.002 0.073,0Zm7.182,-1.248c0.049,0.009 0.094,0.023 0.137,0.049c0.129,0.077 0.201,0.228 0.179,0.376c-0.009,0.062 -0.035,0.115 -0.067,0.167c-0.173,0.283 -0.372,0.55 -0.595,0.796c-0.125,0.138 -0.259,0.268 -0.397,0.392l-0.022,0.02c-0.026,0.02 -0.031,0.026 -0.06,0.042c-0.064,0.037 -0.138,0.055 -0.212,0.05c-0.037,-0.003 -0.073,-0.01 -0.107,-0.023c-0.141,-0.053 -0.238,-0.189 -0.243,-0.339c-0.001,-0.037 0.003,-0.074 0.012,-0.109c0.017,-0.062 0.048,-0.112 0.089,-0.16c0.066,-0.063 0.135,-0.123 0.2,-0.186c0.273,-0.269 0.512,-0.569 0.709,-0.897l0.02,-0.031c0.021,-0.025 0.025,-0.032 0.05,-0.054c0.045,-0.042 0.101,-0.071 0.16,-0.086c0.032,-0.008 0.041,-0.008 0.073,-0.011c0.037,0 0.037,0 0.074,0.004Zm-8.856,-1.598c0.032,0.005 0.04,0.005 0.072,0.015c0.082,0.026 0.154,0.081 0.201,0.153c0.02,0.032 0.033,0.065 0.045,0.1c0.019,0.079 0.033,0.159 0.05,0.238c0.092,0.383 0.23,0.751 0.416,1.099l0.015,0.033c0.011,0.031 0.015,0.038 0.022,0.07c0.017,0.085 0.004,0.174 -0.037,0.25c-0.017,0.033 -0.039,0.063 -0.066,0.089c-0.106,0.106 -0.269,0.139 -0.408,0.081c-0.046,-0.018 -0.087,-0.046 -0.122,-0.081c-0.052,-0.052 -0.083,-0.12 -0.116,-0.185c-0.038,-0.074 -0.075,-0.15 -0.109,-0.226c-0.167,-0.368 -0.287,-0.754 -0.365,-1.15l-0.009,-0.045c-0.006,-0.05 -0.008,-0.097 0.002,-0.147c0.026,-0.121 0.113,-0.224 0.228,-0.27c0.035,-0.014 0.07,-0.02 0.107,-0.025c0.037,-0.001 0.037,-0.001 0.074,0.001Zm9.467,-1.651c0.037,0.007 0.071,0.015 0.105,0.031c0.034,0.015 0.065,0.035 0.093,0.06c0.055,0.049 0.095,0.114 0.113,0.185c0.007,0.027 0.014,0.071 0.017,0.095c0.01,0.064 0.019,0.129 0.026,0.194c0.052,0.45 0.044,0.906 -0.022,1.355l-0.007,0.036c-0.018,0.06 -0.043,0.114 -0.086,0.161c-0.1,0.111 -0.262,0.152 -0.404,0.102c-0.034,-0.013 -0.067,-0.03 -0.097,-0.052c-0.029,-0.022 -0.056,-0.048 -0.078,-0.078c-0.036,-0.049 -0.061,-0.107 -0.07,-0.168c-0.005,-0.032 -0.003,-0.041 -0.004,-0.073c0.008,-0.08 0.021,-0.158 0.029,-0.237c0.02,-0.208 0.028,-0.416 0.02,-0.624c-0.007,-0.187 -0.027,-0.372 -0.057,-0.556l-0.004,-0.037c0,-0.05 0.004,-0.097 0.02,-0.145c0.037,-0.105 0.12,-0.191 0.225,-0.229c0.035,-0.013 0.07,-0.019 0.107,-0.023c0.037,0 0.037,0 0.074,0.003Zm-8.898,-1.606c0.062,0.011 0.118,0.031 0.17,0.068c0.121,0.088 0.179,0.244 0.144,0.39c-0.013,0.056 -0.041,0.102 -0.068,0.151c-0.026,0.047 -0.051,0.094 -0.076,0.142c-0.032,0.064 -0.063,0.128 -0.093,0.193c-0.129,0.289 -0.229,0.59 -0.295,0.9l-0.009,0.036c-0.012,0.03 -0.014,0.038 -0.029,0.067c-0.042,0.076 -0.11,0.136 -0.19,0.168c-0.045,0.018 -0.094,0.027 -0.143,0.026c-0.037,0 -0.074,-0.006 -0.109,-0.017c-0.143,-0.045 -0.248,-0.176 -0.261,-0.325c-0.005,-0.069 0.012,-0.136 0.028,-0.203c0.024,-0.104 0.051,-0.207 0.081,-0.309c0.115,-0.384 0.275,-0.751 0.472,-1.098c0.01,-0.017 0.01,-0.016 0.024,-0.037c0.02,-0.026 0.025,-0.033 0.049,-0.055c0.045,-0.042 0.1,-0.073 0.159,-0.088c0.032,-0.008 0.04,-0.008 0.073,-0.012c0.037,0 0.036,0 0.073,0.003Zm7.259,-1.269c0.036,0.006 0.071,0.013 0.106,0.029c0.05,0.022 0.091,0.056 0.132,0.092c0.063,0.054 0.124,0.11 0.184,0.167c0.315,0.301 0.589,0.641 0.822,1.009c0.013,0.02 0.012,0.02 0.024,0.042c0.013,0.03 0.017,0.037 0.026,0.068c0.015,0.06 0.016,0.123 0.002,0.183c-0.038,0.159 -0.179,0.277 -0.342,0.287c-0.037,0.003 -0.074,-0.001 -0.11,-0.009c-0.071,-0.017 -0.137,-0.056 -0.188,-0.11c-0.03,-0.033 -0.052,-0.071 -0.076,-0.109c-0.029,-0.045 -0.059,-0.089 -0.089,-0.133c-0.041,-0.058 -0.083,-0.115 -0.126,-0.172c-0.194,-0.251 -0.412,-0.48 -0.654,-0.687l-0.027,-0.025c-0.041,-0.048 -0.073,-0.098 -0.09,-0.159c-0.044,-0.157 0.022,-0.329 0.159,-0.417c0.054,-0.034 0.111,-0.05 0.173,-0.058c0.037,-0.001 0.037,-0.001 0.074,0.002Zm-4.721,-0.855c0.061,0.013 0.118,0.032 0.169,0.07c0.029,0.022 0.055,0.048 0.077,0.078c0.09,0.12 0.098,0.287 0.021,0.416c-0.039,0.065 -0.094,0.111 -0.161,0.146c-0.084,0.035 -0.17,0.066 -0.254,0.101c-0.351,0.151 -0.683,0.342 -0.985,0.577l-0.03,0.021c-0.029,0.016 -0.036,0.021 -0.066,0.033c-0.081,0.031 -0.171,0.033 -0.253,0.006c-0.046,-0.016 -0.09,-0.041 -0.127,-0.073c-0.028,-0.024 -0.052,-0.052 -0.072,-0.083c-0.079,-0.127 -0.075,-0.295 0.012,-0.417c0.039,-0.055 0.093,-0.093 0.146,-0.133c0.083,-0.062 0.168,-0.122 0.255,-0.179c0.333,-0.219 0.689,-0.396 1.062,-0.536l0.025,-0.008c0.036,-0.012 0.07,-0.018 0.108,-0.022c0.036,0 0.036,0 0.073,0.003Zm1.64,-0.287c0.219,0.005 0.438,0.02 0.656,0.05c0.294,0.041 0.583,0.109 0.867,0.199l0.034,0.013c0.056,0.028 0.105,0.061 0.145,0.111c0.023,0.028 0.042,0.061 0.055,0.095c0.056,0.139 0.021,0.303 -0.087,0.407c-0.026,0.026 -0.056,0.048 -0.089,0.065c-0.054,0.028 -0.116,0.042 -0.177,0.042c-0.033,-0.001 -0.041,-0.003 -0.073,-0.009c-0.081,-0.021 -0.16,-0.047 -0.24,-0.07c-0.195,-0.051 -0.393,-0.092 -0.594,-0.117c-0.188,-0.024 -0.377,-0.035 -0.566,-0.036l-0.037,-0.002c-0.062,-0.01 -0.119,-0.027 -0.171,-0.063c-0.031,-0.02 -0.058,-0.045 -0.081,-0.074c-0.024,-0.029 -0.042,-0.061 -0.056,-0.095c-0.057,-0.139 -0.023,-0.302 0.084,-0.408c0.043,-0.043 0.098,-0.075 0.156,-0.093c0.032,-0.009 0.04,-0.009 0.073,-0.013c0.05,-0.003 0.05,-0.002 0.101,-0.002Z" style="fill:url(#_Linear2);fill-rule:nonzero;"/></g><defs><linearGradient id="_Linear1" x1="0" y1="0" x2="1" y2="0" gradientUnits="userSpaceOnUse" gradientTransform="matrix(8.81742e-16,14.3999,-14.3999,8.81742e-16,9.9,0.225055)"><stop offset="0" style="stop-color:#404040;stop-opacity:1"/><stop offset="1" style="stop-color:#797979;stop-opacity:1"/></linearGradient><linearGradient id="_Linear2" x1="0" y1="0" x2="1" y2="0" gradientUnits="userSpaceOnUse" gradientTransform="matrix(8.81742e-16,14.3999,-14.3999,8.81742e-16,7.53942,0.225055)"><stop offset="0" style="stop-color:#404040;stop-opacity:1"/><stop offset="1" style="stop-color:#797979;stop-opacity:1"/></linearGradient></defs></svg>