<?xml version="1.0" encoding="UTF-8" standalone="no"?><!DOCTYPE svg PUBLIC "-//W3C//DTD SVG 1.1//EN" "http://www.w3.org/Graphics/SVG/1.1/DTD/svg11.dtd"><svg width="100%" height="100%" viewBox="0 0 21 21" version="1.1" xmlns="http://www.w3.org/2000/svg" xmlns:xlink="http://www.w3.org/1999/xlink" xml:space="preserve" xmlns:serif="http://www.serif.com/" style="fill-rule:evenodd;clip-rule:evenodd;stroke-linejoin:round;stroke-miterlimit:1.41421;"><g id="operation-difference"><path d="M14.684,6.687c1.655,-0.023 3.312,-0.066 4.965,0.015c0.049,0.008 0.096,0.017 0.142,0.036c0.138,0.057 0.244,0.175 0.287,0.317c0.015,0.048 0.02,0.095 0.022,0.145l0,12.8c-0.002,0.05 -0.007,0.097 -0.022,0.145c-0.043,0.142 -0.149,0.26 -0.287,0.317c-0.062,0.026 -0.124,0.035 -0.191,0.038l-12.8,0c-0.05,-0.002 -0.097,-0.007 -0.145,-0.022c-0.142,-0.043 -0.26,-0.149 -0.317,-0.287c-0.026,-0.062 -0.035,-0.124 -0.038,-0.191l0,-4.916c0.166,0.011 0.333,0.016 0.5,0.016c0.167,0 0.334,-0.005 0.5,-0.016l0,4.416l11.8,0l0,-11.8l-4.416,0c0.022,-0.337 0.021,-0.676 0,-1.013Z" style="fill:#404040;"/><path d="M8.899,12.758c0.083,0.009 0.16,0.029 0.232,0.073c0.201,0.124 0.289,0.379 0.207,0.6c-0.017,0.046 -0.041,0.09 -0.071,0.129c-0.065,0.086 -0.154,0.142 -0.255,0.177c-0.08,0.027 -0.161,0.052 -0.242,0.077c-0.303,0.088 -0.609,0.159 -0.92,0.206c-0.289,0.045 -0.58,0.068 -0.872,0.078l-0.062,0.001c-0.083,-0.003 -0.161,-0.016 -0.236,-0.055c-0.179,-0.091 -0.287,-0.285 -0.272,-0.485c0.004,-0.048 0.015,-0.097 0.033,-0.143c0.018,-0.045 0.043,-0.088 0.073,-0.127c0.061,-0.077 0.145,-0.135 0.239,-0.166c0.041,-0.013 0.052,-0.013 0.095,-0.021c0.11,-0.007 0.221,-0.008 0.331,-0.014c0.52,-0.036 1.034,-0.133 1.527,-0.303l0.047,-0.014l0.048,-0.009c0.049,-0.004 0.049,-0.004 0.098,-0.004Zm-6.107,-1.106c0.05,0.007 0.096,0.016 0.143,0.035c0.04,0.017 0.049,0.024 0.086,0.046c0.085,0.063 0.166,0.131 0.25,0.194c0.422,0.312 0.882,0.576 1.372,0.766l0.045,0.02c0.072,0.041 0.135,0.089 0.183,0.159c0.038,0.053 0.065,0.114 0.079,0.178c0.014,0.064 0.016,0.131 0.005,0.195c-0.038,0.215 -0.216,0.384 -0.432,0.41c-0.087,0.011 -0.172,-0.003 -0.252,-0.034c-0.078,-0.032 -0.156,-0.064 -0.233,-0.097c-0.28,-0.125 -0.553,-0.264 -0.815,-0.424c-0.261,-0.158 -0.509,-0.335 -0.747,-0.524l-0.047,-0.039c-0.062,-0.056 -0.113,-0.117 -0.146,-0.194c-0.09,-0.218 -0.013,-0.477 0.183,-0.608c0.07,-0.047 0.146,-0.07 0.228,-0.083c0.049,-0.002 0.049,-0.002 0.098,0Zm9.575,-1.665c0.066,0.013 0.127,0.032 0.184,0.066c0.172,0.103 0.267,0.304 0.238,0.502c-0.012,0.082 -0.046,0.153 -0.089,0.222c-0.23,0.378 -0.496,0.734 -0.793,1.062c-0.168,0.184 -0.345,0.357 -0.53,0.523l-0.029,0.025c-0.034,0.028 -0.042,0.036 -0.08,0.058c-0.085,0.049 -0.184,0.072 -0.283,0.065c-0.049,-0.003 -0.097,-0.013 -0.143,-0.031c-0.187,-0.07 -0.317,-0.251 -0.324,-0.451c-0.001,-0.049 0.004,-0.098 0.017,-0.146c0.022,-0.081 0.064,-0.149 0.118,-0.212c0.088,-0.085 0.18,-0.165 0.268,-0.249c0.363,-0.359 0.682,-0.758 0.944,-1.196l0.028,-0.041c0.027,-0.033 0.033,-0.043 0.065,-0.072c0.061,-0.055 0.135,-0.095 0.215,-0.115c0.042,-0.011 0.053,-0.01 0.097,-0.014c0.049,0 0.048,0 0.097,0.004Zm-11.807,-2.13c0.043,0.007 0.054,0.007 0.095,0.02c0.11,0.035 0.206,0.108 0.268,0.205c0.028,0.042 0.045,0.086 0.061,0.133c0.025,0.105 0.044,0.212 0.067,0.317c0.122,0.511 0.306,1.002 0.554,1.465l0.021,0.044c0.015,0.041 0.02,0.051 0.028,0.094c0.023,0.113 0.005,0.232 -0.049,0.333c-0.023,0.044 -0.052,0.084 -0.087,0.118c-0.141,0.142 -0.36,0.186 -0.545,0.109c-0.06,-0.025 -0.116,-0.062 -0.162,-0.108c-0.07,-0.07 -0.111,-0.16 -0.155,-0.246c-0.051,-0.1 -0.1,-0.2 -0.146,-0.302c-0.222,-0.491 -0.382,-1.006 -0.486,-1.534l-0.012,-0.06c-0.008,-0.066 -0.011,-0.129 0.003,-0.195c0.034,-0.162 0.15,-0.299 0.304,-0.36c0.047,-0.019 0.093,-0.028 0.143,-0.034c0.049,-0.002 0.049,-0.002 0.098,0.001Zm12.622,-2.201c0.049,0.009 0.095,0.02 0.141,0.041c0.045,0.02 0.086,0.048 0.123,0.08c0.074,0.065 0.127,0.152 0.152,0.247c0.009,0.036 0.018,0.094 0.022,0.126c0.014,0.086 0.025,0.172 0.035,0.259c0.069,0.6 0.058,1.209 -0.03,1.807l-0.009,0.048c-0.024,0.08 -0.058,0.152 -0.114,0.214c-0.134,0.149 -0.35,0.203 -0.539,0.136c-0.046,-0.016 -0.09,-0.04 -0.13,-0.069c-0.039,-0.029 -0.074,-0.064 -0.103,-0.103c-0.049,-0.066 -0.082,-0.144 -0.094,-0.225c-0.006,-0.043 -0.005,-0.054 -0.005,-0.098c0.011,-0.105 0.027,-0.21 0.038,-0.316c0.027,-0.276 0.037,-0.553 0.027,-0.831c-0.01,-0.249 -0.036,-0.496 -0.075,-0.742l-0.006,-0.049c-0.001,-0.066 0.005,-0.13 0.027,-0.193c0.048,-0.14 0.159,-0.254 0.299,-0.306c0.047,-0.017 0.094,-0.024 0.143,-0.03c0.049,0 0.049,0 0.098,0.004Zm-11.863,-2.141c0.082,0.015 0.157,0.041 0.226,0.09c0.162,0.117 0.239,0.326 0.193,0.521c-0.018,0.074 -0.055,0.136 -0.091,0.201c-0.035,0.062 -0.068,0.125 -0.101,0.189c-0.043,0.085 -0.085,0.171 -0.125,0.257c-0.171,0.386 -0.306,0.787 -0.393,1.2l-0.013,0.048c-0.015,0.041 -0.017,0.052 -0.038,0.09c-0.056,0.101 -0.146,0.18 -0.252,0.223c-0.061,0.024 -0.127,0.037 -0.192,0.036c-0.049,-0.001 -0.098,-0.009 -0.145,-0.023c-0.191,-0.061 -0.33,-0.235 -0.347,-0.434c-0.008,-0.092 0.015,-0.181 0.036,-0.27c0.032,-0.139 0.068,-0.276 0.109,-0.413c0.152,-0.511 0.366,-1 0.629,-1.464c0.013,-0.022 0.013,-0.021 0.032,-0.049c0.027,-0.034 0.032,-0.044 0.064,-0.073c0.061,-0.056 0.134,-0.097 0.213,-0.118c0.043,-0.011 0.054,-0.01 0.097,-0.015c0.049,-0.001 0.049,-0.001 0.098,0.004Zm9.678,-1.693c0.049,0.009 0.095,0.019 0.141,0.039c0.068,0.029 0.122,0.075 0.177,0.123c0.083,0.072 0.165,0.146 0.245,0.222c0.421,0.402 0.786,0.855 1.096,1.346c0.017,0.026 0.016,0.026 0.032,0.055c0.017,0.04 0.023,0.05 0.034,0.092c0.021,0.079 0.022,0.163 0.003,0.243c-0.05,0.212 -0.238,0.37 -0.456,0.384c-0.049,0.003 -0.098,-0.001 -0.146,-0.013c-0.096,-0.022 -0.184,-0.074 -0.251,-0.146c-0.04,-0.044 -0.07,-0.095 -0.102,-0.146c-0.038,-0.059 -0.078,-0.118 -0.118,-0.177c-0.054,-0.077 -0.11,-0.154 -0.167,-0.229c-0.26,-0.335 -0.551,-0.641 -0.873,-0.917l-0.036,-0.033c-0.054,-0.063 -0.097,-0.13 -0.12,-0.211c-0.059,-0.21 0.029,-0.44 0.212,-0.557c0.071,-0.045 0.148,-0.066 0.231,-0.077c0.049,-0.001 0.048,-0.001 0.098,0.002Zm-6.294,-1.139c0.082,0.016 0.157,0.043 0.224,0.093c0.04,0.029 0.075,0.064 0.104,0.104c0.12,0.16 0.131,0.383 0.028,0.554c-0.052,0.088 -0.126,0.148 -0.214,0.196c-0.113,0.046 -0.228,0.087 -0.34,0.134c-0.468,0.201 -0.911,0.457 -1.313,0.769l-0.041,0.028c-0.037,0.022 -0.046,0.029 -0.087,0.044c-0.108,0.041 -0.228,0.044 -0.337,0.008c-0.062,-0.021 -0.12,-0.054 -0.169,-0.097c-0.038,-0.032 -0.07,-0.07 -0.096,-0.111c-0.107,-0.17 -0.101,-0.392 0.015,-0.556c0.052,-0.073 0.124,-0.124 0.195,-0.177c0.111,-0.083 0.224,-0.163 0.34,-0.239c0.444,-0.292 0.919,-0.528 1.416,-0.714l0.033,-0.012c0.049,-0.014 0.093,-0.023 0.144,-0.028c0.049,0 0.049,-0.001 0.098,0.004Zm2.186,-0.382c0.293,0.005 0.585,0.025 0.875,0.066c0.392,0.055 0.778,0.145 1.155,0.265l0.046,0.017c0.075,0.037 0.141,0.082 0.194,0.148c0.03,0.038 0.055,0.081 0.073,0.127c0.074,0.186 0.028,0.404 -0.115,0.543c-0.036,0.034 -0.076,0.063 -0.12,0.086c-0.072,0.038 -0.154,0.057 -0.236,0.056c-0.044,-0.001 -0.054,-0.004 -0.097,-0.011c-0.107,-0.029 -0.213,-0.064 -0.32,-0.094c-0.261,-0.068 -0.525,-0.122 -0.792,-0.157c-0.251,-0.031 -0.503,-0.045 -0.755,-0.047l-0.049,-0.003c-0.083,-0.013 -0.159,-0.036 -0.228,-0.083c-0.041,-0.028 -0.078,-0.061 -0.109,-0.099c-0.03,-0.038 -0.056,-0.081 -0.074,-0.127c-0.076,-0.185 -0.031,-0.403 0.112,-0.544c0.058,-0.057 0.13,-0.1 0.209,-0.123c0.042,-0.013 0.053,-0.013 0.096,-0.019c0.068,-0.003 0.067,-0.002 0.135,-0.001Z" style="fill:#404040;fill-rule:nonzero;"/></g></svg>