<?xml version="1.0" encoding="UTF-8" standalone="no"?>
<!DOCTYPE svg PUBLIC "-//W3C//DTD SVG 1.1//EN" "http://www.w3.org/Graphics/SVG/1.1/DTD/svg11.dtd">
<svg width="100%" height="100%" viewBox="0 0 26 26" version="1.1" xmlns="http://www.w3.org/2000/svg" xmlns:xlink="http://www.w3.org/1999/xlink" xml:space="preserve" xmlns:serif="http://www.serif.com/" style="fill-rule:evenodd;clip-rule:evenodd;stroke-linecap:round;stroke-linejoin:round;stroke-miterlimit:1.5;">
    <g transform="matrix(1,0,0,1,-725,-77)">
        <g transform="matrix(0.40625,0,0,0.222222,-517.891,0)">
            <g id="operation-intersection" transform="matrix(0.615385,0,0,1.125,2233.58,239.625)">
                <g transform="matrix(4,0,0,4,-1558,-213)">
                    <path d="M737.75,102.625L735.25,102.625C735.196,102.622 735.182,102.624 735.128,102.613C735.007,102.589 734.895,102.529 734.808,102.442C734.765,102.399 734.728,102.349 734.699,102.295C734.581,102.074 734.608,101.797 734.767,101.604C734.819,101.54 734.883,101.487 734.955,101.449C735.048,101.399 735.146,101.38 735.25,101.375C736.104,101.375 736.959,101.336 737.811,101.378C737.914,101.393 738.01,101.422 738.097,101.48C738.305,101.619 738.412,101.877 738.363,102.122C738.351,102.182 738.33,102.24 738.301,102.295C738.272,102.349 738.235,102.399 738.192,102.442C738.105,102.529 737.993,102.589 737.872,102.613C737.818,102.624 737.804,102.622 737.75,102.625ZM743.375,102.625L740.875,102.625C740.771,102.62 740.673,102.601 740.58,102.551C740.508,102.513 740.444,102.46 740.392,102.396C740.233,102.203 740.206,101.926 740.324,101.705C740.353,101.651 740.39,101.601 740.433,101.558C740.52,101.471 740.632,101.411 740.753,101.387C740.807,101.376 740.821,101.378 740.875,101.375C741.729,101.375 742.584,101.336 743.436,101.378C743.539,101.393 743.635,101.422 743.722,101.48C743.93,101.619 744.037,101.877 743.988,102.122C743.976,102.182 743.955,102.24 743.926,102.295C743.897,102.349 743.86,102.399 743.817,102.442C743.73,102.529 743.618,102.589 743.497,102.613C743.443,102.624 743.429,102.622 743.375,102.625ZM749,102.625L746.5,102.625C746.396,102.62 746.298,102.601 746.205,102.551C746.133,102.513 746.069,102.46 746.017,102.396C745.858,102.203 745.831,101.926 745.949,101.705C745.978,101.651 746.015,101.601 746.058,101.558C746.145,101.471 746.257,101.411 746.378,101.387C746.432,101.376 746.446,101.378 746.5,101.375C747.354,101.375 748.209,101.336 749.061,101.378C749.164,101.393 749.26,101.422 749.347,101.48C749.555,101.619 749.662,101.877 749.613,102.122C749.601,102.182 749.58,102.24 749.551,102.295C749.522,102.349 749.485,102.399 749.442,102.442C749.355,102.529 749.243,102.589 749.122,102.613C749.068,102.624 749.054,102.622 749,102.625ZM733.561,97.503C733.623,97.512 733.681,97.524 733.739,97.548C733.911,97.619 734.044,97.766 734.098,97.944C734.116,98.004 734.122,98.063 734.125,98.125L734.125,100.625C734.122,100.679 734.124,100.693 734.113,100.747C734.089,100.868 734.029,100.98 733.942,101.067C733.899,101.11 733.849,101.147 733.795,101.176C733.574,101.294 733.297,101.267 733.104,101.108C733.04,101.056 732.987,100.992 732.949,100.92C732.899,100.827 732.88,100.729 732.875,100.625L732.875,98.125C732.878,98.063 732.884,98.004 732.902,97.944C732.956,97.766 733.089,97.619 733.261,97.548C733.319,97.524 733.377,97.512 733.439,97.503C733.5,97.5 733.5,97.5 733.561,97.503ZM749.561,96.253C749.623,96.262 749.681,96.274 749.739,96.298C749.911,96.369 750.044,96.516 750.098,96.694C750.116,96.754 750.122,96.813 750.125,96.875L750.125,99.375C750.122,99.429 750.124,99.443 750.113,99.497C750.089,99.618 750.029,99.73 749.942,99.817C749.899,99.86 749.849,99.897 749.795,99.926C749.574,100.044 749.297,100.017 749.104,99.858C749.04,99.806 748.987,99.742 748.949,99.67C748.899,99.577 748.88,99.479 748.875,99.375L748.875,96.875C748.878,96.813 748.884,96.754 748.902,96.694C748.956,96.516 749.089,96.369 749.261,96.298C749.319,96.274 749.377,96.262 749.439,96.253C749.5,96.25 749.5,96.25 749.561,96.253ZM749.561,90.628C749.623,90.637 749.681,90.649 749.739,90.673C749.911,90.744 750.044,90.891 750.098,91.069C750.116,91.129 750.122,91.188 750.125,91.25L750.125,93.75C750.122,93.804 750.124,93.818 750.113,93.872C750.089,93.993 750.029,94.105 749.942,94.192C749.899,94.235 749.849,94.272 749.795,94.301C749.574,94.419 749.297,94.392 749.104,94.233C749.04,94.181 748.987,94.117 748.949,94.045C748.899,93.952 748.88,93.854 748.875,93.75L748.875,91.25C748.878,91.188 748.884,91.129 748.902,91.069C748.956,90.891 749.089,90.744 749.261,90.673C749.319,90.649 749.377,90.637 749.439,90.628C749.5,90.625 749.5,90.625 749.561,90.628ZM749.561,85.378C749.623,85.387 749.681,85.399 749.739,85.423C749.911,85.494 750.044,85.641 750.098,85.819C750.116,85.879 750.122,85.938 750.125,86L750.125,88.125C750.122,88.179 750.124,88.193 750.113,88.247C750.089,88.368 750.029,88.48 749.942,88.567C749.765,88.744 749.492,88.798 749.261,88.702C749.204,88.679 749.151,88.647 749.104,88.608C749.04,88.556 748.987,88.492 748.949,88.42C748.899,88.327 748.88,88.229 748.875,88.125L748.875,86.625L747,86.625L746.939,86.622C746.885,86.614 746.871,86.614 746.819,86.598C746.701,86.562 746.595,86.492 746.517,86.396C746.358,86.203 746.331,85.926 746.449,85.705C746.478,85.651 746.515,85.601 746.558,85.558C746.601,85.515 746.651,85.478 746.705,85.449C746.798,85.399 746.896,85.38 747,85.375C747.854,85.375 748.709,85.336 749.561,85.378ZM743.262,85.36C743.487,85.362 743.712,85.367 743.936,85.378C744.039,85.393 744.135,85.422 744.222,85.48C744.273,85.514 744.319,85.556 744.358,85.604C744.517,85.797 744.544,86.074 744.426,86.295C744.397,86.349 744.36,86.399 744.317,86.442C744.23,86.529 744.118,86.589 743.997,86.613C743.943,86.624 743.929,86.622 743.875,86.625L743.355,86.625C743.358,86.585 743.36,86.546 743.362,86.506C743.369,86.38 743.373,86.253 743.374,86.127C743.376,85.987 743.374,85.848 743.352,85.71C743.334,85.59 743.303,85.473 743.262,85.36Z" style="fill:rgb(64,64,64);"/>
                </g>
                <g transform="matrix(4,0,0,4,-1558,-213)">
                    <path d="M728.49,91.565C728.544,91.573 728.558,91.573 728.611,91.589C728.671,91.607 728.723,91.635 728.777,91.667C728.883,91.745 728.984,91.83 729.089,91.909C729.617,92.299 730.191,92.628 730.803,92.866L730.859,92.891C730.95,92.942 731.029,93.003 731.089,93.089C731.136,93.156 731.17,93.233 731.188,93.313C731.205,93.392 731.207,93.476 731.193,93.556C731.146,93.824 730.923,94.036 730.653,94.069C730.545,94.082 730.439,94.065 730.338,94.026C730.241,93.987 730.144,93.947 730.047,93.905C729.697,93.749 729.356,93.574 729.028,93.375C728.703,93.177 728.393,92.957 728.095,92.72L728.036,92.672C727.958,92.602 727.895,92.525 727.854,92.428C727.741,92.156 727.838,91.833 728.082,91.669C728.17,91.61 728.265,91.581 728.368,91.565C728.429,91.562 728.429,91.562 728.49,91.565ZM725.7,86.821C725.761,86.831 725.819,86.843 725.877,86.868C726.009,86.925 726.119,87.028 726.185,87.155C726.21,87.204 726.213,87.217 726.231,87.269C726.262,87.4 726.284,87.533 726.314,87.665C726.466,88.304 726.696,88.917 727.006,89.496L727.032,89.552C727.051,89.603 727.057,89.615 727.068,89.669C727.096,89.81 727.074,89.959 727.007,90.086C726.968,90.158 726.915,90.222 726.852,90.274C726.805,90.313 726.752,90.345 726.695,90.369C726.464,90.465 726.191,90.41 726.014,90.234C725.927,90.147 725.875,90.034 725.82,89.926C725.756,89.802 725.695,89.676 725.638,89.549C725.36,88.935 725.16,88.292 725.029,87.631L725.016,87.556C725.004,87.474 725.001,87.395 725.019,87.312C725.062,87.11 725.206,86.939 725.399,86.862C725.457,86.839 725.515,86.828 725.577,86.82C725.638,86.818 725.638,86.818 725.7,86.821ZM726.649,81.393C726.752,81.412 726.845,81.444 726.931,81.506C727.134,81.653 727.23,81.914 727.172,82.157C727.151,82.25 727.104,82.327 727.058,82.408C727.015,82.486 726.973,82.565 726.932,82.644C726.878,82.751 726.826,82.858 726.777,82.967C726.562,83.449 726.394,83.95 726.285,84.467L726.269,84.526C726.25,84.577 726.247,84.591 726.221,84.639C726.152,84.765 726.039,84.864 725.906,84.918C725.673,85.011 725.401,84.953 725.226,84.774C725.183,84.73 725.147,84.68 725.119,84.625C725.081,84.553 725.058,84.473 725.051,84.391C725.041,84.276 725.07,84.165 725.096,84.054C725.136,83.88 725.181,83.708 725.232,83.538C725.423,82.899 725.69,82.287 726.019,81.708C726.035,81.68 726.036,81.681 726.058,81.646C726.092,81.604 726.099,81.592 726.139,81.554C726.214,81.485 726.307,81.434 726.406,81.408C726.458,81.394 726.472,81.395 726.527,81.389C726.588,81.388 726.588,81.388 726.649,81.393ZM741.139,84.118C741.151,84.113 741.163,84.108 741.176,84.103C741.235,84.081 741.293,84.072 741.355,84.065C741.417,84.065 741.416,84.064 741.478,84.07C741.539,84.081 741.597,84.095 741.654,84.121C741.664,84.126 741.673,84.13 741.683,84.135C741.647,84.132 741.612,84.129 741.576,84.127C741.43,84.124 741.284,84.121 741.139,84.118ZM738.746,79.278C738.807,79.288 738.865,79.301 738.923,79.326C739.007,79.363 739.075,79.42 739.143,79.479C739.248,79.57 739.35,79.663 739.45,79.758C739.976,80.259 740.432,80.826 740.821,81.44C740.841,81.473 740.84,81.473 740.86,81.509C740.881,81.559 740.889,81.571 740.903,81.624C740.929,81.723 740.93,81.828 740.906,81.928C740.892,81.987 740.869,82.045 740.838,82.098C740.701,82.333 740.419,82.454 740.154,82.392C740.034,82.363 739.924,82.299 739.84,82.209C739.79,82.154 739.753,82.089 739.713,82.027C739.665,81.952 739.615,81.878 739.565,81.805C739.497,81.708 739.427,81.613 739.356,81.518C739.031,81.1 738.668,80.718 738.265,80.373L738.221,80.331C738.152,80.252 738.098,80.169 738.07,80.067C737.996,79.805 738.106,79.518 738.335,79.371C738.424,79.315 738.52,79.288 738.623,79.275C738.685,79.273 738.685,79.273 738.746,79.278ZM730.878,77.854C730.981,77.874 731.074,77.907 731.159,77.97C731.36,78.119 731.455,78.381 731.394,78.623C731.379,78.683 731.356,78.74 731.324,78.793C731.259,78.902 731.166,78.978 731.056,79.037C730.915,79.095 730.771,79.146 730.631,79.205C730.046,79.457 729.493,79.776 728.99,80.167L728.939,80.202C728.892,80.229 728.881,80.237 728.83,80.257C728.696,80.308 728.545,80.311 728.409,80.266C728.351,80.246 728.295,80.218 728.245,80.183C728.041,80.038 727.941,79.778 727.997,79.534C728.015,79.455 728.049,79.379 728.096,79.312C728.161,79.22 728.252,79.156 728.34,79.09C728.479,78.986 728.62,78.887 728.765,78.792C729.319,78.426 729.914,78.131 730.535,77.899L730.576,77.884C730.637,77.866 730.693,77.855 730.756,77.848C730.817,77.848 730.817,77.848 730.878,77.854ZM733.611,77.376C733.977,77.383 734.342,77.408 734.705,77.459C735.195,77.527 735.677,77.64 736.149,77.79L736.207,77.812C736.3,77.858 736.382,77.914 736.448,77.996C736.486,78.044 736.518,78.098 736.54,78.155C736.633,78.387 736.575,78.659 736.396,78.834C736.352,78.877 736.301,78.913 736.247,78.941C736.156,78.988 736.054,79.012 735.951,79.011C735.897,79.01 735.883,79.006 735.83,78.997C735.696,78.962 735.564,78.918 735.431,78.881C735.104,78.794 734.774,78.727 734.439,78.684C734.126,78.644 733.812,78.627 733.496,78.625L733.435,78.622C733.332,78.606 733.237,78.577 733.149,78.517C733.099,78.483 733.053,78.441 733.014,78.393C732.857,78.199 732.831,77.922 732.951,77.702C732.98,77.648 733.017,77.598 733.061,77.555C733.134,77.483 733.224,77.43 733.322,77.401C733.375,77.385 733.389,77.385 733.443,77.378C733.527,77.374 733.527,77.375 733.611,77.376Z" style="fill:rgb(64,64,64);"/>
                </g>
                <g transform="matrix(1,0,0,1,96,-509)">
                    <path d="M1312,640C1312,657.662 1297.66,672 1280,672L1280,640L1312,640Z" style="fill:none;stroke:rgb(64,64,64);stroke-width:5px;"/>
                </g>
            </g>
        </g>
    </g>
</svg>
