<?xml version="1.0" encoding="UTF-8" standalone="no"?><!DOCTYPE svg PUBLIC "-//W3C//DTD SVG 1.1//EN" "http://www.w3.org/Graphics/SVG/1.1/DTD/svg11.dtd"><svg width="100%" height="100%" viewBox="0 0 20 20" version="1.1" xmlns="http://www.w3.org/2000/svg" xmlns:xlink="http://www.w3.org/1999/xlink" xml:space="preserve" xmlns:serif="http://www.serif.com/" style="fill-rule:evenodd;clip-rule:evenodd;stroke-linecap:round;stroke-linejoin:round;stroke-miterlimit:1.5;"><g id="operation-send-to-front"><path d="M17.515,12.166c0.556,-0.009 1.113,-0.011 1.668,0.023c0.05,0.009 0.063,0.009 0.111,0.027c0.126,0.048 0.227,0.149 0.275,0.275c0.021,0.056 0.027,0.11 0.031,0.168l0,6.067c-0.004,0.059 -0.01,0.113 -0.031,0.168c-0.048,0.126 -0.149,0.227 -0.275,0.275c-0.055,0.021 -0.109,0.027 -0.168,0.031l-6.067,0c-0.058,-0.004 -0.112,-0.01 -0.168,-0.031c-0.126,-0.048 -0.227,-0.149 -0.275,-0.275c-0.021,-0.055 -0.027,-0.109 -0.031,-0.168l0,-1.611l0.948,0l0,1.137l5.119,0l0,-5.119l-1.137,0l0,-0.967Zm-14.977,-5.099l-1.612,0c-0.058,-0.004 -0.112,-0.01 -0.168,-0.031c-0.126,-0.048 -0.227,-0.149 -0.275,-0.275c-0.021,-0.056 -0.027,-0.11 -0.031,-0.168l0,-6.067c0.004,-0.058 0.01,-0.112 0.031,-0.168c0.048,-0.126 0.149,-0.227 0.275,-0.275c0.056,-0.021 0.11,-0.027 0.168,-0.031c2.041,0 4.086,-0.12 6.124,0.004c0.05,0.009 0.063,0.009 0.111,0.027c0.126,0.048 0.227,0.149 0.275,0.275c0.021,0.056 0.027,0.11 0.031,0.168l0,1.591c-0.316,0.003 -0.632,0.006 -0.948,0.009l0,-1.126l-5.119,0l0,5.119l1.138,0l0,0.948Z" style="fill:#404040;"/><rect x="3.959" y="3.559" width="12.133" height="12.133" style="fill:none;stroke:#58d432;stroke-width:1px;"/></g></svg>