<?xml version="1.0" encoding="UTF-8" standalone="no"?><!DOCTYPE svg PUBLIC "-//W3C//DTD SVG 1.1//EN" "http://www.w3.org/Graphics/SVG/1.1/DTD/svg11.dtd"><svg width="100%" height="100%" viewBox="0 0 17 16" version="1.1" xmlns="http://www.w3.org/2000/svg" xmlns:xlink="http://www.w3.org/1999/xlink" xml:space="preserve" xmlns:serif="http://www.serif.com/" style="fill-rule:evenodd;clip-rule:evenodd;stroke-linejoin:round;stroke-miterlimit:1.41421;"><g id="operation-xor"><path d="M11.534,4.958c1.268,-0.007 2.536,0.007 3.803,0.069c0.037,0.005 0.072,0.012 0.107,0.026c0.102,0.043 0.183,0.132 0.215,0.238c0.011,0.036 0.014,0.072 0.016,0.109l0,9.6c-0.002,0.05 -0.009,0.097 -0.028,0.143c-0.043,0.103 -0.131,0.183 -0.238,0.216c-0.036,0.011 -0.071,0.014 -0.109,0.016l-9.6,0c-0.05,-0.003 -0.097,-0.009 -0.143,-0.029c-0.103,-0.042 -0.183,-0.131 -0.216,-0.237c-0.011,-0.036 -0.014,-0.072 -0.016,-0.109l0,-3.74c0.065,0.023 0.132,0.041 0.201,0.051c0.083,0.013 0.166,0.015 0.25,0.013c0.076,0 0.152,-0.003 0.228,-0.007c0.024,-0.001 0.047,-0.002 0.071,-0.004l0,3.312l8.85,0l0,-8.85l-3.312,0c0.002,-0.024 0.003,-0.048 0.004,-0.071c0.004,-0.076 0.007,-0.152 0.008,-0.228c0.001,-0.084 0,-0.167 -0.014,-0.25c-0.014,-0.093 -0.04,-0.183 -0.077,-0.268Z" style="fill:url(#_Linear1);"/><path d="M4.606,10.458c-0.294,-0.063 -0.583,-0.152 -0.862,-0.266c-0.597,-0.244 -1.147,-0.601 -1.614,-1.047c-0.451,-0.43 -0.823,-0.941 -1.094,-1.502c-0.231,-0.479 -0.387,-0.993 -0.461,-1.52c-0.079,-0.564 -0.065,-1.142 0.043,-1.702c0.088,-0.458 0.238,-0.903 0.445,-1.321c0.52,-1.044 1.394,-1.897 2.451,-2.391c0.443,-0.207 0.915,-0.35 1.399,-0.424c0.239,-0.037 0.479,-0.055 0.72,-0.06c0.067,0 0.067,0 0.134,0c0.241,0.005 0.482,0.023 0.72,0.06c0.484,0.074 0.956,0.217 1.399,0.424c1.057,0.494 1.931,1.347 2.451,2.391c0.19,0.383 0.332,0.789 0.422,1.206c-0.07,-0.016 -0.141,-0.026 -0.213,-0.03c-0.19,-0.004 -0.379,-0.007 -0.568,-0.01c-0.076,-0.287 -0.181,-0.566 -0.313,-0.832c-0.444,-0.893 -1.192,-1.623 -2.096,-2.046c-0.379,-0.176 -0.782,-0.299 -1.195,-0.362c-0.204,-0.031 -0.41,-0.047 -0.617,-0.051c-0.057,0 -0.057,0 -0.114,0c-0.207,0.004 -0.413,0.02 -0.617,0.051c-0.413,0.063 -0.816,0.186 -1.195,0.362c-0.904,0.423 -1.652,1.153 -2.096,2.046c-0.177,0.357 -0.306,0.737 -0.381,1.128c-0.092,0.479 -0.104,0.974 -0.036,1.457c0.063,0.45 0.196,0.889 0.393,1.298c0.232,0.48 0.551,0.918 0.937,1.285c0.399,0.381 0.869,0.687 1.38,0.896c0.176,0.072 0.356,0.132 0.539,0.18c0.002,0.189 0.005,0.378 0.009,0.567c0.004,0.073 0.014,0.144 0.03,0.213Z" style="fill:url(#_Linear2);"/><path d="M5.727,9.116c0.045,0.005 0.088,0.014 0.129,0.033c0.098,0.045 0.173,0.132 0.204,0.235c0.01,0.035 0.014,0.07 0.015,0.106l0,0.319c0.082,-0.007 0.163,-0.016 0.244,-0.027c0.045,-0.006 0.09,-0.014 0.135,-0.02c0.027,-0.001 0.027,-0.001 0.054,-0.001c0.081,0.008 0.157,0.034 0.22,0.088c0.027,0.023 0.051,0.049 0.071,0.079c0.091,0.137 0.081,0.323 -0.025,0.449c-0.046,0.055 -0.108,0.096 -0.176,0.117c-0.036,0.011 -0.074,0.016 -0.111,0.021c-0.064,0.01 -0.129,0.019 -0.193,0.026c-0.131,0.015 -0.263,0.025 -0.394,0.03c-0.044,0.002 -0.089,0.003 -0.133,0.004c-0.038,0 -0.078,0.002 -0.116,-0.003c-0.129,-0.017 -0.243,-0.103 -0.295,-0.222c-0.017,-0.04 -0.026,-0.081 -0.03,-0.124c-0.008,-0.245 -0.001,-0.491 -0.001,-0.736c0.001,-0.036 0.005,-0.071 0.015,-0.106c0.028,-0.094 0.094,-0.176 0.18,-0.223c0.04,-0.022 0.082,-0.034 0.127,-0.042c0.027,-0.003 0.053,-0.004 0.08,-0.003Zm3.659,-0.987c0.072,0.007 0.139,0.029 0.198,0.072c0.132,0.098 0.186,0.276 0.129,0.431c-0.012,0.033 -0.029,0.065 -0.05,0.094c-0.04,0.054 -0.088,0.103 -0.133,0.153c-0.07,0.076 -0.141,0.151 -0.215,0.223c-0.27,0.263 -0.568,0.499 -0.888,0.696c-0.024,0.013 -0.023,0.013 -0.048,0.025c-0.059,0.023 -0.119,0.035 -0.183,0.029c-0.044,-0.004 -0.088,-0.016 -0.128,-0.035c-0.041,-0.019 -0.077,-0.046 -0.108,-0.078c-0.121,-0.126 -0.139,-0.324 -0.042,-0.469c0.032,-0.047 0.073,-0.084 0.121,-0.114c0.06,-0.038 0.119,-0.077 0.178,-0.117c0.218,-0.153 0.423,-0.322 0.611,-0.511c0.063,-0.062 0.124,-0.127 0.182,-0.193c0.029,-0.032 0.056,-0.064 0.084,-0.096c0.02,-0.018 0.02,-0.018 0.04,-0.035c0.061,-0.043 0.124,-0.067 0.198,-0.075c0.027,-0.001 0.027,-0.001 0.054,0Zm-3.659,-2.388c0.045,0.005 0.088,0.014 0.129,0.033c0.09,0.041 0.161,0.117 0.195,0.21c0.013,0.034 0.019,0.068 0.023,0.104c0.018,0.509 0.001,1.018 0.001,1.527c-0.003,0.091 -0.031,0.176 -0.092,0.246c-0.029,0.033 -0.064,0.062 -0.103,0.083c-0.136,0.074 -0.308,0.056 -0.426,-0.046c-0.026,-0.023 -0.05,-0.05 -0.069,-0.08c-0.035,-0.054 -0.052,-0.113 -0.059,-0.176c-0.018,-0.509 -0.001,-1.018 -0.001,-1.527c0.001,-0.036 0.005,-0.071 0.015,-0.106c0.028,-0.094 0.094,-0.176 0.18,-0.223c0.04,-0.022 0.082,-0.034 0.127,-0.042c0.027,-0.003 0.053,-0.004 0.08,-0.003Zm4.774,-0.716c0.031,-0.001 0.063,0.004 0.093,0.012c0.159,0.041 0.276,0.186 0.281,0.351c0.002,0.07 -0.002,0.141 -0.004,0.212c-0.009,0.218 -0.03,0.436 -0.066,0.651c-0.041,0.251 -0.102,0.497 -0.179,0.738c-0.009,0.026 -0.009,0.026 -0.02,0.05c-0.03,0.056 -0.068,0.105 -0.12,0.142c-0.036,0.026 -0.077,0.045 -0.12,0.057c-0.178,0.048 -0.369,-0.045 -0.442,-0.214c-0.036,-0.085 -0.037,-0.174 -0.013,-0.262c0.022,-0.067 0.042,-0.135 0.061,-0.204c0.069,-0.264 0.116,-0.532 0.139,-0.804c-0.015,-0.006 -0.015,-0.006 -0.032,-0.013c-0.056,-0.028 -0.106,-0.065 -0.144,-0.116c-0.099,-0.132 -0.099,-0.318 0,-0.45c0.021,-0.028 0.047,-0.054 0.075,-0.075c0.059,-0.044 0.126,-0.066 0.198,-0.074c0.098,-0.004 0.195,-0.005 0.293,-0.001Zm-2.114,0.001c0.09,0.01 0.173,0.044 0.238,0.109c0.13,0.13 0.146,0.342 0.035,0.49c-0.027,0.035 -0.06,0.066 -0.097,0.09c-0.054,0.035 -0.113,0.052 -0.176,0.059c-0.509,0.018 -1.018,0.001 -1.527,0.001c-0.063,-0.002 -0.124,-0.015 -0.18,-0.046c-0.031,-0.017 -0.06,-0.039 -0.085,-0.064c-0.11,-0.109 -0.14,-0.28 -0.076,-0.421c0.018,-0.04 0.044,-0.078 0.076,-0.109c0.065,-0.065 0.148,-0.099 0.238,-0.109c0.518,-0.019 1.036,-0.019 1.554,0Z" style="fill:url(#_Linear3);fill-rule:nonzero;"/></g><defs><linearGradient id="_Linear1" x1="0" y1="0" x2="1" y2="0" gradientUnits="userSpaceOnUse" gradientTransform="matrix(9.04705e-16,14.775,-14.775,9.04705e-16,-61.2,0.225048)"><stop offset="0" style="stop-color:#404040;stop-opacity:1"/><stop offset="1" style="stop-color:#797979;stop-opacity:1"/></linearGradient><linearGradient id="_Linear2" x1="0" y1="0" x2="1" y2="0" gradientUnits="userSpaceOnUse" gradientTransform="matrix(9.04705e-16,14.775,-14.775,9.04705e-16,-61.2,0.225048)"><stop offset="0" style="stop-color:#404040;stop-opacity:1"/><stop offset="1" style="stop-color:#797979;stop-opacity:1"/></linearGradient><linearGradient id="_Linear3" x1="0" y1="0" x2="1" y2="0" gradientUnits="userSpaceOnUse" gradientTransform="matrix(9.04705e-16,14.775,-14.775,9.04705e-16,-61.2,0.225048)"><stop offset="0" style="stop-color:#404040;stop-opacity:1"/><stop offset="1" style="stop-color:#797979;stop-opacity:1"/></linearGradient></defs></svg>