<?xml version="1.0" encoding="UTF-8" standalone="no"?><!DOCTYPE svg PUBLIC "-//W3C//DTD SVG 1.1//EN" "http://www.w3.org/Graphics/SVG/1.1/DTD/svg11.dtd"><svg width="100%" height="100%" viewBox="0 0 14 13" version="1.1" xmlns="http://www.w3.org/2000/svg" xmlns:xlink="http://www.w3.org/1999/xlink" xml:space="preserve" xmlns:serif="http://www.serif.com/" style="fill-rule:evenodd;clip-rule:evenodd;stroke-linecap:round;stroke-linejoin:round;stroke-miterlimit:1.5;"><g id="operation-send-to-back"><path d="M3.062,10.187l4.75,0l0,0.625l-5.062,0c-0.031,-0.001 -0.061,-0.004 -0.091,-0.013c-0.089,-0.027 -0.162,-0.094 -0.198,-0.179c-0.016,-0.039 -0.021,-0.078 -0.024,-0.12l0,-5.062l0.625,0l0,4.749Zm2.626,-8.032c1.698,-0.028 3.397,-0.049 5.093,0.034c0.031,0.005 0.06,0.01 0.089,0.022c0.085,0.036 0.152,0.109 0.179,0.198c0.009,0.03 0.012,0.06 0.013,0.091l0,5.044c-0.208,0.001 -0.416,0.003 -0.625,0.005l0,-4.737l-4.749,0l0,-0.657Z" style="fill:#58d432;"/><path d="M12.75,8.5l0,4l-4,0l0,-4l4,0Zm-8,-8l0,4l-4,0l0,-4l4,0Z" style="fill:none;stroke:#dfdfdf;stroke-width:0.63px;"/></g></svg>