<?xml version="1.0" encoding="UTF-8" standalone="no"?><!DOCTYPE svg PUBLIC "-//W3C//DTD SVG 1.1//EN" "http://www.w3.org/Graphics/SVG/1.1/DTD/svg11.dtd"><svg width="100%" height="100%" viewBox="0 0 15 15" version="1.1" xmlns="http://www.w3.org/2000/svg" xmlns:xlink="http://www.w3.org/1999/xlink" xml:space="preserve" xmlns:serif="http://www.serif.com/" style="fill-rule:evenodd;clip-rule:evenodd;stroke-linecap:round;stroke-linejoin:round;stroke-miterlimit:1.5;"><g id="operation-send-to-front"><path d="M13.136,9.124c0.417,-0.006 0.835,-0.008 1.251,0.018c0.038,0.007 0.048,0.007 0.084,0.02c0.094,0.036 0.17,0.112 0.206,0.207c0.016,0.041 0.02,0.082 0.023,0.126l0,4.55c-0.003,0.043 -0.007,0.084 -0.023,0.126c-0.036,0.094 -0.112,0.17 -0.206,0.206c-0.042,0.016 -0.082,0.02 -0.126,0.023l-4.55,0c-0.044,-0.003 -0.085,-0.007 -0.126,-0.023c-0.095,-0.036 -0.171,-0.112 -0.207,-0.206c-0.016,-0.042 -0.02,-0.083 -0.023,-0.126l0,-1.209l0.711,0l0,0.853l3.839,0l0,-3.839l-0.853,0l0,-0.726Zm-11.233,-3.824l-1.208,0c-0.044,-0.003 -0.085,-0.007 -0.126,-0.023c-0.095,-0.036 -0.171,-0.112 -0.207,-0.206c-0.015,-0.042 -0.02,-0.082 -0.023,-0.126l0,-4.55c0.003,-0.044 0.008,-0.085 0.023,-0.126c0.036,-0.095 0.112,-0.171 0.207,-0.207c0.041,-0.015 0.082,-0.02 0.126,-0.023c1.531,0 3.064,-0.09 4.592,0.003c0.038,0.007 0.048,0.007 0.084,0.02c0.094,0.036 0.17,0.112 0.206,0.207c0.016,0.041 0.02,0.082 0.023,0.126l0,1.193c-0.237,0.002 -0.474,0.004 -0.711,0.006l0,-0.844l-3.839,0l0,3.839l0.853,0l0,0.711Z" style="fill:#dfdfdf;"/><rect x="2.97" y="2.67" width="9.1" height="9.1" style="fill:none;stroke:#58d432;stroke-width:0.75px;"/></g></svg>