<?xml version="1.0" encoding="UTF-8" standalone="no"?><!DOCTYPE svg PUBLIC "-//W3C//DTD SVG 1.1//EN" "http://www.w3.org/Graphics/SVG/1.1/DTD/svg11.dtd"><svg width="100%" height="100%" viewBox="0 0 15 15" version="1.1" xmlns="http://www.w3.org/2000/svg" xmlns:xlink="http://www.w3.org/1999/xlink" xml:space="preserve" xmlns:serif="http://www.serif.com/" style="fill-rule:evenodd;clip-rule:evenodd;stroke-linecap:round;stroke-linejoin:round;stroke-miterlimit:1.5;"><g id="operation-rotate-ccw"><path d="M8.158,10.612l5.581,2.791c0.013,0.007 0.026,0.014 0.038,0.022c0.049,0.032 0.09,0.075 0.119,0.125c0.082,0.142 0.061,0.326 -0.052,0.446c-0.03,0.031 -0.065,0.058 -0.104,0.077c-0.054,0.028 -0.109,0.037 -0.169,0.04l-5.477,0l0.004,-0.013c0.024,-0.07 0.041,-0.142 0.05,-0.215c0.009,-0.065 0.008,-0.081 0.01,-0.147l0,-0.375l3.825,0l-3.825,-1.912l0,-0.839Zm-8.038,1.361l0,-4.773c0.002,-0.043 0.006,-0.084 0.021,-0.125c0.038,-0.107 0.125,-0.193 0.233,-0.23c0.041,-0.014 0.082,-0.018 0.125,-0.02c0.014,0.001 0.028,0.002 0.042,0.003c0.014,0.002 0.028,0.004 0.042,0.008c0.037,0.008 0.045,0.014 0.079,0.029l1.609,0.804l-0.335,0.671l-1.066,-0.533l0,2.666l-0.75,1.5Z" style="fill:#dfdfdf;"/><path d="M7.033,0.662l-6.538,13.076l6.538,0l0,-13.076Z" style="fill:none;stroke:#58d432;stroke-width:0.75px;"/><g><path d="M14.505,10.314c0,-2.58 -2.091,-4.671 -4.67,-4.671" style="fill:none;stroke:#dfdfdf;stroke-width:0.75px;"/><path d="M10.614,7.2l-1.557,-1.557l1.557,-1.557" style="fill:none;stroke:#dfdfdf;stroke-width:0.75px;"/></g></g></svg>