<?xml version="1.0" encoding="UTF-8" standalone="no"?>
<!DOCTYPE svg PUBLIC "-//W3C//DTD SVG 1.1//EN" "http://www.w3.org/Graphics/SVG/1.1/DTD/svg11.dtd">
<svg width="100%" height="100%" viewBox="0 0 27 26" version="1.1" xmlns="http://www.w3.org/2000/svg" xmlns:xlink="http://www.w3.org/1999/xlink" xml:space="preserve" xmlns:serif="http://www.serif.com/" style="fill-rule:evenodd;clip-rule:evenodd;stroke-linecap:round;stroke-linejoin:round;stroke-miterlimit:1.5;">
    <g transform="matrix(1,0,0,1,-424,-197)">
        <g transform="matrix(0.40625,0,0,0.222222,-517.891,0)">
            <g id="operation-send-to-back" transform="matrix(0.307692,0,0,0.5625,2223.73,783)">
                <g transform="matrix(8,0,0,8,-3084,-1392)">
                    <path d="M430.125,217.375L439.625,217.375L439.625,218.625L429.5,218.625C429.438,218.622 429.379,218.616 429.319,218.598C429.141,218.544 428.994,218.411 428.923,218.239C428.89,218.162 428.879,218.083 428.875,218L428.875,207.875L430.125,207.875L430.125,217.375ZM435.375,201.309C438.772,201.255 442.169,201.211 445.561,201.378C445.623,201.387 445.681,201.399 445.739,201.423C445.911,201.494 446.044,201.641 446.098,201.819C446.116,201.879 446.122,201.938 446.125,202L446.125,212.087C445.708,212.09 445.292,212.093 444.875,212.098L444.875,202.625L435.375,202.625L435.375,201.309Z" style="fill:rgb(88,212,50);"/>
                </g>
                <g transform="matrix(8,0,0,8,-3084,-1392)">
                    <path d="M449.5,214L449.5,222L441.5,222L441.5,214L449.5,214ZM433.5,198L433.5,206L425.5,206L425.5,198L433.5,198Z" style="fill:none;stroke:rgb(64,64,64);stroke-width:1.25px;"/>
                </g>
            </g>
        </g>
    </g>
</svg>
