<?xml version="1.0" encoding="UTF-8" standalone="no"?><!DOCTYPE svg PUBLIC "-//W3C//DTD SVG 1.1//EN" "http://www.w3.org/Graphics/SVG/1.1/DTD/svg11.dtd"><svg width="100%" height="100%" viewBox="0 0 14 12" version="1.1" xmlns="http://www.w3.org/2000/svg" xmlns:xlink="http://www.w3.org/1999/xlink" xml:space="preserve" xmlns:serif="http://www.serif.com/" style="fill-rule:evenodd;clip-rule:evenodd;stroke-linecap:round;stroke-linejoin:round;stroke-miterlimit:1.5;"><g id="operation-rotate-cw"><path d="M3.069,6.111l2.85,-5.699c0.016,-0.028 0.019,-0.036 0.04,-0.061c0.047,-0.056 0.113,-0.095 0.185,-0.107c0.032,-0.006 0.04,-0.005 0.073,-0.005c0.012,0.002 0.024,0.003 0.036,0.005c0.036,0.008 0.069,0.018 0.102,0.037c0.074,0.042 0.128,0.115 0.148,0.198c0.007,0.032 0.006,0.04 0.008,0.072l0,7.281l-0.625,-0.312l0,-5.645l-2.258,4.516l-0.559,-0.28Z" style="fill:#dfdfdf;"/><path d="M11.647,11.449l-10.897,-5.449l0,5.449l10.897,0Z" style="fill:none;stroke:#58d432;stroke-width:0.63px;"/><g><path d="M7.561,3.73c2.149,0 3.892,1.742 3.892,3.892" style="fill:none;stroke:#dfdfdf;stroke-width:0.63px;"/><path d="M10.155,6.973l1.298,1.297l1.297,-1.297" style="fill:none;stroke:#dfdfdf;stroke-width:0.63px;"/></g></g></svg>