<?xml version="1.0" encoding="UTF-8" standalone="no"?><!DOCTYPE svg PUBLIC "-//W3C//DTD SVG 1.1//EN" "http://www.w3.org/Graphics/SVG/1.1/DTD/svg11.dtd"><svg width="100%" height="100%" viewBox="0 0 17 16" version="1.1" xmlns="http://www.w3.org/2000/svg" xmlns:xlink="http://www.w3.org/1999/xlink" xml:space="preserve" xmlns:serif="http://www.serif.com/" style="fill-rule:evenodd;clip-rule:evenodd;stroke-linecap:round;stroke-linejoin:round;stroke-miterlimit:1.5;"><g id="operation-send-to-back"><path d="M3.675,12.225l5.7,0l0,0.75l-6.075,0c-0.037,-0.002 -0.073,-0.005 -0.109,-0.016c-0.106,-0.032 -0.195,-0.113 -0.237,-0.215c-0.02,-0.047 -0.027,-0.094 -0.029,-0.144l0,-6.075l0.75,0l0,5.7Zm3.15,-9.64c2.038,-0.032 4.077,-0.058 6.112,0.042c0.037,0.005 0.072,0.012 0.107,0.027c0.102,0.042 0.183,0.131 0.215,0.237c0.011,0.036 0.014,0.072 0.016,0.109l0,6.052c-0.25,0.002 -0.5,0.004 -0.75,0.007l0,-5.684l-5.7,0l0,-0.79Z" style="fill:url(#_Linear1);"/><path d="M15.3,10.2l0,4.8l-4.8,0l0,-4.8l4.8,0Zm-9.6,-9.6l0,4.8l-4.8,0l0,-4.8l4.8,0Z" style="fill:none;stroke:#404040;stroke-width:0.75px;"/></g><defs><linearGradient id="_Linear1" x1="0" y1="0" x2="1" y2="0" gradientUnits="userSpaceOnUse" gradientTransform="matrix(8.81746e-16,14.4,-14.4,8.81746e-16,8.11959,0.6)"><stop offset="0" style="stop-color:#58d432;stop-opacity:1"/><stop offset="1" style="stop-color:#44ad24;stop-opacity:1"/></linearGradient></defs></svg>