<?xml version="1.0" encoding="UTF-8" standalone="no"?><!DOCTYPE svg PUBLIC "-//W3C//DTD SVG 1.1//EN" "http://www.w3.org/Graphics/SVG/1.1/DTD/svg11.dtd"><svg width="100%" height="100%" viewBox="0 0 22 21" version="1.1" xmlns="http://www.w3.org/2000/svg" xmlns:xlink="http://www.w3.org/1999/xlink" xml:space="preserve" xmlns:serif="http://www.serif.com/" style="fill-rule:evenodd;clip-rule:evenodd;stroke-linecap:round;stroke-linejoin:round;stroke-miterlimit:1.5;"><g id="operation-send-to-back"><path d="M4.9,16.3l7.6,0l0,1l-8.1,0c-0.05,-0.002 -0.097,-0.007 -0.145,-0.022c-0.142,-0.043 -0.26,-0.149 -0.317,-0.287c-0.026,-0.062 -0.035,-0.124 -0.038,-0.191l0,-8.1l1,0l0,7.6Zm4.2,-12.853c2.718,-0.043 5.436,-0.078 8.149,0.055c0.049,0.008 0.096,0.017 0.142,0.036c0.138,0.057 0.244,0.175 0.287,0.317c0.015,0.048 0.02,0.095 0.022,0.145l0,8.07c-0.333,0.002 -0.667,0.005 -1,0.008l0,-7.578l-7.6,0l0,-1.053Z" style="fill:#58d432;"/><path d="M20.4,13.6l0,6.4l-6.4,0l0,-6.4l6.4,0Zm-12.8,-12.8l0,6.4l-6.4,0l0,-6.4l6.4,0Z" style="fill:none;stroke:#404040;stroke-width:1px;"/></g></svg>