<?xml version="1.0" encoding="UTF-8" standalone="no"?><!DOCTYPE svg PUBLIC "-//W3C//DTD SVG 1.1//EN" "http://www.w3.org/Graphics/SVG/1.1/DTD/svg11.dtd"><svg width="100%" height="100%" viewBox="0 0 13 13" version="1.1" xmlns="http://www.w3.org/2000/svg" xmlns:xlink="http://www.w3.org/1999/xlink" xml:space="preserve" xmlns:serif="http://www.serif.com/" style="fill-rule:evenodd;clip-rule:evenodd;stroke-linecap:round;stroke-linejoin:round;stroke-miterlimit:1.5;"><g id="operation-intersection"><path d="M6.375,12.812l-1.25,0c-0.027,-0.001 -0.034,0 -0.061,-0.006c-0.06,-0.012 -0.116,-0.042 -0.16,-0.085c-0.022,-0.022 -0.04,-0.047 -0.055,-0.074c-0.059,-0.11 -0.045,-0.249 0.034,-0.345c0.026,-0.032 0.059,-0.058 0.095,-0.078c0.046,-0.024 0.095,-0.034 0.147,-0.037c0.427,0 0.854,-0.019 1.281,0.002c0.051,0.008 0.099,0.022 0.143,0.051c0.104,0.07 0.157,0.198 0.132,0.321c-0.005,0.03 -0.016,0.059 -0.03,0.086c-0.015,0.027 -0.033,0.052 -0.055,0.074c-0.044,0.043 -0.1,0.073 -0.16,0.085c-0.027,0.006 -0.034,0.005 -0.061,0.006Zm2.813,0l-1.25,0c-0.053,-0.002 -0.101,-0.012 -0.148,-0.036c-0.036,-0.02 -0.068,-0.046 -0.094,-0.078c-0.079,-0.096 -0.093,-0.235 -0.034,-0.345c0.014,-0.027 0.033,-0.052 0.055,-0.074c0.043,-0.043 0.099,-0.073 0.16,-0.085c0.026,-0.006 0.033,-0.005 0.061,-0.007c0.426,0 0.854,-0.019 1.28,0.002c0.052,0.008 0.099,0.022 0.143,0.051c0.104,0.07 0.157,0.198 0.133,0.321c-0.006,0.03 -0.016,0.059 -0.031,0.086c-0.014,0.027 -0.033,0.052 -0.055,0.074c-0.043,0.043 -0.099,0.073 -0.16,0.085c-0.026,0.006 -0.033,0.005 -0.06,0.006Zm2.812,0l-1.25,0c-0.052,-0.002 -0.101,-0.012 -0.147,-0.036c-0.036,-0.02 -0.069,-0.046 -0.095,-0.078c-0.079,-0.096 -0.093,-0.235 -0.034,-0.345c0.015,-0.027 0.033,-0.052 0.055,-0.074c0.044,-0.043 0.1,-0.073 0.16,-0.085c0.027,-0.006 0.034,-0.005 0.061,-0.007c0.427,0 0.854,-0.019 1.281,0.002c0.051,0.008 0.099,0.022 0.143,0.051c0.104,0.07 0.157,0.198 0.132,0.321c-0.005,0.03 -0.016,0.059 -0.03,0.086c-0.015,0.027 -0.033,0.052 -0.055,0.074c-0.044,0.043 -0.1,0.073 -0.16,0.085c-0.027,0.006 -0.034,0.005 -0.061,0.006Zm-7.719,-2.56c0.031,0.004 0.06,0.01 0.089,0.022c0.085,0.035 0.152,0.109 0.179,0.198c0.009,0.03 0.012,0.059 0.014,0.09l0,1.25c-0.002,0.028 -0.001,0.035 -0.007,0.061c-0.012,0.061 -0.042,0.117 -0.085,0.16c-0.022,0.022 -0.047,0.041 -0.074,0.055c-0.11,0.059 -0.249,0.045 -0.345,-0.034c-0.032,-0.026 -0.058,-0.058 -0.078,-0.094c-0.024,-0.047 -0.034,-0.095 -0.036,-0.148l0,-1.25c0.001,-0.031 0.004,-0.06 0.013,-0.09c0.027,-0.089 0.094,-0.163 0.179,-0.198c0.029,-0.012 0.058,-0.018 0.089,-0.022c0.031,-0.002 0.031,-0.002 0.062,0Zm8,-0.625c0.031,0.004 0.06,0.01 0.089,0.022c0.085,0.035 0.152,0.109 0.179,0.198c0.009,0.03 0.012,0.059 0.014,0.09l0,1.25c-0.002,0.028 -0.001,0.035 -0.007,0.061c-0.012,0.061 -0.042,0.117 -0.085,0.16c-0.022,0.022 -0.047,0.041 -0.074,0.055c-0.11,0.059 -0.249,0.045 -0.345,-0.034c-0.032,-0.026 -0.058,-0.058 -0.078,-0.094c-0.024,-0.047 -0.034,-0.095 -0.036,-0.148l0,-1.25c0.001,-0.031 0.004,-0.06 0.013,-0.09c0.027,-0.089 0.094,-0.163 0.179,-0.198c0.029,-0.012 0.058,-0.018 0.089,-0.022c0.031,-0.002 0.031,-0.002 0.062,0Zm0,-2.813c0.031,0.005 0.06,0.01 0.089,0.022c0.085,0.036 0.152,0.109 0.179,0.198c0.009,0.03 0.012,0.06 0.014,0.091l0,1.25c-0.002,0.027 -0.001,0.034 -0.007,0.061c-0.012,0.06 -0.042,0.116 -0.085,0.16c-0.022,0.022 -0.047,0.04 -0.074,0.055c-0.11,0.059 -0.249,0.045 -0.345,-0.034c-0.032,-0.026 -0.058,-0.059 -0.078,-0.095c-0.024,-0.046 -0.034,-0.095 -0.036,-0.147l0,-1.25c0.001,-0.031 0.004,-0.061 0.013,-0.091c0.027,-0.089 0.094,-0.162 0.179,-0.198c0.029,-0.012 0.058,-0.017 0.089,-0.022c0.031,-0.002 0.031,-0.002 0.062,0Zm0,-2.625c0.031,0.005 0.06,0.01 0.089,0.022c0.085,0.036 0.152,0.109 0.179,0.198c0.009,0.03 0.012,0.06 0.014,0.091l0,1.062c-0.002,0.028 -0.001,0.035 -0.007,0.061c-0.012,0.061 -0.042,0.117 -0.085,0.16c-0.088,0.089 -0.225,0.116 -0.341,0.068c-0.028,-0.012 -0.055,-0.027 -0.078,-0.047c-0.032,-0.026 -0.058,-0.058 -0.078,-0.094c-0.024,-0.047 -0.034,-0.095 -0.036,-0.148l0,-0.75l-0.938,0l-0.031,-0.001c-0.027,-0.004 -0.034,-0.004 -0.06,-0.012c-0.059,-0.018 -0.112,-0.053 -0.151,-0.101c-0.079,-0.096 -0.093,-0.235 -0.034,-0.345c0.015,-0.027 0.033,-0.052 0.055,-0.074c0.022,-0.022 0.047,-0.04 0.074,-0.055c0.046,-0.024 0.095,-0.034 0.147,-0.037c0.427,0 0.854,-0.019 1.281,0.002Zm-3.15,-0.009c0.112,0.001 0.225,0.003 0.337,0.009c0.052,0.008 0.099,0.022 0.143,0.051c0.026,0.017 0.049,0.038 0.068,0.062c0.079,0.096 0.093,0.235 0.034,0.345c-0.014,0.027 -0.033,0.052 -0.055,0.074c-0.043,0.043 -0.099,0.073 -0.16,0.085c-0.026,0.006 -0.033,0.005 -0.06,0.006l-0.26,0c0.001,-0.019 0.002,-0.039 0.003,-0.059c0.003,-0.063 0.005,-0.126 0.006,-0.19c0.001,-0.07 0,-0.139 -0.011,-0.208c-0.009,-0.06 -0.024,-0.119 -0.045,-0.175Z" style="fill:#dfdfdf;"/><path d="M1.745,7.283c0.027,0.003 0.034,0.003 0.06,0.011c0.03,0.009 0.056,0.023 0.083,0.039c0.053,0.039 0.104,0.082 0.157,0.122c0.263,0.195 0.55,0.359 0.857,0.478l0.028,0.012c0.045,0.026 0.084,0.057 0.115,0.1c0.023,0.033 0.04,0.071 0.049,0.111c0.009,0.04 0.01,0.082 0.003,0.122c-0.024,0.134 -0.135,0.24 -0.27,0.256c-0.054,0.007 -0.107,-0.001 -0.158,-0.021c-0.049,-0.02 -0.097,-0.04 -0.145,-0.061c-0.176,-0.078 -0.346,-0.165 -0.51,-0.264c-0.163,-0.099 -0.318,-0.21 -0.467,-0.328l-0.029,-0.024c-0.039,-0.035 -0.071,-0.073 -0.091,-0.122c-0.057,-0.136 -0.008,-0.298 0.114,-0.38c0.044,-0.029 0.091,-0.043 0.143,-0.051c0.031,-0.002 0.031,-0.002 0.061,0Zm-1.395,-2.372c0.031,0.005 0.06,0.011 0.088,0.023c0.066,0.029 0.122,0.08 0.155,0.144c0.012,0.024 0.013,0.031 0.022,0.056c0.016,0.066 0.027,0.133 0.042,0.199c0.076,0.319 0.191,0.626 0.346,0.915l0.013,0.028c0.009,0.026 0.013,0.032 0.018,0.058c0.014,0.071 0.003,0.145 -0.031,0.209c-0.019,0.036 -0.045,0.068 -0.077,0.094c-0.024,0.02 -0.05,0.036 -0.079,0.047c-0.115,0.048 -0.252,0.021 -0.34,-0.067c-0.044,-0.044 -0.07,-0.1 -0.097,-0.154c-0.032,-0.062 -0.062,-0.125 -0.091,-0.189c-0.139,-0.307 -0.239,-0.628 -0.304,-0.958l-0.007,-0.038c-0.006,-0.041 -0.007,-0.081 0.001,-0.122c0.022,-0.101 0.094,-0.187 0.19,-0.225c0.029,-0.012 0.059,-0.017 0.09,-0.021c0.03,-0.001 0.03,-0.001 0.061,0.001Zm0.474,-2.714c0.052,0.009 0.099,0.025 0.141,0.056c0.102,0.073 0.15,0.204 0.121,0.326c-0.011,0.046 -0.034,0.084 -0.057,0.125c-0.022,0.039 -0.042,0.079 -0.063,0.118c-0.027,0.053 -0.053,0.107 -0.078,0.161c-0.107,0.242 -0.191,0.492 -0.246,0.75l-0.007,0.03c-0.01,0.026 -0.011,0.032 -0.024,0.056c-0.035,0.063 -0.091,0.113 -0.158,0.14c-0.116,0.046 -0.253,0.017 -0.34,-0.072c-0.021,-0.022 -0.039,-0.047 -0.054,-0.074c-0.018,-0.037 -0.03,-0.077 -0.034,-0.117c-0.005,-0.058 0.01,-0.114 0.023,-0.169c0.02,-0.087 0.043,-0.173 0.068,-0.258c0.095,-0.32 0.229,-0.625 0.393,-0.915c0.008,-0.014 0.009,-0.014 0.02,-0.031c0.017,-0.021 0.021,-0.027 0.041,-0.046c0.037,-0.035 0.083,-0.06 0.133,-0.073c0.026,-0.007 0.033,-0.007 0.06,-0.01c0.031,0 0.031,0 0.061,0.003Zm7.245,1.362c0.006,-0.003 0.013,-0.005 0.019,-0.008c0.029,-0.01 0.059,-0.015 0.09,-0.018c0.03,-0.001 0.03,-0.001 0.061,0.002c0.031,0.006 0.059,0.012 0.088,0.026c0.005,0.002 0.01,0.004 0.014,0.007c-0.017,-0.002 -0.035,-0.004 -0.053,-0.005c-0.073,-0.001 -0.146,-0.003 -0.219,-0.004Zm-1.196,-2.42c0.031,0.005 0.06,0.011 0.088,0.024c0.043,0.018 0.076,0.047 0.111,0.077c0.052,0.045 0.103,0.091 0.153,0.139c0.263,0.251 0.491,0.534 0.685,0.841c0.011,0.016 0.01,0.016 0.02,0.035c0.011,0.025 0.014,0.031 0.021,0.057c0.013,0.05 0.014,0.102 0.002,0.152c-0.007,0.03 -0.018,0.059 -0.034,0.085c-0.068,0.118 -0.21,0.178 -0.342,0.147c-0.06,-0.014 -0.115,-0.046 -0.157,-0.092c-0.025,-0.027 -0.043,-0.059 -0.064,-0.091c-0.024,-0.037 -0.048,-0.074 -0.074,-0.11c-0.034,-0.049 -0.068,-0.097 -0.104,-0.144c-0.163,-0.209 -0.344,-0.4 -0.545,-0.572l-0.023,-0.022c-0.034,-0.039 -0.061,-0.081 -0.075,-0.131c-0.037,-0.131 0.018,-0.275 0.133,-0.348c0.044,-0.029 0.092,-0.042 0.144,-0.048c0.031,-0.001 0.03,-0.001 0.061,0.001Zm-3.934,-0.712c0.051,0.01 0.098,0.027 0.141,0.058c0.1,0.074 0.147,0.205 0.117,0.327c-0.007,0.029 -0.019,0.058 -0.035,0.084c-0.033,0.055 -0.079,0.093 -0.134,0.123c-0.07,0.029 -0.142,0.054 -0.213,0.083c-0.292,0.126 -0.568,0.286 -0.82,0.481l-0.025,0.018c-0.024,0.013 -0.03,0.018 -0.055,0.027c-0.067,0.026 -0.142,0.028 -0.211,0.005c-0.029,-0.01 -0.056,-0.024 -0.081,-0.042c-0.102,-0.072 -0.152,-0.202 -0.125,-0.324c0.01,-0.04 0.026,-0.078 0.05,-0.111c0.033,-0.046 0.078,-0.078 0.122,-0.111c0.069,-0.052 0.14,-0.102 0.212,-0.149c0.278,-0.183 0.575,-0.33 0.886,-0.447l0.02,-0.007c0.03,-0.009 0.058,-0.015 0.09,-0.018c0.031,0 0.03,0 0.061,0.003Zm1.367,-0.239c0.183,0.003 0.365,0.016 0.546,0.041c0.246,0.035 0.487,0.091 0.723,0.166l0.028,0.011c0.047,0.023 0.088,0.051 0.121,0.092c0.019,0.024 0.035,0.051 0.046,0.079c0.046,0.116 0.017,0.253 -0.072,0.34c-0.022,0.021 -0.047,0.039 -0.075,0.054c-0.045,0.023 -0.096,0.035 -0.147,0.034c-0.028,0 -0.034,-0.002 -0.061,-0.006c-0.067,-0.018 -0.133,-0.04 -0.2,-0.059c-0.163,-0.043 -0.328,-0.077 -0.495,-0.098c-0.157,-0.02 -0.314,-0.029 -0.472,-0.03l-0.031,-0.001c-0.051,-0.008 -0.099,-0.023 -0.142,-0.052c-0.026,-0.017 -0.049,-0.038 -0.068,-0.062c-0.079,-0.097 -0.091,-0.236 -0.032,-0.346c0.015,-0.027 0.034,-0.052 0.055,-0.073c0.037,-0.036 0.082,-0.063 0.131,-0.078c0.026,-0.007 0.033,-0.007 0.06,-0.011c0.043,-0.002 0.042,-0.001 0.085,-0.001Z" style="fill:#dfdfdf;"/><path d="M8.25,4.5c0,2.208 -1.792,4 -4,4l0,-4l4,0Z" style="fill:none;stroke:#dfdfdf;stroke-width:0.63px;"/></g></svg>