<?xml version="1.0" encoding="UTF-8" standalone="no"?><!DOCTYPE svg PUBLIC "-//W3C//DTD SVG 1.1//EN" "http://www.w3.org/Graphics/SVG/1.1/DTD/svg11.dtd"><svg width="100%" height="100%" viewBox="0 0 16 15" version="1.1" xmlns="http://www.w3.org/2000/svg" xmlns:xlink="http://www.w3.org/1999/xlink" xml:space="preserve" xmlns:serif="http://www.serif.com/" style="fill-rule:evenodd;clip-rule:evenodd;stroke-linecap:round;stroke-linejoin:round;stroke-miterlimit:1.5;"><g id="operation-send-forward"><path d="M4.262,10.107l-3.565,0c-0.048,-0.002 -0.094,-0.009 -0.139,-0.027c-0.1,-0.042 -0.178,-0.128 -0.209,-0.231c-0.011,-0.035 -0.014,-0.069 -0.016,-0.106l0,-9.313c0.002,-0.036 0.005,-0.07 0.016,-0.105c0.031,-0.104 0.109,-0.189 0.209,-0.231c0.045,-0.018 0.091,-0.025 0.139,-0.027c3.116,0 6.236,-0.151 9.349,0.001c0.036,0.006 0.07,0.012 0.103,0.026c0.1,0.042 0.178,0.127 0.209,0.231c0.011,0.035 0.014,0.069 0.016,0.105l0,3.53c-0.243,0.002 -0.485,0.003 -0.728,0.005l0,-3.171l-8.585,0l0,8.586l3.201,0l0,0.727Z" style="fill:#404040;"/><rect x="5.354" y="5.087" width="9.313" height="9.313" style="fill:none;stroke:url(#_Linear1);stroke-width:0.75px;"/></g><defs><linearGradient id="_Linear1" x1="0" y1="0" x2="1" y2="0" gradientUnits="userSpaceOnUse" gradientTransform="matrix(8.77663e-16,14.3333,-14.3333,8.77663e-16,10.0102,0.066677)"><stop offset="0" style="stop-color:#58d432;stop-opacity:1"/><stop offset="1" style="stop-color:#44ad24;stop-opacity:1"/></linearGradient></defs></svg>