<?xml version="1.0" encoding="UTF-8" standalone="no"?><!DOCTYPE svg PUBLIC "-//W3C//DTD SVG 1.1//EN" "http://www.w3.org/Graphics/SVG/1.1/DTD/svg11.dtd"><svg width="100%" height="100%" viewBox="0 0 21 20" version="1.1" xmlns="http://www.w3.org/2000/svg" xmlns:xlink="http://www.w3.org/1999/xlink" xml:space="preserve" xmlns:serif="http://www.serif.com/" style="fill-rule:evenodd;clip-rule:evenodd;stroke-linecap:round;stroke-linejoin:round;stroke-miterlimit:1.5;"><g id="operation-send-backward"><path d="M15.093,6.462c1.608,-0.007 3.216,0.012 4.823,0.091c0.048,0.007 0.093,0.016 0.139,0.034c0.133,0.056 0.238,0.171 0.28,0.309c0.014,0.047 0.018,0.093 0.021,0.142l0,12.475c-0.004,0.065 -0.012,0.126 -0.038,0.186c-0.055,0.134 -0.17,0.238 -0.308,0.28c-0.047,0.014 -0.093,0.019 -0.142,0.021l-12.475,0c-0.065,-0.003 -0.126,-0.012 -0.186,-0.037c-0.134,-0.055 -0.238,-0.17 -0.28,-0.309c-0.014,-0.047 -0.019,-0.093 -0.021,-0.141l0,-4.776l0.974,0l0,4.288l11.501,0l0,-11.5l-4.288,0l0,-1.063Z" style="fill:#58d432;"/><rect x="1.156" y="0.8" width="12.475" height="12.475" style="fill:none;stroke:#dfdfdf;stroke-width:1px;"/></g></svg>