<?xml version="1.0" encoding="UTF-8" standalone="no"?><!DOCTYPE svg PUBLIC "-//W3C//DTD SVG 1.1//EN" "http://www.w3.org/Graphics/SVG/1.1/DTD/svg11.dtd"><svg width="100%" height="100%" viewBox="0 0 14 13" version="1.1" xmlns="http://www.w3.org/2000/svg" xmlns:xlink="http://www.w3.org/1999/xlink" xml:space="preserve" xmlns:serif="http://www.serif.com/" style="fill-rule:evenodd;clip-rule:evenodd;stroke-linecap:round;stroke-linejoin:round;stroke-miterlimit:1.5;"><g id="option-snap"><path d="M5.969,10.76l3.479,-3.479c0,0 1.758,-1.722 0,-3.479c-1.757,-1.758 -3.479,0 -3.479,0l-3.479,3.479l-1.74,-1.74l3.479,-3.479c0,0 3.444,-3.515 6.959,0c3.515,3.515 0,6.959 0,6.959l-3.479,3.479l-1.74,-1.74Z" style="fill:none;stroke:url(#_Linear1);stroke-width:0.63px;"/><path d="M4.229,5.541l-1.739,-1.739" style="fill:none;stroke:url(#_Linear2);stroke-width:0.63px;"/><path d="M9.448,10.76l-1.739,-1.739" style="fill:none;stroke:url(#_Linear3);stroke-width:0.63px;"/></g><defs><linearGradient id="_Linear1" x1="0" y1="0" x2="1" y2="0" gradientUnits="userSpaceOnUse" gradientTransform="matrix(8.88178e-16,10.3514,-10.3514,-8.88178e-16,30.5,1.14865)"><stop offset="0" style="stop-color:#e1e1e1;stop-opacity:1"/><stop offset="1" style="stop-color:#9b9b9b;stop-opacity:1"/></linearGradient><linearGradient id="_Linear2" x1="0" y1="0" x2="1" y2="0" gradientUnits="userSpaceOnUse" gradientTransform="matrix(8.88178e-16,10.3514,-10.3514,-8.88178e-16,30.5,1.14865)"><stop offset="0" style="stop-color:#e1e1e1;stop-opacity:1"/><stop offset="1" style="stop-color:#9b9b9b;stop-opacity:1"/></linearGradient><linearGradient id="_Linear3" x1="0" y1="0" x2="1" y2="0" gradientUnits="userSpaceOnUse" gradientTransform="matrix(8.88178e-16,10.3514,-10.3514,-8.88178e-16,30.5,1.14865)"><stop offset="0" style="stop-color:#e1e1e1;stop-opacity:1"/><stop offset="1" style="stop-color:#9b9b9b;stop-opacity:1"/></linearGradient></defs></svg>