<?xml version="1.0" encoding="UTF-8" standalone="no"?>
<!DOCTYPE svg PUBLIC "-//W3C//DTD SVG 1.1//EN" "http://www.w3.org/Graphics/SVG/1.1/DTD/svg11.dtd">
<svg width="100%" height="100%" viewBox="0 0 14 14" version="1.1" xmlns="http://www.w3.org/2000/svg" xmlns:xlink="http://www.w3.org/1999/xlink" xml:space="preserve" xmlns:serif="http://www.serif.com/" style="fill-rule:evenodd;clip-rule:evenodd;stroke-linecap:round;stroke-linejoin:round;stroke-miterlimit:1.5;">
    <g transform="matrix(1,0,0,1,-792,-204)">
        <g transform="matrix(0.40625,0,0,0.222222,-517.891,0)">
            <g transform="matrix(2.09295,0,0,1,-2166.77,0)">
                <g transform="matrix(3.50348e-17,-2.18919,0.572162,1.34049e-16,1818.67,1493.76)">
                    <path d="M240,1344C248.837,1344 256,1336.84 256,1328" style="fill:none;stroke:rgb(64,64,64);stroke-width:2.57px;"/>
                </g>
                <g transform="matrix(-0.0953603,1.34049e-16,-3.50348e-17,-0.364865,2607.49,1435.38)">
                    <path d="M288,1344L320,1376L288,1408" style="fill:none;stroke:rgb(64,64,64);stroke-width:15.42px;"/>
                </g>
                <g transform="matrix(-4.08739e-17,0.364865,0.0953603,1.56391e-16,2456.44,857.432)">
                    <path d="M288,1344L320,1376L288,1408" style="fill:none;stroke:rgb(64,64,64);stroke-width:15.42px;"/>
                </g>
            </g>
        </g>
    </g>
</svg>
