<?xml version="1.0" encoding="UTF-8" standalone="no"?><!DOCTYPE svg PUBLIC "-//W3C//DTD SVG 1.1//EN" "http://www.w3.org/Graphics/SVG/1.1/DTD/svg11.dtd"><svg width="100%" height="100%" viewBox="0 0 19 23" version="1.1" xmlns="http://www.w3.org/2000/svg" xmlns:xlink="http://www.w3.org/1999/xlink" xml:space="preserve" style="fill-rule:evenodd;clip-rule:evenodd;stroke-linejoin:round;stroke-miterlimit:1.41421;"><path id="text" d="M16.761,0.604l0.087,0.011l0.085,0.019l0.083,0.026l0.081,0.034l0.077,0.04l0.074,0.047l0.069,0.053l0.064,0.059l0.059,0.064l0.053,0.069l0.047,0.074l0.041,0.077l0.033,0.081l0.026,0.083l0.019,0.085l0.011,0.087l0.004,0.087l0,4.937l-0.004,0.087l-0.011,0.087l-0.019,0.085l-0.026,0.083l-0.033,0.081l-0.041,0.077l-0.047,0.074l-0.053,0.069l-0.059,0.064l-0.064,0.059l-0.069,0.053l-0.074,0.047l-0.077,0.04l-0.081,0.034l-0.083,0.026l-0.085,0.019l-0.087,0.011l-0.087,0.004l-1.783,0l-0.082,-0.003l-0.083,-0.011l-0.081,-0.017l-0.079,-0.023l-0.077,-0.03l-0.075,-0.037l-0.071,-0.042l-0.067,-0.049l-0.063,-0.053l-0.059,-0.059l-0.053,-0.063l-0.048,-0.068l-0.042,-0.071l-0.036,-0.075l-0.03,-0.077l-0.024,-0.079l-0.496,-1.986l-1.785,0l0,12.992l1.939,0.388l0.083,0.02l0.082,0.028l0.078,0.034l0.076,0.041l0.071,0.047l0.068,0.054l0.062,0.058l0.057,0.064l0.052,0.069l0.045,0.073l0.039,0.076l0.032,0.08l0.026,0.082l0.018,0.083l0.011,0.086l0.004,0.085l0,1.646l-0.004,0.087l-0.011,0.087l-0.019,0.085l-0.026,0.083l-0.034,0.081l-0.04,0.077l-0.047,0.074l-0.053,0.069l-0.059,0.064l-0.064,0.059l-0.07,0.053l-0.073,0.047l-0.078,0.04l-0.08,0.034l-0.083,0.026l-0.086,0.019l-0.086,0.011l-0.087,0.004l-8.366,0l-0.087,-0.004l-0.087,-0.011l-0.085,-0.019l-0.083,-0.026l-0.08,-0.034l-0.078,-0.04l-0.073,-0.047l-0.07,-0.053l-0.064,-0.059l-0.059,-0.064l-0.053,-0.069l-0.047,-0.074l-0.04,-0.077l-0.034,-0.081l-0.026,-0.083l-0.019,-0.085l-0.011,-0.087l-0.004,-0.087l0,-1.646l0.004,-0.085l0.011,-0.086l0.018,-0.083l0.026,-0.082l0.032,-0.08l0.039,-0.076l0.045,-0.073l0.052,-0.069l0.057,-0.064l0.062,-0.058l0.068,-0.054l0.071,-0.047l0.076,-0.041l0.078,-0.034l0.082,-0.028l0.083,-0.02l1.939,-0.388l0,-12.992l-1.785,0l-0.496,1.986l-0.024,0.079l-0.03,0.077l-0.036,0.075l-0.042,0.071l-0.048,0.068l-0.053,0.063l-0.059,0.059l-0.063,0.053l-0.067,0.049l-0.071,0.042l-0.075,0.037l-0.077,0.03l-0.079,0.023l-0.081,0.017l-0.083,0.011l-0.082,0.003l-1.783,0l-0.087,-0.004l-0.087,-0.011l-0.085,-0.019l-0.083,-0.026l-0.081,-0.034l-0.077,-0.04l-0.074,-0.047l-0.069,-0.053l-0.064,-0.059l-0.059,-0.064l-0.053,-0.069l-0.047,-0.074l-0.041,-0.077l-0.033,-0.081l-0.026,-0.083l-0.019,-0.085l-0.011,-0.087l-0.004,-0.087l0,-4.937l0.004,-0.087l0.011,-0.087l0.019,-0.085l0.026,-0.083l0.033,-0.081l0.041,-0.077l0.047,-0.074l0.053,-0.069l0.059,-0.064l0.064,-0.059l0.069,-0.053l0.074,-0.047l0.077,-0.04l0.081,-0.034l0.083,-0.026l0.085,-0.019l0.087,-0.011l0.087,-0.004l14.948,0l0.087,0.004Zm-15.035,0.996l0,4.937l1.783,0l0.685,-2.743l3.566,0l0,14.812l-2.743,0.548l0,1.646l8.366,0l0,-1.646l-2.743,-0.548l0,-14.812l3.566,0l0.685,2.743l1.783,0l0,-4.937l-14.948,0Z" style="fill:#404040;"/></svg>