<?xml version="1.0" encoding="UTF-8" standalone="no"?>
<!DOCTYPE svg PUBLIC "-//W3C//DTD SVG 1.1//EN" "http://www.w3.org/Graphics/SVG/1.1/DTD/svg11.dtd">
<svg width="100%" height="100%" viewBox="0 0 25 26" version="1.1" xmlns="http://www.w3.org/2000/svg" xmlns:xlink="http://www.w3.org/1999/xlink" xml:space="preserve" style="fill-rule:evenodd;clip-rule:evenodd;stroke-linecap:round;stroke-linejoin:round;stroke-miterlimit:1.5;">
    <g transform="matrix(1,0,0,1,-485,-77)">
        <g transform="matrix(0.28125,0,0,0.222222,-270.078,0)">
            <g id="backward" transform="matrix(0.444444,0,0,0.5625,2544.28,243)">
                <g transform="matrix(8,0,0,8,-3564,-432)">
                    <path d="M502.438,85.532C504.809,85.502 507.18,85.522 509.544,85.691C509.583,85.699 509.594,85.699 509.63,85.716C509.712,85.753 509.775,85.826 509.8,85.912C509.811,85.95 509.81,85.961 509.813,86L509.813,102C509.81,102.039 509.811,102.05 509.8,102.088C509.77,102.189 509.689,102.27 509.588,102.3C509.55,102.311 509.539,102.31 509.5,102.313L493.5,102.313C493.461,102.31 493.45,102.311 493.412,102.3C493.311,102.27 493.23,102.189 493.2,102.088C493.189,102.05 493.19,102.039 493.188,102L493.188,94.938L493.813,94.938L493.813,101.688L509.188,101.688L509.188,86.313L502.438,86.313L502.438,85.532Z" style="fill:rgb(88,212,50);"/>
                </g>
                <g transform="matrix(4,0,0,4,-960,-2368)">
                    <rect x="320" y="640" width="32" height="32" style="fill:none;stroke:rgb(64,64,64);stroke-width:1.25px;"/>
                </g>
            </g>
        </g>
    </g>
</svg>
