<?xml version="1.0" encoding="UTF-8" standalone="no"?>
<!DOCTYPE svg PUBLIC "-//W3C//DTD SVG 1.1//EN" "http://www.w3.org/Graphics/SVG/1.1/DTD/svg11.dtd">
<svg width="100%" height="100%" viewBox="0 0 25 26" version="1.1" xmlns="http://www.w3.org/2000/svg" xmlns:xlink="http://www.w3.org/1999/xlink" xml:space="preserve" style="fill-rule:evenodd;clip-rule:evenodd;stroke-linecap:round;stroke-linejoin:round;stroke-miterlimit:1.5;">
    <g transform="matrix(1,0,0,1,-725,-197)">
        <g transform="matrix(0.28125,0,0,0.222222,-270.078,0)">
            <g id="combine" transform="matrix(0.888889,0,0,1.125,2345.17,779.625)">
                <g transform="matrix(4,0,0,4,-1558,-693)">
                    <path d="M732.601,214.264C731.832,214.181 731.076,213.991 730.359,213.698C729.399,213.305 728.516,212.731 727.766,212.016C727.042,211.325 726.443,210.504 726.008,209.603C725.637,208.833 725.387,208.007 725.268,207.162C725.141,206.255 725.164,205.327 725.336,204.428C725.477,203.692 725.719,202.977 726.052,202.307C726.886,200.629 728.291,199.258 729.988,198.465C730.7,198.132 731.459,197.902 732.235,197.783C732.619,197.725 733.005,197.696 733.393,197.688C733.5,197.687 733.5,197.687 733.607,197.688C733.995,197.696 734.381,197.725 734.765,197.783C735.541,197.902 736.3,198.132 737.012,198.465C738.709,199.258 740.114,200.629 740.948,202.307C741.281,202.977 741.523,203.692 741.664,204.428C741.706,204.651 741.74,204.875 741.764,205.101C741.696,205.082 741.626,205.07 741.555,205.064C741.413,205.06 741.271,205.056 741.13,205.052C741.116,204.946 741.101,204.84 741.084,204.734C740.96,203.989 740.725,203.262 740.388,202.585C739.644,201.089 738.411,199.856 736.915,199.112C736.238,198.775 735.511,198.54 734.766,198.416C734.445,198.363 734.122,198.333 733.797,198.318C733.665,198.314 733.533,198.312 733.401,198.313C733.042,198.32 732.684,198.347 732.33,198.401C731.612,198.511 730.911,198.724 730.253,199.031C728.768,199.725 727.523,200.897 726.741,202.337C726.381,202.999 726.12,203.713 725.969,204.451C725.799,205.281 725.767,206.139 725.874,206.979C725.974,207.763 726.196,208.531 726.531,209.247C726.923,210.086 727.468,210.852 728.131,211.5C728.816,212.169 729.627,212.71 730.509,213.083C731.161,213.359 731.851,213.542 732.553,213.629C732.556,213.771 732.56,213.913 732.564,214.055C732.57,214.126 732.582,214.196 732.601,214.264Z" style="fill:rgb(64,64,64);"/>
                </g>
                <g transform="matrix(4,0,0,4,-1558,-693)">
                    <path d="M742.313,205.534C744.727,205.501 747.138,205.519 749.544,205.691C749.583,205.699 749.594,205.699 749.63,205.716C749.712,205.753 749.775,205.826 749.8,205.912C749.811,205.95 749.81,205.961 749.813,206L749.813,222C749.81,222.039 749.811,222.05 749.8,222.088C749.77,222.189 749.689,222.27 749.588,222.3C749.55,222.311 749.539,222.31 749.5,222.312L733.5,222.312C733.461,222.31 733.45,222.311 733.412,222.3C733.311,222.27 733.23,222.189 733.2,222.088C733.189,222.05 733.19,222.039 733.188,222L733.188,214.884C733.255,214.907 733.325,214.922 733.397,214.932C733.452,214.936 733.451,214.936 733.506,214.937C733.608,214.937 733.71,214.935 733.813,214.931L733.813,221.688L749.188,221.688L749.188,206.312L742.432,206.312C742.433,206.285 742.434,206.258 742.435,206.23C742.436,206.137 742.438,206.044 742.436,205.951C742.429,205.859 742.414,205.771 742.383,205.684C742.364,205.632 742.341,205.581 742.313,205.534Z" style="fill:rgb(64,64,64);"/>
                </g>
                <g transform="matrix(1,0,0,1,96,-509)">
                    <path d="M1312,640C1312,657.662 1297.66,672 1280,672L1280,640L1312,640Z" style="fill:none;stroke:rgb(64,64,64);stroke-width:2.5px;stroke-dasharray:7.5,7.5,2.5,0;"/>
                </g>
            </g>
        </g>
    </g>
</svg>
