<?xml version="1.0" encoding="UTF-8" standalone="no"?>
<!DOCTYPE svg PUBLIC "-//W3C//DTD SVG 1.1//EN" "http://www.w3.org/Graphics/SVG/1.1/DTD/svg11.dtd">
<svg width="100%" height="100%" viewBox="0 0 25 26" version="1.1" xmlns="http://www.w3.org/2000/svg" xmlns:xlink="http://www.w3.org/1999/xlink" xml:space="preserve" style="fill-rule:evenodd;clip-rule:evenodd;stroke-linecap:round;stroke-linejoin:round;stroke-miterlimit:1.5;">
    <g transform="matrix(1,0,0,1,-725,-17)">
        <g transform="matrix(0.28125,0,0,0.222222,-270.078,0)">
            <g id="difference" transform="matrix(0.888889,0,0,1.125,2226.06,34.3125)">
                <g transform="matrix(4,0,0,4,-1424,-30.5)">
                    <path d="M742.432,25.681C744.804,25.649 747.18,25.522 749.544,25.691C749.583,25.699 749.594,25.699 749.63,25.716C749.712,25.753 749.775,25.826 749.8,25.912C749.811,25.95 749.81,25.961 749.813,26L749.813,42C749.81,42.039 749.811,42.05 749.8,42.088C749.77,42.189 749.689,42.27 749.588,42.3C749.55,42.311 749.539,42.31 749.5,42.313L733.5,42.313C733.461,42.31 733.45,42.311 733.412,42.3C733.311,42.27 733.23,42.189 733.2,42.088C733.189,42.05 733.19,42.039 733.188,42L733.188,34.932C733.292,34.936 733.396,34.938 733.5,34.938C733.604,34.938 733.708,34.936 733.813,34.932L733.813,41.688L749.188,41.688L749.188,26.313L742.432,26.313C742.439,26.102 742.439,25.891 742.432,25.681Z" style="fill:rgb(64,64,64);"/>
                </g>
                <g transform="matrix(0.666667,0,0,0.666667,646,-363.833)">
                    <circle cx="1296" cy="656" r="48" style="fill:none;stroke:rgb(64,64,64);stroke-width:3.75px;stroke-dasharray:11.25,11.25,3.75,0;"/>
                </g>
            </g>
        </g>
    </g>
</svg>
