<?xml version="1.0" encoding="UTF-8" standalone="no"?>
<!DOCTYPE svg PUBLIC "-//W3C//DTD SVG 1.1//EN" "http://www.w3.org/Graphics/SVG/1.1/DTD/svg11.dtd">
<svg width="100%" height="100%" viewBox="0 0 25 26" version="1.1" xmlns="http://www.w3.org/2000/svg" xmlns:xlink="http://www.w3.org/1999/xlink" xml:space="preserve" style="fill-rule:evenodd;clip-rule:evenodd;stroke-linecap:round;stroke-linejoin:round;stroke-miterlimit:1.5;">
    <g transform="matrix(1,0,0,1,-725,-137)">
        <g transform="matrix(0.28125,0,0,0.222222,-270.078,0)">
            <g id="divide" transform="matrix(0.888889,0,0,1.125,2378.06,477)">
                <g transform="matrix(4,0,0,4,-1595,-424)">
                    <path d="M732.6,154.262C732.477,154.248 732.354,154.232 732.231,154.213C731.454,154.093 730.695,153.862 729.982,153.528C729.015,153.075 728.138,152.435 727.411,151.653C726.705,150.895 726.143,150.005 725.763,149.042C725.421,148.175 725.229,147.251 725.194,146.32C725.16,145.446 725.264,144.567 725.503,143.725C725.752,142.851 726.146,142.018 726.665,141.271C727.56,139.98 728.819,138.954 730.265,138.341C730.896,138.075 731.559,137.887 732.235,137.783C732.548,137.735 732.863,137.708 733.179,137.694C733.322,137.689 733.464,137.687 733.607,137.688C733.89,137.694 734.171,137.709 734.452,137.742C735.066,137.812 735.673,137.951 736.256,138.156C737.455,138.579 738.551,139.28 739.439,140.189C740.258,141.027 740.897,142.037 741.301,143.137C741.515,143.719 741.663,144.324 741.743,144.939C741.75,144.993 741.756,145.047 741.762,145.1C741.694,145.081 741.624,145.07 741.553,145.064C741.41,145.06 741.268,145.056 741.125,145.053C741.049,144.442 740.902,143.842 740.682,143.265C740.306,142.281 739.727,141.379 738.992,140.626C738.192,139.808 737.211,139.171 736.137,138.778C735.571,138.57 734.98,138.431 734.381,138.363C734.121,138.333 733.861,138.318 733.599,138.313C733.5,138.313 733.5,138.313 733.401,138.313C733.042,138.32 732.684,138.347 732.33,138.401C731.612,138.511 730.911,138.724 730.253,139.031C729.358,139.449 728.546,140.041 727.873,140.764C727.219,141.467 726.698,142.29 726.346,143.183C726.029,143.985 725.851,144.841 725.818,145.703C725.786,146.542 725.89,147.386 726.13,148.191C726.422,149.172 726.913,150.091 727.564,150.881C728.351,151.834 729.366,152.594 730.504,153.076C731.159,153.354 731.849,153.536 732.553,153.625C732.556,153.768 732.56,153.912 732.564,154.055C732.57,154.125 732.582,154.194 732.6,154.262Z" style="fill:rgb(64,64,64);"/>
                </g>
                <g transform="matrix(4,0,0,4,-1595,-424)">
                    <path d="M742.382,145.681C744.77,145.651 747.163,145.52 749.544,145.691C749.583,145.699 749.594,145.699 749.63,145.716C749.712,145.753 749.775,145.826 749.8,145.912C749.811,145.95 749.81,145.961 749.813,146L749.813,162C749.81,162.039 749.811,162.05 749.8,162.088C749.77,162.189 749.689,162.27 749.588,162.3C749.55,162.311 749.539,162.31 749.5,162.313L733.5,162.313C733.461,162.31 733.45,162.311 733.412,162.3C733.311,162.27 733.23,162.189 733.2,162.088C733.189,162.05 733.19,162.039 733.188,162L733.188,154.884C733.255,154.907 733.325,154.922 733.397,154.932C733.451,154.936 733.451,154.936 733.506,154.937C733.608,154.937 733.71,154.935 733.813,154.931L733.813,161.688L749.188,161.688L749.188,146.313L742.431,146.313C742.434,146.248 742.435,146.183 742.436,146.118C742.438,146.01 742.439,145.905 742.416,145.799C742.407,145.759 742.395,145.72 742.382,145.681Z" style="fill:rgb(64,64,64);"/>
                </g>
                <g transform="matrix(0.666667,0,0,0.666667,475,-277.333)">
                    <path d="M1344,656C1343.92,682.573 1322.44,704 1296,704L1296,656L1344,656Z" style="fill:none;stroke:rgb(64,64,64);stroke-width:3.75px;"/>
                </g>
            </g>
        </g>
    </g>
</svg>
