<?xml version="1.0" encoding="UTF-8" standalone="no"?>
<!DOCTYPE svg PUBLIC "-//W3C//DTD SVG 1.1//EN" "http://www.w3.org/Graphics/SVG/1.1/DTD/svg11.dtd">
<svg width="100%" height="100%" viewBox="0 0 25 26" version="1.1" xmlns="http://www.w3.org/2000/svg" xmlns:xlink="http://www.w3.org/1999/xlink" xml:space="preserve" style="fill-rule:evenodd;clip-rule:evenodd;stroke-linecap:round;stroke-linejoin:round;stroke-miterlimit:1.5;">
    <g transform="matrix(1,0,0,1,-365,-17)">
        <g transform="matrix(0.28125,0,0,0.222222,-270.078,0)">
            <g id="eyedropper" transform="matrix(0.333333,0,0,0.421875,2238.5,-135)">
                <g transform="matrix(1,0,0,1,-5.34683e-13,-448)">
                    <path d="M64,1216L96,1152L224,1024L256,1056L128,1184L64,1216Z" style="fill:none;stroke:rgb(64,64,64);stroke-width:6.67px;"/>
                </g>
                <g transform="matrix(1,0,0,1,-6.82121e-13,-448)">
                    <path d="M192,992L288,1088L298,1078L202,982L192,992Z" style="fill:none;stroke:rgb(64,64,64);stroke-width:6.67px;"/>
                </g>
                <g transform="matrix(0.711933,0,0,0.711933,1.05401,-181.883)">
                    <path d="M385.819,1109.29C420.916,1106.55 448,1077.27 448,1042.07C448,1004.86 417.789,974.647 380.578,974.647C345.374,974.647 316.096,1001.73 313.36,1036.83L385.819,1109.29Z" style="fill:none;stroke:rgb(64,64,64);stroke-width:9.36px;"/>
                </g>
            </g>
        </g>
    </g>
</svg>
