<?xml version="1.0" encoding="UTF-8" standalone="no"?><!DOCTYPE svg PUBLIC "-//W3C//DTD SVG 1.1//EN" "http://www.w3.org/Graphics/SVG/1.1/DTD/svg11.dtd"><svg width="100%" height="100%" viewBox="0 0 22 21" version="1.1" xmlns="http://www.w3.org/2000/svg" xmlns:xlink="http://www.w3.org/1999/xlink" xml:space="preserve" style="fill-rule:evenodd;clip-rule:evenodd;stroke-linecap:round;stroke-linejoin:round;stroke-miterlimit:1.5;"><g id="forward"><path d="M6.1,14.1l-4.9,0c-0.067,-0.003 -0.129,-0.012 -0.191,-0.038c-0.138,-0.057 -0.244,-0.175 -0.287,-0.317c-0.015,-0.048 -0.02,-0.095 -0.022,-0.145l0,-12.8c0.002,-0.05 0.007,-0.097 0.022,-0.145c0.043,-0.142 0.149,-0.26 0.287,-0.317c0.062,-0.026 0.124,-0.035 0.191,-0.038c4.283,0 8.571,-0.208 12.849,0.002c0.049,0.008 0.096,0.017 0.142,0.036c0.138,0.057 0.244,0.175 0.287,0.317c0.015,0.048 0.02,0.095 0.022,0.145l0,4.852c-0.333,0.001 -0.667,0.004 -1,0.007l0,-4.359l-11.8,0l0,11.8l4.4,0l0,1Z" style="fill:#404040;"/><rect x="7.6" y="7.2" width="12.8" height="12.8" style="fill:none;stroke:#58d432;stroke-width:1px;"/></g></svg>