<?xml version="1.0" encoding="UTF-8" standalone="no"?>
<!DOCTYPE svg PUBLIC "-//W3C//DTD SVG 1.1//EN" "http://www.w3.org/Graphics/SVG/1.1/DTD/svg11.dtd">
<svg width="100%" height="100%" viewBox="0 0 25 26" version="1.1" xmlns="http://www.w3.org/2000/svg" xmlns:xlink="http://www.w3.org/1999/xlink" xml:space="preserve" style="fill-rule:evenodd;clip-rule:evenodd;stroke-linecap:round;stroke-linejoin:round;stroke-miterlimit:1.5;">
    <g transform="matrix(1,0,0,1,-485,-17)">
        <g transform="matrix(0.28125,0,0,0.222222,-270.078,0)">
            <g id="forward" transform="matrix(0.444444,0,0,0.5625,2544.28,-27)">
                <g transform="matrix(8,0,0,8,-3564,48)">
                    <path d="M492.563,34.313L485.5,34.313C485.461,34.31 485.45,34.311 485.412,34.3C485.311,34.27 485.23,34.189 485.2,34.088C485.189,34.05 485.19,34.039 485.188,34L485.188,18C485.19,17.961 485.189,17.95 485.2,17.912C485.23,17.811 485.311,17.73 485.412,17.7C485.45,17.689 485.461,17.69 485.5,17.687C490.848,17.687 496.21,17.309 501.544,17.691C501.583,17.699 501.594,17.699 501.63,17.716C501.712,17.753 501.775,17.826 501.8,17.912C501.811,17.95 501.81,17.961 501.813,18L501.813,24.983L501.538,24.985L501.188,24.989L501.188,18.312L485.813,18.312L485.813,33.688L492.563,33.688L492.563,34.313Z" style="fill:rgb(64,64,64);"/>
                </g>
                <g transform="matrix(4,0,0,4,-896,-2304)">
                    <rect x="320" y="640" width="32" height="32" style="fill:none;stroke:rgb(88,212,50);stroke-width:1.25px;"/>
                </g>
            </g>
        </g>
    </g>
</svg>
