<?xml version="1.0" encoding="UTF-8" standalone="no"?>
<!DOCTYPE svg PUBLIC "-//W3C//DTD SVG 1.1//EN" "http://www.w3.org/Graphics/SVG/1.1/DTD/svg11.dtd">
<svg width="100%" height="100%" viewBox="0 0 25 26" version="1.1" xmlns="http://www.w3.org/2000/svg" xmlns:xlink="http://www.w3.org/1999/xlink" xml:space="preserve" style="fill-rule:evenodd;clip-rule:evenodd;stroke-linecap:round;stroke-linejoin:round;stroke-miterlimit:1.5;">
    <g transform="matrix(1,0,0,1,-545,-137)">
        <g transform="matrix(0.28125,0,0,0.222222,-270.078,0)">
            <g id="grid" transform="matrix(0.888889,0,0,1.125,2416.28,333)">
                <g transform="matrix(1,0,0,1,-6.82121e-13,-448)">
                    <path d="M576,704L576,800" style="fill:none;stroke:rgb(64,64,64);stroke-width:2.5px;"/>
                </g>
                <g transform="matrix(6.12323e-17,-1,1,6.12323e-17,-160,896)">
                    <path d="M576,704L576,800" style="fill:none;stroke:rgb(64,64,64);stroke-width:2.5px;"/>
                </g>
                <g transform="matrix(1,0,0,1,-6.82121e-13,-448)">
                    <path d="M608,704L608,800" style="fill:none;stroke:rgb(64,64,64);stroke-width:2.5px;"/>
                </g>
                <g transform="matrix(6.12323e-17,-1,1,6.12323e-17,-160,896)">
                    <path d="M608,704L608,800" style="fill:none;stroke:rgb(64,64,64);stroke-width:2.5px;"/>
                </g>
            </g>
        </g>
    </g>
</svg>
