<?xml version="1.0" encoding="UTF-8" standalone="no"?>
<!DOCTYPE svg PUBLIC "-//W3C//DTD SVG 1.1//EN" "http://www.w3.org/Graphics/SVG/1.1/DTD/svg11.dtd">
<svg width="100%" height="100%" viewBox="0 0 27 26" version="1.1" xmlns="http://www.w3.org/2000/svg" xmlns:xlink="http://www.w3.org/1999/xlink" xml:space="preserve" xmlns:serif="http://www.serif.com/" style="fill-rule:evenodd;clip-rule:evenodd;stroke-linecap:round;stroke-linejoin:round;stroke-miterlimit:1.5;">
    <g transform="matrix(1,0,0,1,-1024,-137)">
        <g transform="matrix(0.40625,0,0,0.222222,-517.891,0)">
            <g id="icon-end-square" transform="matrix(0.4,0,0,0.4,2415.35,297)">
                <g transform="matrix(2.46154,0,0,4.5,1274.81,0)">
                    <path d="M887.5,180L947.5,180C947.5,180 947.5,240 947.5,240C947.5,240 887.5,240 887.5,240" style="fill:none;stroke:rgb(64,64,64);stroke-width:3.13px;"/>
                </g>
                <g transform="matrix(1.25638,0,0,4.5,2344.38,-2.27374e-13)">
                    <path d="M917.5,210L887.5,210" style="fill:none;stroke:rgb(88,212,50);stroke-width:3.94px;"/>
                </g>
                <g transform="matrix(1.64103,0,0,3,2052.24,360)">
                    <circle cx="902.5" cy="195" r="15" style="fill:none;stroke:rgb(64,64,64);stroke-width:4.69px;"/>
                </g>
            </g>
        </g>
    </g>
</svg>
