<?xml version="1.0" encoding="UTF-8" standalone="no"?><!DOCTYPE svg PUBLIC "-//W3C//DTD SVG 1.1//EN" "http://www.w3.org/Graphics/SVG/1.1/DTD/svg11.dtd"><svg width="100%" height="100%" viewBox="0 0 17 16" version="1.1" xmlns="http://www.w3.org/2000/svg" xmlns:xlink="http://www.w3.org/1999/xlink" xml:space="preserve" xmlns:serif="http://www.serif.com/" style="fill-rule:evenodd;clip-rule:evenodd;stroke-linecap:round;stroke-linejoin:round;stroke-miterlimit:1.5;"><g id="icon-end-flat"><path d="M9.375,7.8l-8.475,0" style="fill:none;stroke:#58d432;stroke-width:0.75px;"/><path d="M12.525,11.305c0.124,0.013 0.25,0.02 0.375,0.02c0.125,0 0.251,-0.007 0.375,-0.02l0,3.695c-0.003,0.046 -0.008,0.089 -0.024,0.133c-0.038,0.1 -0.118,0.18 -0.218,0.218c-0.044,0.016 -0.087,0.021 -0.133,0.024l-12,0c-0.04,-0.002 -0.051,-0.001 -0.09,-0.011c-0.073,-0.018 -0.14,-0.059 -0.191,-0.115c-0.124,-0.14 -0.124,-0.358 0,-0.498c0.03,-0.034 0.067,-0.062 0.107,-0.083c0.055,-0.029 0.112,-0.039 0.174,-0.043l11.625,0l0,-3.32Zm0,-7.01l0,-3.32l-11.625,0c-0.062,-0.004 -0.119,-0.014 -0.174,-0.043c-0.04,-0.021 -0.077,-0.049 -0.107,-0.083c-0.124,-0.14 -0.124,-0.358 0,-0.498c0.051,-0.056 0.118,-0.097 0.191,-0.115c0.039,-0.01 0.05,-0.009 0.09,-0.011c4.015,0 8.037,-0.24 12.045,0.003c0.046,0.008 0.088,0.018 0.129,0.04c0.095,0.049 0.165,0.139 0.19,0.242c0.01,0.039 0.009,0.05 0.011,0.09l0,3.695c-0.095,-0.009 -0.189,-0.015 -0.285,-0.019c-0.09,-0.001 -0.09,-0.001 -0.18,0c-0.096,0.004 -0.19,0.01 -0.285,0.019Z" style="fill:#dfdfdf;"/><circle cx="12.9" cy="7.8" r="2.4" style="fill:none;stroke:#dfdfdf;stroke-width:0.75px;"/></g></svg>