<?xml version="1.0" encoding="UTF-8" standalone="no"?><!DOCTYPE svg PUBLIC "-//W3C//DTD SVG 1.1//EN" "http://www.w3.org/Graphics/SVG/1.1/DTD/svg11.dtd"><svg width="100%" height="100%" viewBox="0 0 17 12" version="1.1" xmlns="http://www.w3.org/2000/svg" xmlns:xlink="http://www.w3.org/1999/xlink" xml:space="preserve" xmlns:serif="http://www.serif.com/" style="fill-rule:evenodd;clip-rule:evenodd;stroke-linecap:round;stroke-linejoin:round;stroke-miterlimit:1.5;"><g id="icon-restore"><path d="M1.745,1.536l0,-0.579c0.003,-0.043 0.007,-0.083 0.021,-0.123c0.038,-0.107 0.123,-0.193 0.23,-0.231c0.041,-0.014 0.081,-0.018 0.124,-0.021c4.445,0 8.897,-0.246 13.334,0.003c0.043,0.007 0.082,0.016 0.121,0.035c0.089,0.042 0.159,0.12 0.191,0.214c0.015,0.04 0.019,0.08 0.021,0.123l0,8.862c-0.002,0.043 -0.006,0.083 -0.021,0.124c-0.037,0.107 -0.123,0.192 -0.23,0.23c-0.041,0.014 -0.081,0.019 -0.124,0.021l-0.582,0l0,-0.75l0.207,0l0,-8.112l-12.542,0l0,0.199c-0.25,0.002 -0.5,0.004 -0.75,0.005Z" style="fill:#dfdfdf;"/><rect x="0.413" y="2.665" width="13.292" height="8.862" style="fill:#fff;fill-opacity:0;stroke:#dfdfdf;stroke-width:0.75px;"/></g></svg>