<?xml version="1.0" encoding="UTF-8" standalone="no"?><!DOCTYPE svg PUBLIC "-//W3C//DTD SVG 1.1//EN" "http://www.w3.org/Graphics/SVG/1.1/DTD/svg11.dtd"><svg width="100%" height="100%" viewBox="0 0 22 21" version="1.1" xmlns="http://www.w3.org/2000/svg" xmlns:xlink="http://www.w3.org/1999/xlink" xml:space="preserve" xmlns:serif="http://www.serif.com/" style="fill-rule:evenodd;clip-rule:evenodd;stroke-linecap:round;stroke-linejoin:round;stroke-miterlimit:1.5;"><g id="icon-end-flat"><path d="M12.5,10.4l-11.3,0" style="fill:none;stroke:#58d432;stroke-width:1px;"/><path d="M16.7,15.073c0.166,0.018 0.333,0.027 0.5,0.027c0.167,0 0.334,-0.009 0.5,-0.027l0,4.927c-0.004,0.062 -0.01,0.119 -0.032,0.177c-0.051,0.133 -0.158,0.24 -0.291,0.291c-0.058,0.022 -0.115,0.028 -0.177,0.032l-16,0c-0.053,-0.003 -0.067,-0.002 -0.12,-0.015c-0.098,-0.024 -0.187,-0.078 -0.254,-0.153c-0.166,-0.187 -0.166,-0.477 0,-0.664c0.04,-0.045 0.088,-0.083 0.142,-0.111c0.074,-0.039 0.15,-0.052 0.232,-0.057l15.5,0l0,-4.427Zm0,-9.346l0,-4.427l-15.5,0c-0.082,-0.005 -0.158,-0.018 -0.232,-0.057c-0.054,-0.028 -0.102,-0.066 -0.142,-0.111c-0.166,-0.187 -0.166,-0.477 0,-0.664c0.067,-0.075 0.156,-0.129 0.254,-0.153c0.053,-0.013 0.067,-0.012 0.12,-0.015c5.353,0 10.717,-0.32 16.06,0.004c0.061,0.011 0.117,0.024 0.172,0.053c0.126,0.066 0.219,0.185 0.253,0.323c0.013,0.053 0.012,0.067 0.015,0.12l0,4.927c-0.126,-0.013 -0.252,-0.021 -0.379,-0.026c-0.121,-0.001 -0.121,-0.001 -0.242,0c-0.127,0.005 -0.253,0.013 -0.379,0.026Z" style="fill:#dfdfdf;"/><circle cx="17.2" cy="10.4" r="3.2" style="fill:none;stroke:#dfdfdf;stroke-width:1px;"/></g></svg>