<?xml version="1.0" encoding="UTF-8" standalone="no"?><!DOCTYPE svg PUBLIC "-//W3C//DTD SVG 1.1//EN" "http://www.w3.org/Graphics/SVG/1.1/DTD/svg11.dtd"><svg width="100%" height="100%" viewBox="0 0 13 12" version="1.1" xmlns="http://www.w3.org/2000/svg" xmlns:xlink="http://www.w3.org/1999/xlink" xml:space="preserve" xmlns:serif="http://www.serif.com/" style="fill-rule:evenodd;clip-rule:evenodd;stroke-linejoin:round;stroke-miterlimit:1.5;"><g id="icon-heal"><path d="M10.45,0.6c-0.331,-0.331 -0.869,-0.331 -1.2,0l-8.4,8.4c-0.331,0.331 -0.331,0.869 0,1.2l1.2,1.2c0.331,0.331 0.869,0.331 1.2,0l8.4,-8.4c0.331,-0.331 0.331,-0.869 0,-1.2l-1.2,-1.2Z" style="fill:url(#_Linear1);stroke:#404040;stroke-width:0.5px;"/><path d="M11.65,10.2c0.331,-0.331 0.331,-0.869 0,-1.2l-8.4,-8.4c-0.331,-0.331 -0.869,-0.331 -1.2,0l-1.2,1.2c-0.331,0.331 -0.331,0.869 0,1.2l8.4,8.4c0.331,0.331 0.869,0.331 1.2,0l1.2,-1.2Z" style="fill:url(#_Linear2);stroke:#404040;stroke-width:0.5px;"/><g><g><path d="M4.659,4.055c0.049,-0.048 0.128,-0.048 0.177,0c0.049,0.049 0.049,0.128 0,0.177c-0.049,0.049 -0.128,0.049 -0.177,0c-0.049,-0.049 -0.049,-0.128 0,-0.177Z" style="fill:#404040;"/><path d="M3.952,4.055c0.049,-0.048 0.128,-0.048 0.177,0c0.048,0.049 0.048,0.128 0,0.177c-0.049,0.049 -0.128,0.049 -0.177,0c-0.049,-0.049 -0.049,-0.128 0,-0.177Z" style="fill:#404040;"/><path d="M3.245,4.055c0.049,-0.048 0.128,-0.048 0.177,0c0.048,0.049 0.048,0.128 0,0.177c-0.049,0.049 -0.128,0.049 -0.177,0c-0.049,-0.049 -0.049,-0.128 0,-0.177Z" style="fill:#404040;"/><path d="M3.952,3.348c0.049,-0.048 0.128,-0.048 0.177,0c0.048,0.049 0.048,0.128 0,0.177c-0.049,0.049 -0.128,0.049 -0.177,0c-0.049,-0.049 -0.049,-0.128 0,-0.177Z" style="fill:#404040;"/><path d="M4.659,3.348c0.049,-0.048 0.128,-0.048 0.177,0c0.049,0.049 0.049,0.128 0,0.177c-0.049,0.049 -0.128,0.049 -0.177,0c-0.049,-0.049 -0.049,-0.128 0,-0.177Z" style="fill:#404040;"/><path d="M3.971,4.744c0.048,-0.049 0.128,-0.049 0.176,0c0.049,0.049 0.049,0.128 0,0.177c-0.048,0.048 -0.128,0.048 -0.176,0c-0.049,-0.049 -0.049,-0.128 0,-0.177Z" style="fill:#404040;"/></g><g><path d="M3.262,3.366c-0.048,0.049 -0.048,0.128 0,0.177c0.049,0.049 0.128,0.049 0.177,0c0.049,-0.049 0.049,-0.128 0,-0.177c-0.049,-0.049 -0.128,-0.049 -0.177,0Z" style="fill:#404040;"/><path d="M3.262,2.659c-0.048,0.049 -0.048,0.128 0,0.177c0.049,0.048 0.128,0.048 0.177,0c0.049,-0.049 0.049,-0.128 0,-0.177c-0.049,-0.049 -0.128,-0.049 -0.177,0Z" style="fill:#404040;"/><path d="M3.262,1.952c-0.048,0.049 -0.048,0.128 0,0.177c0.049,0.048 0.128,0.048 0.177,0c0.049,-0.049 0.049,-0.128 0,-0.177c-0.049,-0.049 -0.128,-0.049 -0.177,0Z" style="fill:#404040;"/><path d="M2.555,2.659c-0.048,0.049 -0.048,0.128 0,0.177c0.049,0.048 0.128,0.048 0.177,0c0.049,-0.049 0.049,-0.128 0,-0.177c-0.049,-0.049 -0.128,-0.049 -0.177,0Z" style="fill:#404040;"/><path d="M2.555,3.366c-0.048,0.049 -0.048,0.128 0,0.177c0.049,0.049 0.128,0.049 0.177,0c0.049,-0.049 0.049,-0.128 0,-0.177c-0.049,-0.049 -0.128,-0.049 -0.177,0Z" style="fill:#404040;"/><path d="M3.951,2.678c-0.049,0.048 -0.049,0.128 0,0.176c0.049,0.049 0.128,0.049 0.177,0c0.048,-0.048 0.048,-0.128 0,-0.176c-0.049,-0.049 -0.128,-0.049 -0.177,0Z" style="fill:#404040;"/></g><g><path d="M2.573,1.969c0.049,-0.048 0.128,-0.048 0.177,0c0.049,0.049 0.049,0.128 0,0.177c-0.049,0.049 -0.128,0.049 -0.177,0c-0.049,-0.049 -0.049,-0.128 0,-0.177Z" style="fill:#404040;"/><path d="M1.866,1.969c0.049,-0.048 0.128,-0.048 0.177,0c0.048,0.049 0.048,0.128 0,0.177c-0.049,0.049 -0.128,0.049 -0.177,0c-0.049,-0.049 -0.049,-0.128 0,-0.177Z" style="fill:#404040;"/><path d="M2.573,1.262c0.049,-0.048 0.128,-0.048 0.177,0c0.049,0.049 0.049,0.128 0,0.177c-0.049,0.049 -0.128,0.049 -0.177,0c-0.049,-0.049 -0.049,-0.128 0,-0.177Z" style="fill:#404040;"/><path d="M1.885,2.658c0.048,-0.049 0.128,-0.049 0.176,0c0.049,0.049 0.049,0.128 0,0.177c-0.048,0.048 -0.128,0.048 -0.176,0c-0.049,-0.049 -0.049,-0.128 0,-0.177Z" style="fill:#404040;"/></g></g><g><g><path d="M8.195,4.409c0.048,0.049 0.048,0.128 0,0.177c-0.049,0.049 -0.128,0.049 -0.177,0c-0.049,-0.049 -0.049,-0.128 0,-0.177c0.049,-0.049 0.128,-0.049 0.177,0Z" style="fill:#404040;"/><path d="M8.195,3.702c0.048,0.049 0.048,0.128 0,0.177c-0.049,0.048 -0.128,0.048 -0.177,0c-0.049,-0.049 -0.049,-0.128 0,-0.177c0.049,-0.049 0.128,-0.049 0.177,0Z" style="fill:#404040;"/><path d="M8.195,2.995c0.048,0.049 0.048,0.128 0,0.177c-0.049,0.048 -0.128,0.048 -0.177,0c-0.049,-0.049 -0.049,-0.128 0,-0.177c0.049,-0.049 0.128,-0.049 0.177,0Z" style="fill:#404040;"/><path d="M8.902,3.702c0.048,0.049 0.048,0.128 0,0.177c-0.049,0.048 -0.128,0.048 -0.177,0c-0.049,-0.049 -0.049,-0.128 0,-0.177c0.049,-0.049 0.128,-0.049 0.177,0Z" style="fill:#404040;"/><path d="M8.902,4.409c0.048,0.049 0.048,0.128 0,0.177c-0.049,0.049 -0.128,0.049 -0.177,0c-0.049,-0.049 -0.049,-0.128 0,-0.177c0.049,-0.049 0.128,-0.049 0.177,0Z" style="fill:#404040;"/><path d="M7.506,3.721c0.049,0.048 0.049,0.128 0,0.176c-0.049,0.049 -0.128,0.049 -0.177,0c-0.048,-0.048 -0.048,-0.128 0,-0.176c0.049,-0.049 0.128,-0.049 0.177,0Z" style="fill:#404040;"/></g><g><path d="M8.884,3.012c-0.049,-0.048 -0.128,-0.048 -0.177,0c-0.049,0.049 -0.049,0.128 0,0.177c0.049,0.049 0.128,0.049 0.177,0c0.049,-0.049 0.049,-0.128 0,-0.177Z" style="fill:#404040;"/><path d="M9.591,3.012c-0.049,-0.048 -0.128,-0.048 -0.177,0c-0.048,0.049 -0.048,0.128 0,0.177c0.049,0.049 0.128,0.049 0.177,0c0.049,-0.049 0.049,-0.128 0,-0.177Z" style="fill:#404040;"/><path d="M10.298,3.012c-0.049,-0.048 -0.128,-0.048 -0.177,0c-0.048,0.049 -0.048,0.128 0,0.177c0.049,0.049 0.128,0.049 0.177,0c0.049,-0.049 0.049,-0.128 0,-0.177Z" style="fill:#404040;"/><path d="M9.591,2.305c-0.049,-0.048 -0.128,-0.048 -0.177,0c-0.048,0.049 -0.048,0.128 0,0.177c0.049,0.049 0.128,0.049 0.177,0c0.049,-0.049 0.049,-0.128 0,-0.177Z" style="fill:#404040;"/><path d="M8.884,2.305c-0.049,-0.048 -0.128,-0.048 -0.177,0c-0.049,0.049 -0.049,0.128 0,0.177c0.049,0.049 0.128,0.049 0.177,0c0.049,-0.049 0.049,-0.128 0,-0.177Z" style="fill:#404040;"/><path d="M9.572,3.701c-0.048,-0.049 -0.128,-0.049 -0.176,0c-0.049,0.049 -0.049,0.128 0,0.177c0.048,0.048 0.128,0.048 0.176,0c0.049,-0.049 0.049,-0.128 0,-0.177Z" style="fill:#404040;"/></g><g><path d="M10.281,2.323c0.048,0.049 0.048,0.128 0,0.177c-0.049,0.049 -0.128,0.049 -0.177,0c-0.049,-0.049 -0.049,-0.128 0,-0.177c0.049,-0.049 0.128,-0.049 0.177,0Z" style="fill:#404040;"/><path d="M10.281,1.616c0.048,0.049 0.048,0.128 0,0.177c-0.049,0.048 -0.128,0.048 -0.177,0c-0.049,-0.049 -0.049,-0.128 0,-0.177c0.049,-0.049 0.128,-0.049 0.177,0Z" style="fill:#404040;"/><path d="M10.988,2.323c0.048,0.049 0.048,0.128 0,0.177c-0.049,0.049 -0.128,0.049 -0.177,0c-0.049,-0.049 -0.049,-0.128 0,-0.177c0.049,-0.049 0.128,-0.049 0.177,0Z" style="fill:#404040;"/><path d="M9.592,1.635c0.049,0.048 0.049,0.128 0,0.176c-0.049,0.049 -0.128,0.049 -0.177,0c-0.048,-0.048 -0.048,-0.128 0,-0.176c0.049,-0.049 0.128,-0.049 0.177,0Z" style="fill:#404040;"/></g></g><g><g><path d="M10.457,9.854c0.049,-0.049 0.128,-0.049 0.177,0c0.049,0.049 0.049,0.128 0,0.177c-0.049,0.048 -0.128,0.048 -0.177,0c-0.048,-0.049 -0.048,-0.128 0,-0.177Z" style="fill:#404040;"/><path d="M9.75,9.854c0.049,-0.049 0.128,-0.049 0.177,0c0.049,0.049 0.049,0.128 0,0.177c-0.049,0.048 -0.128,0.048 -0.177,0c-0.049,-0.049 -0.049,-0.128 0,-0.177Z" style="fill:#404040;"/><path d="M9.043,9.854c0.049,-0.049 0.128,-0.049 0.177,0c0.049,0.049 0.049,0.128 0,0.177c-0.049,0.048 -0.128,0.048 -0.177,0c-0.049,-0.049 -0.049,-0.128 0,-0.177Z" style="fill:#404040;"/><path d="M9.75,9.147c0.049,-0.049 0.128,-0.049 0.177,0c0.049,0.048 0.049,0.128 0,0.176c-0.049,0.049 -0.128,0.049 -0.177,0c-0.049,-0.048 -0.049,-0.128 0,-0.176Z" style="fill:#404040;"/><path d="M10.457,9.147c0.049,-0.049 0.128,-0.049 0.177,0c0.049,0.048 0.049,0.128 0,0.176c-0.049,0.049 -0.128,0.049 -0.177,0c-0.048,-0.048 -0.048,-0.128 0,-0.176Z" style="fill:#404040;"/><path d="M9.769,10.542c0.049,-0.049 0.128,-0.049 0.177,0c0.048,0.049 0.048,0.128 0,0.177c-0.049,0.049 -0.128,0.049 -0.177,0c-0.049,-0.049 -0.049,-0.128 0,-0.177Z" style="fill:#404040;"/></g><g><path d="M9.061,9.164c-0.049,0.049 -0.049,0.128 0,0.177c0.049,0.049 0.128,0.049 0.177,0c0.048,-0.049 0.048,-0.128 0,-0.177c-0.049,-0.048 -0.128,-0.048 -0.177,0Z" style="fill:#404040;"/><path d="M9.061,8.457c-0.049,0.049 -0.049,0.128 0,0.177c0.049,0.049 0.128,0.049 0.177,0c0.048,-0.049 0.048,-0.128 0,-0.177c-0.049,-0.049 -0.128,-0.049 -0.177,0Z" style="fill:#404040;"/><path d="M9.061,7.75c-0.049,0.049 -0.049,0.128 0,0.177c0.049,0.049 0.128,0.049 0.177,0c0.048,-0.049 0.048,-0.128 0,-0.177c-0.049,-0.049 -0.128,-0.049 -0.177,0Z" style="fill:#404040;"/><path d="M8.354,8.457c-0.049,0.049 -0.049,0.128 0,0.177c0.048,0.049 0.128,0.049 0.176,0c0.049,-0.049 0.049,-0.128 0,-0.177c-0.048,-0.049 -0.128,-0.049 -0.176,0Z" style="fill:#404040;"/><path d="M8.354,9.164c-0.049,0.049 -0.049,0.128 0,0.177c0.048,0.049 0.128,0.049 0.176,0c0.049,-0.049 0.049,-0.128 0,-0.177c-0.048,-0.048 -0.128,-0.048 -0.176,0Z" style="fill:#404040;"/><path d="M9.749,8.476c-0.049,0.049 -0.049,0.128 0,0.177c0.049,0.048 0.128,0.048 0.177,0c0.049,-0.049 0.049,-0.128 0,-0.177c-0.049,-0.049 -0.128,-0.049 -0.177,0Z" style="fill:#404040;"/></g><g><path d="M8.371,7.768c0.049,-0.049 0.128,-0.049 0.177,0c0.049,0.049 0.049,0.128 0,0.177c-0.049,0.048 -0.128,0.048 -0.177,0c-0.048,-0.049 -0.048,-0.128 0,-0.177Z" style="fill:#404040;"/><path d="M7.664,7.768c0.049,-0.049 0.128,-0.049 0.177,0c0.049,0.049 0.049,0.128 0,0.177c-0.049,0.048 -0.128,0.048 -0.177,0c-0.049,-0.049 -0.049,-0.128 0,-0.177Z" style="fill:#404040;"/><path d="M8.371,7.061c0.049,-0.049 0.128,-0.049 0.177,0c0.049,0.048 0.049,0.128 0,0.176c-0.049,0.049 -0.128,0.049 -0.177,0c-0.048,-0.048 -0.048,-0.128 0,-0.176Z" style="fill:#404040;"/><path d="M7.683,8.456c0.049,-0.049 0.128,-0.049 0.177,0c0.048,0.049 0.048,0.128 0,0.177c-0.049,0.049 -0.128,0.049 -0.177,0c-0.049,-0.049 -0.049,-0.128 0,-0.177Z" style="fill:#404040;"/></g></g><g><g><path d="M2.396,10.207c0.049,0.049 0.049,0.128 0,0.177c-0.049,0.049 -0.128,0.049 -0.177,0c-0.048,-0.049 -0.048,-0.128 0,-0.177c0.049,-0.048 0.128,-0.048 0.177,0Z" style="fill:#404040;"/><path d="M2.396,9.5c0.049,0.049 0.049,0.128 0,0.177c-0.049,0.049 -0.128,0.049 -0.177,0c-0.048,-0.049 -0.048,-0.128 0,-0.177c0.049,-0.049 0.128,-0.049 0.177,0Z" style="fill:#404040;"/><path d="M2.396,8.793c0.049,0.049 0.049,0.128 0,0.177c-0.049,0.049 -0.128,0.049 -0.177,0c-0.048,-0.049 -0.048,-0.128 0,-0.177c0.049,-0.049 0.128,-0.049 0.177,0Z" style="fill:#404040;"/><path d="M3.103,9.5c0.049,0.049 0.049,0.128 0,0.177c-0.048,0.049 -0.128,0.049 -0.176,0c-0.049,-0.049 -0.049,-0.128 0,-0.177c0.048,-0.049 0.128,-0.049 0.176,0Z" style="fill:#404040;"/><path d="M3.103,10.207c0.049,0.049 0.049,0.128 0,0.177c-0.048,0.049 -0.128,0.049 -0.176,0c-0.049,-0.049 -0.049,-0.128 0,-0.177c0.048,-0.048 0.128,-0.048 0.176,0Z" style="fill:#404040;"/><path d="M1.708,9.519c0.049,0.049 0.049,0.128 0,0.177c-0.049,0.048 -0.128,0.048 -0.177,0c-0.049,-0.049 -0.049,-0.128 0,-0.177c0.049,-0.049 0.128,-0.049 0.177,0Z" style="fill:#404040;"/></g><g><path d="M3.086,8.811c-0.049,-0.049 -0.128,-0.049 -0.177,0c-0.049,0.049 -0.049,0.128 0,0.177c0.049,0.048 0.128,0.048 0.177,0c0.048,-0.049 0.048,-0.128 0,-0.177Z" style="fill:#404040;"/><path d="M3.793,8.811c-0.049,-0.049 -0.128,-0.049 -0.177,0c-0.049,0.049 -0.049,0.128 0,0.177c0.049,0.048 0.128,0.048 0.177,0c0.049,-0.049 0.049,-0.128 0,-0.177Z" style="fill:#404040;"/><path d="M4.5,8.811c-0.049,-0.049 -0.128,-0.049 -0.177,0c-0.049,0.049 -0.049,0.128 0,0.177c0.049,0.048 0.128,0.048 0.177,0c0.049,-0.049 0.049,-0.128 0,-0.177Z" style="fill:#404040;"/><path d="M3.793,8.104c-0.049,-0.049 -0.128,-0.049 -0.177,0c-0.049,0.048 -0.049,0.128 0,0.176c0.049,0.049 0.128,0.049 0.177,0c0.049,-0.048 0.049,-0.128 0,-0.176Z" style="fill:#404040;"/><path d="M3.086,8.104c-0.049,-0.049 -0.128,-0.049 -0.177,0c-0.049,0.048 -0.049,0.128 0,0.176c0.049,0.049 0.128,0.049 0.177,0c0.048,-0.048 0.048,-0.128 0,-0.176Z" style="fill:#404040;"/><path d="M3.774,9.499c-0.049,-0.049 -0.128,-0.049 -0.177,0c-0.048,0.049 -0.048,0.128 0,0.177c0.049,0.049 0.128,0.049 0.177,0c0.049,-0.049 0.049,-0.128 0,-0.177Z" style="fill:#404040;"/></g><g><path d="M4.482,8.121c0.049,0.049 0.049,0.128 0,0.177c-0.049,0.049 -0.128,0.049 -0.177,0c-0.048,-0.049 -0.048,-0.128 0,-0.177c0.049,-0.048 0.128,-0.048 0.177,0Z" style="fill:#404040;"/><path d="M4.482,7.414c0.049,0.049 0.049,0.128 0,0.177c-0.049,0.049 -0.128,0.049 -0.177,0c-0.048,-0.049 -0.048,-0.128 0,-0.177c0.049,-0.049 0.128,-0.049 0.177,0Z" style="fill:#404040;"/><path d="M5.189,8.121c0.049,0.049 0.049,0.128 0,0.177c-0.048,0.049 -0.128,0.049 -0.176,0c-0.049,-0.049 -0.049,-0.128 0,-0.177c0.048,-0.048 0.128,-0.048 0.176,0Z" style="fill:#404040;"/><path d="M3.794,7.433c0.049,0.049 0.049,0.128 0,0.177c-0.049,0.048 -0.128,0.048 -0.177,0c-0.049,-0.049 -0.049,-0.128 0,-0.177c0.049,-0.049 0.128,-0.049 0.177,0Z" style="fill:#404040;"/></g></g><g><path d="M5.25,5.8c0.11,-0.11 0.29,-0.11 0.4,0c0.11,0.11 0.11,0.29 0,0.4c-0.11,0.11 -0.29,0.11 -0.4,0c-0.11,-0.11 -0.11,-0.29 0,-0.4Z" style="fill:#58d432;"/><path d="M6.05,5c0.11,-0.11 0.29,-0.11 0.4,0c0.11,0.11 0.11,0.29 0,0.4c-0.11,0.11 -0.29,0.11 -0.4,0c-0.11,-0.11 -0.11,-0.29 0,-0.4Z" style="fill:#58d432;"/><path d="M6.85,5.8c0.11,-0.11 0.29,-0.11 0.4,0c0.11,0.11 0.11,0.29 0,0.4c-0.11,0.11 -0.29,0.11 -0.4,0c-0.11,-0.11 -0.11,-0.29 0,-0.4Z" style="fill:#58d432;"/><path d="M6.05,6.6c0.11,-0.11 0.29,-0.11 0.4,0c0.11,0.11 0.11,0.29 0,0.4c-0.11,0.11 -0.29,0.11 -0.4,0c-0.11,-0.11 -0.11,-0.29 0,-0.4Z" style="fill:#58d432;"/><path d="M3.85,6l2.4,-2.4" style="fill:none;stroke:#404040;stroke-width:0.25px;"/><path d="M8.65,6l-2.4,2.4" style="fill:none;stroke:#404040;stroke-width:0.25px;"/></g></g><defs><linearGradient id="_Linear1" x1="0" y1="0" x2="1" y2="0" gradientUnits="userSpaceOnUse" gradientTransform="matrix(21,21,24.4364,-24.4364,-13.55,-13.8)"><stop offset="0" style="stop-color:#fff;stop-opacity:1"/><stop offset="1" style="stop-color:#e6e6e6;stop-opacity:1"/></linearGradient><linearGradient id="_Linear2" x1="0" y1="0" x2="1" y2="0" gradientUnits="userSpaceOnUse" gradientTransform="matrix(-21,21,24.4364,24.4364,26.05,-13.8)"><stop offset="0" style="stop-color:#fff;stop-opacity:1"/><stop offset="1" style="stop-color:#e6e6e6;stop-opacity:1"/></linearGradient></defs></svg>