<?xml version="1.0" encoding="UTF-8" standalone="no"?><!DOCTYPE svg PUBLIC "-//W3C//DTD SVG 1.1//EN" "http://www.w3.org/Graphics/SVG/1.1/DTD/svg11.dtd"><svg width="100%" height="100%" viewBox="0 0 22 16" version="1.1" xmlns="http://www.w3.org/2000/svg" xmlns:xlink="http://www.w3.org/1999/xlink" xml:space="preserve" xmlns:serif="http://www.serif.com/" style="fill-rule:evenodd;clip-rule:evenodd;stroke-linecap:round;stroke-linejoin:round;stroke-miterlimit:1.5;"><g id="icon-restore"><path d="M2.327,2.048l0,-0.771c0.003,-0.058 0.009,-0.111 0.028,-0.166c0.05,-0.142 0.164,-0.257 0.307,-0.306c0.054,-0.02 0.108,-0.025 0.165,-0.028c5.926,0 11.862,-0.33 17.779,0.003c0.057,0.009 0.109,0.021 0.161,0.046c0.119,0.057 0.211,0.161 0.255,0.285c0.019,0.055 0.025,0.108 0.028,0.166l0,11.815c-0.003,0.057 -0.009,0.11 -0.028,0.165c-0.05,0.143 -0.164,0.257 -0.307,0.307c-0.054,0.019 -0.108,0.025 -0.165,0.028l-0.777,0l0,-1l0.277,0l0,-10.815l-16.723,0l0,0.264c-0.333,0.003 -0.667,0.005 -1,0.007Z" style="fill:#dfdfdf;"/><rect x="0.55" y="3.553" width="17.723" height="11.815" style="fill:#fff;fill-opacity:0;stroke:#dfdfdf;stroke-width:1px;"/></g></svg>