<?xml version="1.0" encoding="UTF-8" standalone="no"?>
<!DOCTYPE svg PUBLIC "-//W3C//DTD SVG 1.1//EN" "http://www.w3.org/Graphics/SVG/1.1/DTD/svg11.dtd">
<svg width="100%" height="100%" viewBox="0 0 25 26" version="1.1" xmlns="http://www.w3.org/2000/svg" xmlns:xlink="http://www.w3.org/1999/xlink" xml:space="preserve" style="fill-rule:evenodd;clip-rule:evenodd;stroke-linecap:round;stroke-linejoin:round;stroke-miterlimit:1.5;">
    <g transform="matrix(1,0,0,1,-725,-77)">
        <g transform="matrix(0.28125,0,0,0.222222,-270.078,0)">
            <g id="intersection" transform="matrix(0.888889,0,0,1.125,2345.17,239.625)">
                <g transform="matrix(4,0,0,4,-1558,-213)">
                    <path d="M744.581,102.309C744.521,102.296 744.468,102.277 744.42,102.236C744.279,102.113 744.279,101.887 744.42,101.764C744.48,101.712 744.548,101.693 744.625,101.688L747.125,101.688C747.186,101.692 747.241,101.703 747.294,101.737C747.437,101.829 747.48,102.026 747.388,102.169C747.372,102.194 747.352,102.217 747.33,102.236C747.27,102.288 747.202,102.307 747.125,102.312C746.277,102.312 745.427,102.37 744.581,102.309ZM740.206,102.309C740.146,102.296 740.093,102.277 740.045,102.236C739.904,102.113 739.904,101.887 740.045,101.764C740.105,101.712 740.173,101.693 740.25,101.688L742.75,101.688C742.811,101.692 742.866,101.703 742.919,101.737C743.062,101.829 743.105,102.026 743.013,102.169C742.997,102.194 742.977,102.217 742.955,102.236C742.895,102.288 742.827,102.307 742.75,102.312C741.902,102.312 741.052,102.37 740.206,102.309ZM735.831,102.309C735.771,102.296 735.718,102.277 735.67,102.236C735.529,102.113 735.529,101.887 735.67,101.764C735.73,101.712 735.798,101.693 735.875,101.688L738.375,101.688C738.436,101.692 738.491,101.703 738.544,101.737C738.687,101.829 738.73,102.026 738.638,102.169C738.622,102.194 738.602,102.217 738.58,102.236C738.52,102.288 738.452,102.307 738.375,102.312C737.527,102.312 736.677,102.37 735.831,102.309ZM734,102.312L733.5,102.312C733.461,102.31 733.45,102.311 733.412,102.3C733.311,102.27 733.23,102.189 733.2,102.088C733.189,102.05 733.19,102.039 733.188,102L733.188,100C733.192,99.939 733.203,99.884 733.237,99.831C733.253,99.806 733.273,99.783 733.295,99.764C733.424,99.652 733.625,99.667 733.736,99.795C733.788,99.855 733.807,99.923 733.813,100L733.813,101.688L734,101.688C734.061,101.692 734.116,101.703 734.169,101.737C734.312,101.829 734.355,102.026 734.263,102.169C734.247,102.194 734.227,102.217 734.205,102.236C734.145,102.288 734.077,102.307 734,102.312ZM749.5,102.312L749,102.312C748.923,102.307 748.855,102.288 748.795,102.236C748.667,102.125 748.652,101.924 748.764,101.795C748.783,101.773 748.806,101.753 748.831,101.737C748.884,101.703 748.939,101.692 749,101.688L749.188,101.688L749.188,100L749.191,99.956C749.204,99.896 749.223,99.843 749.264,99.795C749.387,99.654 749.613,99.654 749.736,99.795C749.788,99.855 749.807,99.923 749.813,100C749.813,100.681 749.858,101.365 749.809,102.044C749.801,102.083 749.801,102.094 749.784,102.13C749.747,102.212 749.674,102.275 749.588,102.3C749.55,102.311 749.539,102.31 749.5,102.312ZM749.809,98.169C749.793,98.245 749.764,98.31 749.705,98.361C749.563,98.484 749.338,98.452 749.237,98.294C749.203,98.241 749.192,98.186 749.188,98.125L749.188,95.625C749.192,95.564 749.203,95.509 749.237,95.456C749.329,95.313 749.526,95.27 749.669,95.362C749.694,95.378 749.717,95.398 749.736,95.42C749.788,95.48 749.807,95.548 749.813,95.625C749.813,96.473 749.87,97.323 749.809,98.169ZM733.809,98.169C733.796,98.229 733.777,98.282 733.736,98.33C733.613,98.471 733.387,98.471 733.264,98.33C733.212,98.27 733.193,98.202 733.188,98.125L733.188,95.625C733.192,95.564 733.203,95.509 733.237,95.456C733.253,95.431 733.273,95.408 733.295,95.389C733.424,95.277 733.625,95.292 733.736,95.42C733.788,95.48 733.807,95.548 733.813,95.625C733.813,96.473 733.87,97.323 733.809,98.169ZM749.809,93.794C749.793,93.87 749.764,93.935 749.705,93.986C749.563,94.109 749.338,94.077 749.237,93.919C749.203,93.866 749.192,93.811 749.188,93.75L749.188,91.25C749.192,91.189 749.203,91.134 749.237,91.081C749.329,90.938 749.526,90.895 749.669,90.987C749.694,91.003 749.717,91.023 749.736,91.045C749.788,91.105 749.807,91.173 749.813,91.25C749.813,92.098 749.87,92.948 749.809,93.794ZM749.809,89.419C749.793,89.495 749.764,89.56 749.705,89.611C749.563,89.734 749.338,89.702 749.237,89.544C749.203,89.491 749.192,89.436 749.188,89.375L749.188,86.875C749.192,86.814 749.203,86.759 749.237,86.706C749.329,86.563 749.526,86.52 749.669,86.612C749.694,86.628 749.717,86.648 749.736,86.67C749.788,86.73 749.807,86.798 749.813,86.875C749.813,87.723 749.87,88.573 749.809,89.419ZM743.206,86.309C743.146,86.296 743.093,86.277 743.045,86.236C742.904,86.113 742.904,85.887 743.045,85.764C743.105,85.712 743.173,85.693 743.25,85.688L745.75,85.688C745.811,85.692 745.866,85.703 745.919,85.737C746.062,85.829 746.105,86.026 746.013,86.169C745.997,86.194 745.977,86.217 745.955,86.236C745.895,86.288 745.827,86.307 745.75,86.312C744.902,86.312 744.052,86.37 743.206,86.309ZM749.5,86.312L747.625,86.312C747.564,86.308 747.509,86.297 747.456,86.263C747.431,86.247 747.408,86.227 747.389,86.205C747.277,86.076 747.292,85.875 747.42,85.764C747.48,85.712 747.548,85.693 747.625,85.688C748.265,85.688 748.906,85.645 749.544,85.691C749.604,85.704 749.657,85.723 749.705,85.764C749.846,85.887 749.846,86.113 749.705,86.236C749.645,86.288 749.577,86.307 749.5,86.312Z" style="fill:rgb(64,64,64);"/>
                </g>
                <g transform="matrix(4,0,0,4,-1558,-213)">
                    <path d="M732.601,94.264C732.272,94.227 731.946,94.174 731.624,94.099C731.258,94.015 730.9,93.904 730.548,93.772L730.465,93.74C730.409,93.714 730.362,93.683 730.325,93.633C730.235,93.509 730.25,93.332 730.359,93.225C730.404,93.181 730.456,93.159 730.515,93.142C730.56,93.137 730.559,93.137 730.604,93.137L730.648,93.144C730.719,93.166 730.788,93.195 730.858,93.221C730.936,93.249 730.957,93.256 731.036,93.283C731.529,93.447 732.037,93.566 732.553,93.63C732.556,93.772 732.56,93.913 732.564,94.055C732.57,94.126 732.582,94.196 732.601,94.264ZM727.197,90.535C727.258,90.553 727.303,90.577 727.352,90.619C727.388,90.66 727.419,90.702 727.453,90.745C727.51,90.817 727.569,90.889 727.628,90.959C728.065,91.47 728.559,91.923 729.109,92.309L729.143,92.337C729.206,92.405 729.245,92.483 729.241,92.577C729.239,92.622 729.228,92.666 729.208,92.706C729.131,92.858 728.939,92.92 728.788,92.843C728.724,92.811 728.665,92.761 728.608,92.719C728.474,92.621 728.342,92.52 728.214,92.413C727.726,92.008 727.289,91.553 726.9,91.052L726.883,91.029C726.858,90.991 726.837,90.954 726.827,90.909C726.797,90.775 726.861,90.634 726.981,90.567C727.022,90.545 727.063,90.536 727.108,90.529C727.153,90.529 727.153,90.529 727.197,90.535ZM725.597,86.516C725.636,86.526 725.646,86.527 725.682,86.544C725.767,86.587 725.816,86.659 725.845,86.747C725.859,86.823 725.864,86.901 725.874,86.979C725.885,87.064 725.889,87.085 725.901,87.17C725.951,87.485 726.017,87.797 726.104,88.104C726.19,88.406 726.296,88.701 726.417,88.991C726.433,89.028 726.449,89.066 726.466,89.103C726.492,89.176 726.502,89.246 726.479,89.321C726.47,89.35 726.458,89.377 726.441,89.402C726.348,89.544 726.151,89.585 726.009,89.492C725.947,89.451 725.911,89.394 725.881,89.327C725.841,89.234 725.802,89.141 725.765,89.047C725.629,88.697 725.513,88.341 725.424,87.976C725.342,87.639 725.283,87.298 725.242,86.954L725.231,86.857C725.23,86.818 725.227,86.808 725.234,86.768C725.253,86.665 725.325,86.576 725.422,86.535C725.459,86.52 725.47,86.52 725.509,86.513C725.553,86.512 725.553,86.512 725.597,86.516ZM726.323,82.257C726.368,82.268 726.408,82.28 726.447,82.305C726.534,82.364 726.588,82.465 726.586,82.57C726.586,82.61 726.581,82.62 726.572,82.658C726.548,82.719 726.519,82.778 726.492,82.838C726.453,82.923 726.417,83.009 726.381,83.096C726.135,83.707 725.965,84.342 725.878,84.995L725.869,85.038C725.837,85.125 725.786,85.196 725.701,85.236C725.547,85.308 725.357,85.24 725.285,85.086C725.266,85.045 725.256,85.001 725.256,84.956C725.255,84.884 725.272,84.806 725.283,84.735C725.307,84.58 725.335,84.426 725.368,84.273C725.498,83.656 725.702,83.06 725.965,82.488L725.992,82.432C726.011,82.397 726.014,82.387 726.041,82.358C726.093,82.299 726.159,82.271 726.234,82.256C726.279,82.253 726.278,82.253 726.323,82.257ZM740.349,81.475C740.387,81.484 740.397,81.484 740.433,81.502C740.546,81.556 740.599,81.675 740.66,81.777C740.711,81.863 740.76,81.951 740.808,82.039C741.132,82.635 741.377,83.268 741.551,83.924L741.57,84.001C741.583,84.077 741.581,84.148 741.546,84.218C741.461,84.385 741.241,84.441 741.088,84.333C741.036,84.297 741.005,84.25 740.978,84.195C740.955,84.127 740.94,84.057 740.921,83.988C740.899,83.906 740.893,83.886 740.869,83.805C740.67,83.151 740.391,82.529 740.032,81.947L740.012,81.908C739.996,81.865 739.985,81.824 739.986,81.778C739.988,81.672 740.045,81.573 740.134,81.517C740.174,81.493 740.214,81.482 740.26,81.473C740.304,81.471 740.304,81.471 740.349,81.475ZM729.158,79C729.218,79.013 729.271,79.032 729.318,79.072C729.422,79.162 729.456,79.313 729.4,79.438C729.374,79.495 729.334,79.535 729.285,79.572C729.18,79.64 729.078,79.712 728.976,79.785C728.704,79.987 728.443,80.202 728.197,80.436C727.953,80.669 727.726,80.919 727.513,81.18L727.482,81.213C727.434,81.251 727.386,81.28 727.324,81.29C727.157,81.32 726.992,81.204 726.963,81.036C726.949,80.959 726.968,80.89 727.003,80.822C727.042,80.765 727.043,80.767 727.087,80.714C727.343,80.407 727.616,80.117 727.912,79.848C728.233,79.556 728.576,79.293 728.937,79.053C728.957,79.039 728.957,79.041 728.983,79.026C729.025,79.01 729.025,79.01 729.069,79C729.113,78.997 729.113,78.997 729.158,79ZM737.171,78.555C737.211,78.565 737.246,78.579 737.283,78.598C737.372,78.644 737.461,78.692 737.549,78.74C737.869,78.921 738.178,79.12 738.472,79.34C738.766,79.559 739.042,79.799 739.306,80.053L739.352,80.098C739.402,80.156 739.437,80.218 739.444,80.297C739.458,80.483 739.299,80.645 739.112,80.633C739.049,80.629 738.998,80.605 738.946,80.572C738.896,80.529 738.851,80.482 738.803,80.436C738.736,80.373 738.668,80.311 738.599,80.249C738.367,80.046 738.126,79.854 737.873,79.678C737.618,79.502 737.354,79.343 737.081,79.197C737.045,79.178 737.009,79.159 736.973,79.141C736.921,79.11 736.876,79.075 736.845,79.021C736.767,78.889 736.799,78.714 736.919,78.618C736.968,78.579 737.021,78.562 737.082,78.551C737.126,78.55 737.126,78.55 737.171,78.555ZM733.607,77.688C734.222,77.7 734.832,77.771 735.43,77.913L735.473,77.927C735.528,77.953 735.575,77.984 735.612,78.035C735.711,78.173 735.679,78.372 735.54,78.471C735.477,78.517 735.407,78.53 735.33,78.529C735.204,78.508 735.08,78.475 734.955,78.45C734.473,78.361 733.988,78.316 733.498,78.312L733.454,78.309C733.412,78.3 733.412,78.3 733.372,78.285L733.33,78.301L733.287,78.312C733.162,78.325 733.035,78.326 732.909,78.335C732.22,78.392 731.544,78.533 730.893,78.767L730.85,78.779C730.759,78.791 730.672,78.778 730.597,78.72C730.562,78.693 730.532,78.658 730.512,78.619C730.432,78.469 730.491,78.276 730.641,78.196C730.7,78.165 730.772,78.146 730.835,78.125C730.989,78.073 731.144,78.026 731.3,77.983C731.913,77.812 732.544,77.722 733.179,77.694L733.223,77.692C733.271,77.694 733.309,77.701 733.354,77.716L733.362,77.72L733.372,77.715L733.414,77.7L733.457,77.69C733.532,77.686 733.532,77.688 733.607,77.688Z" style="fill:rgb(64,64,64);"/>
                </g>
                <g transform="matrix(1,0,0,1,96,-509)">
                    <path d="M1312,640C1312,657.662 1297.66,672 1280,672L1280,640L1312,640Z" style="fill:none;stroke:rgb(64,64,64);stroke-width:2.5px;"/>
                </g>
            </g>
        </g>
    </g>
</svg>
