<?xml version="1.0" encoding="UTF-8" standalone="no"?><!DOCTYPE svg PUBLIC "-//W3C//DTD SVG 1.1//EN" "http://www.w3.org/Graphics/SVG/1.1/DTD/svg11.dtd"><svg width="100%" height="100%" viewBox="0 0 21 21" version="1.1" xmlns="http://www.w3.org/2000/svg" xmlns:xlink="http://www.w3.org/1999/xlink" xml:space="preserve" style="fill-rule:evenodd;clip-rule:evenodd;stroke-linecap:round;stroke-linejoin:round;stroke-miterlimit:1.5;"><g id="intersection"><path d="M10.2,20.5l-2,0c-0.043,-0.002 -0.055,-0.001 -0.098,-0.01c-0.096,-0.019 -0.186,-0.067 -0.256,-0.136c-0.034,-0.035 -0.064,-0.075 -0.087,-0.118c-0.094,-0.177 -0.072,-0.399 0.054,-0.553c0.042,-0.051 0.094,-0.093 0.151,-0.124c0.075,-0.04 0.153,-0.055 0.236,-0.059c0.683,0 1.367,-0.031 2.049,0.002c0.083,0.013 0.159,0.035 0.229,0.082c0.166,0.111 0.251,0.317 0.212,0.514c-0.009,0.048 -0.026,0.094 -0.049,0.138c-0.023,0.043 -0.053,0.083 -0.087,0.118c-0.07,0.069 -0.16,0.117 -0.256,0.136c-0.043,0.009 -0.054,0.008 -0.098,0.01Zm4.5,0l-2,0c-0.083,-0.004 -0.161,-0.019 -0.236,-0.059c-0.057,-0.031 -0.109,-0.073 -0.151,-0.124c-0.126,-0.154 -0.148,-0.376 -0.054,-0.553c0.023,-0.043 0.053,-0.083 0.087,-0.118c0.07,-0.069 0.16,-0.117 0.256,-0.136c0.043,-0.009 0.055,-0.008 0.098,-0.01c0.683,0 1.367,-0.031 2.049,0.002c0.083,0.013 0.159,0.035 0.229,0.082c0.166,0.111 0.251,0.317 0.212,0.514c-0.009,0.048 -0.026,0.094 -0.049,0.138c-0.023,0.043 -0.053,0.083 -0.087,0.118c-0.07,0.069 -0.16,0.117 -0.256,0.136c-0.043,0.009 -0.054,0.008 -0.098,0.01Zm4.5,0l-2,0c-0.083,-0.004 -0.161,-0.019 -0.236,-0.059c-0.057,-0.031 -0.109,-0.073 -0.151,-0.124c-0.126,-0.154 -0.148,-0.376 -0.054,-0.553c0.023,-0.043 0.053,-0.083 0.087,-0.118c0.07,-0.069 0.16,-0.117 0.256,-0.136c0.043,-0.009 0.055,-0.008 0.098,-0.01c0.683,0 1.367,-0.031 2.049,0.002c0.083,0.013 0.159,0.035 0.229,0.082c0.166,0.111 0.251,0.317 0.212,0.514c-0.009,0.048 -0.026,0.094 -0.049,0.138c-0.023,0.043 -0.053,0.083 -0.087,0.118c-0.07,0.069 -0.16,0.117 -0.256,0.136c-0.043,0.009 -0.054,0.008 -0.098,0.01Zm-12.351,-4.098c0.049,0.008 0.096,0.017 0.142,0.036c0.138,0.057 0.244,0.175 0.287,0.317c0.015,0.048 0.02,0.095 0.022,0.145l0,2c-0.002,0.043 -0.001,0.055 -0.01,0.098c-0.019,0.096 -0.067,0.186 -0.136,0.256c-0.035,0.034 -0.075,0.064 -0.118,0.087c-0.177,0.094 -0.399,0.072 -0.553,-0.054c-0.051,-0.042 -0.093,-0.094 -0.124,-0.151c-0.04,-0.075 -0.055,-0.153 -0.059,-0.236l0,-2c0.002,-0.05 0.007,-0.097 0.022,-0.145c0.043,-0.142 0.149,-0.26 0.287,-0.317c0.046,-0.019 0.093,-0.028 0.142,-0.036c0.049,-0.002 0.049,-0.002 0.098,0Zm12.8,-1c0.049,0.008 0.096,0.017 0.142,0.036c0.138,0.057 0.244,0.175 0.287,0.317c0.015,0.048 0.02,0.095 0.022,0.145l0,2c-0.002,0.043 -0.001,0.055 -0.01,0.098c-0.019,0.096 -0.067,0.186 -0.136,0.256c-0.035,0.034 -0.075,0.064 -0.118,0.087c-0.177,0.094 -0.399,0.072 -0.553,-0.054c-0.051,-0.042 -0.093,-0.094 -0.124,-0.151c-0.04,-0.075 -0.055,-0.153 -0.059,-0.236l0,-2c0.002,-0.05 0.007,-0.097 0.022,-0.145c0.043,-0.142 0.149,-0.26 0.287,-0.317c0.046,-0.019 0.093,-0.028 0.142,-0.036c0.049,-0.002 0.049,-0.002 0.098,0Zm0,-4.5c0.049,0.008 0.096,0.017 0.142,0.036c0.138,0.057 0.244,0.175 0.287,0.317c0.015,0.048 0.02,0.095 0.022,0.145l0,2c-0.002,0.043 -0.001,0.055 -0.01,0.098c-0.019,0.096 -0.067,0.186 -0.136,0.256c-0.035,0.034 -0.075,0.064 -0.118,0.087c-0.177,0.094 -0.399,0.072 -0.553,-0.054c-0.051,-0.042 -0.093,-0.094 -0.124,-0.151c-0.04,-0.075 -0.055,-0.153 -0.059,-0.236l0,-2c0.002,-0.05 0.007,-0.097 0.022,-0.145c0.043,-0.142 0.149,-0.26 0.287,-0.317c0.046,-0.019 0.093,-0.028 0.142,-0.036c0.049,-0.002 0.049,-0.002 0.098,0Zm0,-4.2c0.049,0.008 0.096,0.017 0.142,0.036c0.138,0.057 0.244,0.175 0.287,0.317c0.015,0.048 0.02,0.095 0.022,0.145l0,1.7c-0.002,0.043 -0.001,0.055 -0.01,0.098c-0.019,0.096 -0.067,0.186 -0.136,0.256c-0.142,0.141 -0.36,0.185 -0.545,0.108c-0.046,-0.019 -0.088,-0.044 -0.126,-0.075c-0.051,-0.042 -0.093,-0.094 -0.124,-0.151c-0.04,-0.075 -0.055,-0.153 -0.059,-0.236l0,-1.2l-1.5,0l-0.049,-0.002c-0.043,-0.007 -0.054,-0.007 -0.096,-0.02c-0.094,-0.028 -0.179,-0.085 -0.242,-0.161c-0.126,-0.154 -0.148,-0.376 -0.054,-0.553c0.023,-0.043 0.053,-0.083 0.087,-0.118c0.035,-0.034 0.075,-0.064 0.118,-0.087c0.075,-0.04 0.153,-0.055 0.236,-0.059c0.683,0 1.367,-0.031 2.049,0.002Zm-5.04,-0.014c0.18,0.001 0.36,0.006 0.54,0.014c0.083,0.013 0.159,0.035 0.229,0.082c0.041,0.028 0.077,0.061 0.109,0.099c0.126,0.154 0.148,0.376 0.054,0.553c-0.023,0.043 -0.053,0.083 -0.087,0.118c-0.07,0.069 -0.16,0.117 -0.256,0.136c-0.043,0.009 -0.054,0.008 -0.098,0.01l-0.416,0c0.002,-0.032 0.004,-0.063 0.006,-0.095c0.005,-0.101 0.008,-0.202 0.009,-0.303c0.002,-0.112 0,-0.223 -0.017,-0.334c-0.015,-0.096 -0.04,-0.19 -0.073,-0.28Z" style="fill:#404040;"/><path d="M2.792,11.652c0.043,0.006 0.055,0.006 0.096,0.019c0.049,0.014 0.09,0.037 0.133,0.062c0.085,0.063 0.166,0.131 0.25,0.194c0.422,0.312 0.882,0.576 1.372,0.766l0.045,0.02c0.072,0.041 0.135,0.089 0.183,0.159c0.038,0.053 0.065,0.114 0.079,0.178c0.014,0.064 0.016,0.131 0.005,0.195c-0.038,0.215 -0.216,0.384 -0.432,0.41c-0.087,0.011 -0.172,-0.003 -0.252,-0.034c-0.078,-0.032 -0.156,-0.064 -0.233,-0.097c-0.28,-0.125 -0.553,-0.264 -0.815,-0.424c-0.261,-0.158 -0.509,-0.335 -0.747,-0.524l-0.047,-0.039c-0.062,-0.056 -0.113,-0.117 -0.146,-0.194c-0.09,-0.218 -0.013,-0.477 0.183,-0.608c0.07,-0.047 0.146,-0.07 0.228,-0.083c0.05,-0.002 0.049,-0.002 0.098,0Zm-2.232,-3.795c0.049,0.008 0.095,0.018 0.141,0.038c0.106,0.045 0.194,0.127 0.247,0.229c0.02,0.039 0.022,0.05 0.036,0.091c0.025,0.105 0.044,0.212 0.067,0.317c0.122,0.511 0.306,1.002 0.554,1.465l0.021,0.044c0.015,0.041 0.02,0.051 0.028,0.094c0.023,0.113 0.005,0.232 -0.049,0.333c-0.031,0.058 -0.073,0.11 -0.123,0.151c-0.038,0.032 -0.081,0.057 -0.126,0.076c-0.185,0.077 -0.403,0.033 -0.545,-0.108c-0.07,-0.069 -0.111,-0.16 -0.155,-0.246c-0.051,-0.1 -0.1,-0.2 -0.146,-0.302c-0.222,-0.491 -0.382,-1.006 -0.486,-1.534l-0.012,-0.06c-0.008,-0.066 -0.011,-0.129 0.003,-0.195c0.034,-0.162 0.15,-0.299 0.304,-0.36c0.047,-0.019 0.093,-0.028 0.143,-0.034c0.049,-0.002 0.048,-0.002 0.098,0.001Zm0.759,-4.342c0.082,0.015 0.157,0.041 0.226,0.09c0.162,0.117 0.239,0.326 0.193,0.521c-0.018,0.074 -0.055,0.136 -0.091,0.201c-0.035,0.062 -0.068,0.125 -0.101,0.189c-0.043,0.085 -0.085,0.171 -0.125,0.257c-0.172,0.386 -0.306,0.787 -0.393,1.2l-0.013,0.048c-0.015,0.041 -0.017,0.052 -0.038,0.09c-0.056,0.101 -0.146,0.18 -0.252,0.223c-0.186,0.074 -0.404,0.028 -0.544,-0.115c-0.034,-0.035 -0.063,-0.075 -0.086,-0.119c-0.03,-0.058 -0.049,-0.122 -0.054,-0.187c-0.008,-0.092 0.015,-0.181 0.036,-0.27c0.032,-0.139 0.068,-0.276 0.109,-0.413c0.152,-0.511 0.366,-1 0.629,-1.464c0.013,-0.022 0.013,-0.021 0.032,-0.049c0.027,-0.034 0.032,-0.044 0.064,-0.073c0.061,-0.056 0.134,-0.097 0.213,-0.118c0.043,-0.011 0.054,-0.01 0.097,-0.015c0.05,-0.001 0.049,-0.001 0.098,0.004Zm11.592,2.18c0.01,-0.005 0.02,-0.009 0.03,-0.013c0.047,-0.017 0.094,-0.024 0.143,-0.03c0.049,0 0.049,0 0.098,0.004c0.049,0.009 0.095,0.02 0.141,0.041c0.008,0.004 0.016,0.007 0.023,0.011c-0.028,-0.003 -0.057,-0.005 -0.085,-0.007c-0.117,-0.002 -0.234,-0.004 -0.35,-0.006Zm-1.914,-3.873c0.049,0.009 0.095,0.019 0.141,0.039c0.068,0.029 0.122,0.075 0.177,0.123c0.083,0.072 0.165,0.146 0.245,0.222c0.421,0.402 0.786,0.855 1.096,1.346c0.017,0.026 0.016,0.026 0.032,0.055c0.017,0.04 0.023,0.05 0.034,0.092c0.021,0.079 0.022,0.163 0.003,0.243c-0.011,0.048 -0.03,0.094 -0.054,0.136c-0.11,0.189 -0.336,0.286 -0.548,0.235c-0.096,-0.022 -0.184,-0.074 -0.251,-0.146c-0.04,-0.044 -0.07,-0.095 -0.102,-0.146c-0.038,-0.059 -0.078,-0.118 -0.118,-0.177c-0.054,-0.077 -0.11,-0.154 -0.167,-0.229c-0.26,-0.335 -0.551,-0.641 -0.873,-0.917l-0.036,-0.033c-0.054,-0.063 -0.097,-0.13 -0.12,-0.211c-0.059,-0.21 0.029,-0.44 0.212,-0.557c0.071,-0.045 0.148,-0.066 0.231,-0.077c0.049,-0.001 0.049,-0.001 0.098,0.002Zm-6.294,-1.139c0.082,0.016 0.157,0.043 0.224,0.093c0.161,0.119 0.237,0.329 0.188,0.523c-0.012,0.047 -0.031,0.093 -0.056,0.135c-0.052,0.088 -0.126,0.148 -0.215,0.196c-0.112,0.046 -0.227,0.087 -0.339,0.134c-0.468,0.201 -0.911,0.457 -1.313,0.769l-0.041,0.028c-0.037,0.022 -0.046,0.029 -0.087,0.044c-0.108,0.041 -0.228,0.044 -0.337,0.008c-0.047,-0.016 -0.091,-0.038 -0.131,-0.067c-0.163,-0.115 -0.243,-0.323 -0.198,-0.518c0.014,-0.064 0.041,-0.125 0.079,-0.179c0.052,-0.073 0.124,-0.124 0.195,-0.177c0.111,-0.083 0.224,-0.163 0.34,-0.239c0.444,-0.292 0.919,-0.528 1.416,-0.714l0.033,-0.012c0.049,-0.014 0.093,-0.023 0.144,-0.028c0.049,0 0.049,-0.001 0.098,0.004Zm2.186,-0.382c0.293,0.005 0.585,0.025 0.875,0.066c0.392,0.055 0.778,0.145 1.155,0.265l0.046,0.017c0.075,0.037 0.141,0.082 0.194,0.148c0.03,0.038 0.055,0.081 0.073,0.127c0.074,0.186 0.028,0.403 -0.115,0.543c-0.036,0.034 -0.076,0.063 -0.119,0.086c-0.073,0.038 -0.155,0.057 -0.237,0.056c-0.044,-0.001 -0.054,-0.004 -0.097,-0.011c-0.107,-0.029 -0.213,-0.064 -0.32,-0.094c-0.261,-0.068 -0.525,-0.122 -0.793,-0.157c-0.25,-0.031 -0.502,-0.045 -0.754,-0.047l-0.049,-0.003c-0.083,-0.013 -0.159,-0.036 -0.228,-0.083c-0.041,-0.028 -0.078,-0.061 -0.109,-0.099c-0.125,-0.156 -0.146,-0.378 -0.05,-0.553c0.023,-0.044 0.053,-0.083 0.088,-0.118c0.058,-0.057 0.13,-0.1 0.209,-0.123c0.042,-0.013 0.053,-0.013 0.096,-0.019c0.068,-0.003 0.067,-0.002 0.135,-0.001Z" style="fill:#404040;"/><path d="M13.2,7.2c0,3.532 -2.868,6.4 -6.4,6.4l0,-6.4l6.4,0Z" style="fill:none;stroke:#404040;stroke-width:1px;"/></g></svg>