<?xml version="1.0" encoding="UTF-8" standalone="no"?>
<!DOCTYPE svg PUBLIC "-//W3C//DTD SVG 1.1//EN" "http://www.w3.org/Graphics/SVG/1.1/DTD/svg11.dtd">
<svg width="100%" height="100%" viewBox="0 0 27 14" version="1.1" xmlns="http://www.w3.org/2000/svg" xmlns:xlink="http://www.w3.org/1999/xlink" xml:space="preserve" style="fill-rule:evenodd;clip-rule:evenodd;">
    <g transform="matrix(1,0,0,1,-424,-23)">
        <g transform="matrix(0.28125,0,0,0.222222,-270.078,0)">
            <g id="mask" transform="matrix(0.123799,0,0,0.156683,2126.02,47.1177)">
                <g id="path4669" transform="matrix(1,0,0,1,2802.6,418.446)">
                    <path d="M266.152,141.324C266.152,141.324 161.992,73.368 106.152,141.324C164.598,223.189 266.152,141.324 266.152,141.324Z" style="fill:none;stroke:rgb(64,64,64);stroke-width:17.95px;"/>
                </g>
                <g id="path4673" transform="matrix(1,0,0,1,2802.6,418.446)">
                    <path d="M6.146,4.417C6.146,4.417 -18.604,184.523 46.146,244.417C98.526,292.874 233.476,284.921 306.146,264.417C323.296,259.577 337.986,229.402 346.146,224.417C354.306,229.402 368.996,259.577 386.146,264.417C458.816,284.921 593.766,292.874 646.146,244.417C710.896,184.523 686.146,4.417 686.146,4.417C686.146,4.417 681.396,12.311 646.146,44.417C560.896,-15.477 346.146,44.417 346.146,44.417C346.146,44.417 131.396,-15.477 46.146,44.417C10.896,12.311 6.146,4.417 6.146,4.417Z" style="fill:none;stroke:rgb(64,64,64);stroke-width:17.95px;"/>
                </g>
                <g id="path4689" transform="matrix(1,0,0,1,2802.6,418.446)">
                    <path d="M426.138,141.324C426.138,141.324 530.298,73.368 586.138,141.324C527.693,223.189 426.138,141.324 426.138,141.324L426.138,141.324Z" style="fill:none;stroke:rgb(64,64,64);stroke-width:17.95px;"/>
                </g>
            </g>
        </g>
    </g>
</svg>
