<?xml version="1.0" encoding="UTF-8" standalone="no"?><!DOCTYPE svg PUBLIC "-//W3C//DTD SVG 1.1//EN" "http://www.w3.org/Graphics/SVG/1.1/DTD/svg11.dtd"><svg width="100%" height="100%" viewBox="0 0 16 16" version="1.1" xmlns="http://www.w3.org/2000/svg" xmlns:xlink="http://www.w3.org/1999/xlink" xml:space="preserve" xmlns:serif="http://www.serif.com/" style="fill-rule:evenodd;clip-rule:evenodd;stroke-linecap:round;stroke-linejoin:round;stroke-miterlimit:1.5;"><g id="operation-intersection"><path d="M7.65,15.375l-1.5,0c-0.033,-0.002 -0.041,-0.001 -0.073,-0.007c-0.073,-0.015 -0.14,-0.051 -0.192,-0.103c-0.026,-0.026 -0.048,-0.056 -0.066,-0.088c-0.07,-0.133 -0.054,-0.299 0.041,-0.415c0.031,-0.038 0.07,-0.07 0.113,-0.093c0.056,-0.03 0.114,-0.041 0.177,-0.044c0.512,0 1.025,-0.023 1.537,0.002c0.062,0.009 0.119,0.026 0.171,0.061c0.125,0.084 0.189,0.238 0.16,0.385c-0.007,0.036 -0.02,0.071 -0.037,0.104c-0.018,0.032 -0.04,0.062 -0.066,0.088c-0.052,0.052 -0.119,0.088 -0.192,0.103c-0.032,0.006 -0.04,0.005 -0.073,0.007Zm3.375,0l-1.5,0c-0.063,-0.003 -0.121,-0.014 -0.177,-0.044c-0.043,-0.023 -0.082,-0.055 -0.113,-0.093c-0.095,-0.116 -0.111,-0.282 -0.041,-0.415c0.018,-0.032 0.04,-0.062 0.066,-0.088c0.052,-0.052 0.119,-0.088 0.192,-0.103c0.032,-0.006 0.04,-0.005 0.073,-0.007c0.512,0 1.025,-0.023 1.537,0.002c0.062,0.009 0.119,0.026 0.171,0.061c0.125,0.084 0.189,0.238 0.16,0.385c-0.007,0.036 -0.02,0.071 -0.037,0.104c-0.018,0.032 -0.04,0.062 -0.066,0.088c-0.052,0.052 -0.119,0.088 -0.192,0.103c-0.032,0.006 -0.04,0.005 -0.073,0.007Zm3.375,0l-1.5,0c-0.063,-0.003 -0.121,-0.014 -0.177,-0.044c-0.043,-0.023 -0.082,-0.055 -0.113,-0.093c-0.095,-0.116 -0.111,-0.282 -0.041,-0.415c0.018,-0.032 0.04,-0.062 0.066,-0.088c0.052,-0.052 0.119,-0.088 0.192,-0.103c0.032,-0.006 0.04,-0.005 0.073,-0.007c0.512,0 1.025,-0.023 1.537,0.002c0.062,0.009 0.119,0.026 0.171,0.061c0.125,0.084 0.189,0.238 0.16,0.385c-0.007,0.036 -0.02,0.071 -0.037,0.104c-0.018,0.032 -0.04,0.062 -0.066,0.088c-0.052,0.052 -0.119,0.088 -0.192,0.103c-0.032,0.006 -0.04,0.005 -0.073,0.007Zm-9.263,-3.073c0.037,0.005 0.072,0.012 0.107,0.027c0.102,0.042 0.183,0.131 0.215,0.237c0.011,0.036 0.014,0.072 0.016,0.109l0,1.5c-0.002,0.033 -0.001,0.041 -0.007,0.073c-0.015,0.073 -0.051,0.14 -0.103,0.192c-0.026,0.026 -0.056,0.048 -0.088,0.066c-0.133,0.07 -0.299,0.054 -0.415,-0.041c-0.038,-0.031 -0.07,-0.07 -0.093,-0.113c-0.03,-0.056 -0.041,-0.114 -0.044,-0.177l0,-1.5c0.002,-0.037 0.005,-0.073 0.016,-0.109c0.032,-0.106 0.113,-0.195 0.215,-0.237c0.035,-0.015 0.07,-0.022 0.107,-0.027c0.037,-0.002 0.037,-0.002 0.074,0Zm9.6,-0.75c0.037,0.005 0.072,0.012 0.107,0.027c0.102,0.042 0.183,0.131 0.215,0.237c0.011,0.036 0.014,0.072 0.016,0.109l0,1.5c-0.002,0.033 -0.001,0.041 -0.007,0.073c-0.015,0.073 -0.051,0.14 -0.103,0.192c-0.026,0.026 -0.056,0.048 -0.088,0.066c-0.133,0.07 -0.299,0.054 -0.415,-0.041c-0.038,-0.031 -0.07,-0.07 -0.093,-0.113c-0.03,-0.056 -0.041,-0.114 -0.044,-0.177l0,-1.5c0.002,-0.037 0.005,-0.073 0.016,-0.109c0.032,-0.106 0.113,-0.195 0.215,-0.237c0.035,-0.015 0.07,-0.022 0.107,-0.027c0.037,-0.002 0.037,-0.002 0.074,0Zm0,-3.375c0.037,0.005 0.072,0.012 0.107,0.027c0.102,0.042 0.183,0.131 0.215,0.237c0.011,0.036 0.014,0.072 0.016,0.109l0,1.5c-0.002,0.033 -0.001,0.041 -0.007,0.073c-0.015,0.073 -0.051,0.14 -0.103,0.192c-0.026,0.026 -0.056,0.048 -0.088,0.066c-0.133,0.07 -0.299,0.054 -0.415,-0.041c-0.038,-0.031 -0.07,-0.07 -0.093,-0.113c-0.03,-0.056 -0.041,-0.114 -0.044,-0.177l0,-1.5c0.002,-0.037 0.005,-0.073 0.016,-0.109c0.032,-0.106 0.113,-0.195 0.215,-0.237c0.035,-0.015 0.07,-0.022 0.107,-0.027c0.037,-0.002 0.037,-0.002 0.074,0Zm0,-3.15c0.037,0.005 0.072,0.012 0.107,0.027c0.102,0.042 0.183,0.131 0.215,0.237c0.011,0.036 0.014,0.072 0.016,0.109l0,1.275c-0.002,0.033 -0.001,0.041 -0.007,0.073c-0.015,0.073 -0.051,0.14 -0.103,0.192c-0.106,0.106 -0.27,0.139 -0.409,0.081c-0.034,-0.014 -0.065,-0.033 -0.094,-0.056c-0.038,-0.031 -0.07,-0.07 -0.093,-0.113c-0.03,-0.056 -0.041,-0.114 -0.044,-0.177l0,-0.9l-1.125,0l-0.037,-0.002c-0.032,-0.005 -0.04,-0.005 -0.072,-0.014c-0.07,-0.022 -0.134,-0.064 -0.181,-0.121c-0.095,-0.116 -0.111,-0.282 -0.041,-0.415c0.018,-0.032 0.04,-0.062 0.066,-0.088c0.026,-0.026 0.056,-0.048 0.088,-0.066c0.056,-0.03 0.114,-0.041 0.177,-0.044c0.512,0 1.025,-0.023 1.537,0.002Zm-3.78,-0.011c0.135,0.001 0.27,0.004 0.405,0.011c0.062,0.009 0.119,0.026 0.171,0.061c0.031,0.021 0.059,0.046 0.082,0.074c0.095,0.116 0.111,0.282 0.041,0.415c-0.018,0.032 -0.04,0.062 -0.066,0.088c-0.052,0.052 -0.119,0.088 -0.192,0.103c-0.032,0.006 -0.04,0.005 -0.073,0.007l-0.312,0c0.002,-0.024 0.003,-0.047 0.004,-0.071c0.004,-0.076 0.007,-0.152 0.008,-0.228c0.001,-0.084 -0.001,-0.167 -0.014,-0.25c-0.011,-0.072 -0.029,-0.142 -0.054,-0.21Z" style="fill:url(#_Linear1);"/><path d="M2.094,8.739c0.032,0.005 0.041,0.005 0.072,0.014c0.036,0.011 0.068,0.028 0.1,0.047c0.064,0.047 0.124,0.098 0.187,0.146c0.317,0.234 0.662,0.431 1.029,0.573l0.034,0.015c0.054,0.031 0.101,0.068 0.137,0.12c0.029,0.04 0.049,0.086 0.06,0.134c0.01,0.047 0.011,0.097 0.003,0.146c-0.028,0.161 -0.162,0.288 -0.324,0.307c-0.065,0.008 -0.128,-0.002 -0.189,-0.025c-0.059,-0.024 -0.117,-0.048 -0.175,-0.073c-0.21,-0.094 -0.414,-0.198 -0.611,-0.318c-0.195,-0.119 -0.381,-0.251 -0.56,-0.393l-0.035,-0.029c-0.047,-0.042 -0.085,-0.088 -0.109,-0.146c-0.069,-0.163 -0.01,-0.357 0.136,-0.456c0.053,-0.035 0.11,-0.052 0.172,-0.062c0.037,-0.002 0.036,-0.002 0.073,0Zm-1.674,-2.846c0.037,0.006 0.071,0.013 0.106,0.028c0.079,0.034 0.145,0.096 0.185,0.172c0.015,0.029 0.017,0.037 0.027,0.068c0.019,0.079 0.033,0.159 0.05,0.238c0.092,0.383 0.23,0.751 0.416,1.099l0.015,0.033c0.011,0.031 0.015,0.038 0.022,0.07c0.017,0.085 0.004,0.174 -0.037,0.25c-0.023,0.044 -0.055,0.082 -0.093,0.114c-0.028,0.023 -0.06,0.042 -0.094,0.056c-0.139,0.058 -0.303,0.025 -0.409,-0.081c-0.052,-0.052 -0.083,-0.12 -0.116,-0.185c-0.038,-0.074 -0.075,-0.15 -0.109,-0.226c-0.167,-0.368 -0.287,-0.754 -0.365,-1.15l-0.009,-0.045c-0.006,-0.05 -0.008,-0.097 0.002,-0.147c0.026,-0.121 0.113,-0.224 0.228,-0.27c0.035,-0.014 0.07,-0.02 0.107,-0.025c0.037,-0.001 0.037,-0.001 0.074,0.001Zm0.569,-3.257c0.062,0.011 0.118,0.031 0.17,0.068c0.121,0.088 0.179,0.244 0.144,0.39c-0.013,0.056 -0.041,0.102 -0.068,0.151c-0.026,0.047 -0.051,0.094 -0.076,0.142c-0.032,0.064 -0.063,0.128 -0.093,0.193c-0.129,0.289 -0.229,0.59 -0.295,0.9l-0.009,0.036c-0.012,0.03 -0.014,0.038 -0.029,0.067c-0.042,0.076 -0.11,0.136 -0.19,0.168c-0.139,0.055 -0.302,0.021 -0.407,-0.087c-0.026,-0.026 -0.048,-0.056 -0.065,-0.089c-0.022,-0.043 -0.036,-0.091 -0.041,-0.14c-0.005,-0.069 0.012,-0.136 0.028,-0.203c0.024,-0.104 0.051,-0.207 0.081,-0.309c0.115,-0.384 0.275,-0.751 0.472,-1.098c0.01,-0.017 0.01,-0.016 0.024,-0.037c0.02,-0.026 0.025,-0.033 0.049,-0.055c0.045,-0.042 0.1,-0.073 0.159,-0.088c0.032,-0.008 0.04,-0.008 0.073,-0.012c0.037,0 0.037,0 0.073,0.003Zm8.694,1.635c0.008,-0.003 0.015,-0.006 0.023,-0.009c0.035,-0.013 0.07,-0.019 0.107,-0.023c0.037,0 0.037,0 0.074,0.003c0.037,0.007 0.071,0.015 0.105,0.031c0.006,0.002 0.012,0.005 0.018,0.008c-0.022,-0.002 -0.043,-0.004 -0.065,-0.005c-0.087,-0.002 -0.174,-0.004 -0.262,-0.005Zm-1.435,-2.904c0.036,0.006 0.071,0.013 0.106,0.029c0.05,0.022 0.091,0.056 0.132,0.092c0.063,0.054 0.124,0.11 0.184,0.167c0.315,0.301 0.589,0.641 0.822,1.009c0.013,0.02 0.012,0.02 0.024,0.042c0.013,0.03 0.017,0.037 0.026,0.068c0.015,0.06 0.016,0.123 0.002,0.183c-0.009,0.035 -0.022,0.07 -0.041,0.102c-0.082,0.141 -0.252,0.214 -0.411,0.176c-0.071,-0.017 -0.137,-0.056 -0.188,-0.11c-0.03,-0.033 -0.052,-0.071 -0.076,-0.109c-0.029,-0.045 -0.059,-0.089 -0.089,-0.133c-0.041,-0.058 -0.083,-0.115 -0.126,-0.172c-0.194,-0.251 -0.412,-0.48 -0.654,-0.687l-0.027,-0.025c-0.041,-0.048 -0.073,-0.098 -0.09,-0.159c-0.044,-0.157 0.022,-0.329 0.159,-0.417c0.054,-0.034 0.111,-0.05 0.173,-0.058c0.037,-0.001 0.037,-0.001 0.074,0.002Zm-4.721,-0.855c0.061,0.013 0.118,0.032 0.169,0.07c0.12,0.089 0.177,0.246 0.14,0.392c-0.008,0.036 -0.023,0.07 -0.042,0.102c-0.039,0.065 -0.094,0.111 -0.161,0.146c-0.084,0.035 -0.17,0.066 -0.254,0.101c-0.351,0.151 -0.683,0.342 -0.985,0.577l-0.03,0.021c-0.029,0.016 -0.036,0.021 -0.066,0.033c-0.081,0.031 -0.171,0.033 -0.253,0.006c-0.035,-0.012 -0.068,-0.029 -0.098,-0.05c-0.122,-0.087 -0.182,-0.243 -0.149,-0.389c0.011,-0.048 0.031,-0.094 0.06,-0.134c0.039,-0.055 0.093,-0.093 0.146,-0.133c0.083,-0.062 0.168,-0.122 0.255,-0.179c0.333,-0.219 0.689,-0.396 1.062,-0.536l0.025,-0.008c0.036,-0.012 0.07,-0.018 0.108,-0.022c0.036,0 0.036,0 0.073,0.003Zm1.64,-0.287c0.219,0.005 0.438,0.02 0.656,0.05c0.294,0.041 0.583,0.109 0.867,0.199l0.034,0.013c0.056,0.028 0.105,0.061 0.145,0.111c0.023,0.028 0.042,0.061 0.055,0.095c0.056,0.139 0.021,0.303 -0.087,0.407c-0.026,0.026 -0.056,0.048 -0.089,0.065c-0.054,0.028 -0.116,0.042 -0.177,0.042c-0.033,-0.001 -0.041,-0.003 -0.073,-0.009c-0.081,-0.021 -0.16,-0.047 -0.24,-0.07c-0.195,-0.051 -0.393,-0.092 -0.594,-0.117c-0.188,-0.024 -0.377,-0.035 -0.566,-0.036l-0.037,-0.002c-0.062,-0.01 -0.119,-0.027 -0.171,-0.063c-0.031,-0.02 -0.058,-0.045 -0.081,-0.074c-0.095,-0.117 -0.11,-0.283 -0.039,-0.415c0.018,-0.032 0.04,-0.062 0.067,-0.088c0.043,-0.043 0.098,-0.075 0.156,-0.093c0.032,-0.009 0.04,-0.009 0.073,-0.013c0.05,-0.003 0.05,-0.002 0.101,-0.002Z" style="fill:url(#_Linear2);"/><path d="M9.9,5.4c0,2.649 -2.151,4.8 -4.8,4.8l0,-4.8l4.8,0Z" style="fill:none;stroke:url(#_Linear3);stroke-width:0.75px;"/></g><defs><linearGradient id="_Linear1" x1="0" y1="0" x2="1" y2="0" gradientUnits="userSpaceOnUse" gradientTransform="matrix(9.27667e-16,15.1499,-15.1499,9.27667e-16,7.53942,0.225056)"><stop offset="0" style="stop-color:#404040;stop-opacity:1"/><stop offset="1" style="stop-color:#797979;stop-opacity:1"/></linearGradient><linearGradient id="_Linear2" x1="0" y1="0" x2="1" y2="0" gradientUnits="userSpaceOnUse" gradientTransform="matrix(9.27667e-16,15.1499,-15.1499,9.27667e-16,7.53942,0.225056)"><stop offset="0" style="stop-color:#404040;stop-opacity:1"/><stop offset="1" style="stop-color:#797979;stop-opacity:1"/></linearGradient><linearGradient id="_Linear3" x1="0" y1="0" x2="1" y2="0" gradientUnits="userSpaceOnUse" gradientTransform="matrix(9.27667e-16,15.1499,-15.1499,9.27667e-16,7.53942,0.225056)"><stop offset="0" style="stop-color:#404040;stop-opacity:1"/><stop offset="1" style="stop-color:#808080;stop-opacity:1"/></linearGradient></defs></svg>