<?xml version="1.0" encoding="UTF-8" standalone="no"?>
<!DOCTYPE svg PUBLIC "-//W3C//DTD SVG 1.1//EN" "http://www.w3.org/Graphics/SVG/1.1/DTD/svg11.dtd">
<svg width="100%" height="100%" viewBox="0 0 26 25" version="1.1" xmlns="http://www.w3.org/2000/svg" xmlns:xlink="http://www.w3.org/1999/xlink" xml:space="preserve" xmlns:serif="http://www.serif.com/" style="fill-rule:evenodd;clip-rule:evenodd;stroke-linecap:round;stroke-linejoin:round;stroke-miterlimit:1.5;">
    <g transform="matrix(1,0,0,1,-485,-18)">
        <g transform="matrix(0.40625,0,0,0.222222,-517.891,0)">
            <g id="operation-send-forward" transform="matrix(0.298495,0,0,0.545685,2376,-20.5432)">
                <g transform="matrix(8,0,0,8,-3564,48)">
                    <path d="M491.625,34.625L485.5,34.625C485.417,34.621 485.338,34.61 485.261,34.577C485.089,34.506 484.956,34.359 484.902,34.181C484.884,34.121 484.878,34.062 484.875,34L484.875,18C484.878,17.938 484.884,17.879 484.902,17.819C484.956,17.641 485.089,17.494 485.261,17.423C485.338,17.39 485.417,17.379 485.5,17.375C490.854,17.375 496.214,17.115 501.561,17.378C501.623,17.387 501.681,17.399 501.739,17.423C501.911,17.494 502.044,17.641 502.098,17.819C502.116,17.879 502.122,17.938 502.125,18L502.125,24.064C501.708,24.067 501.292,24.07 500.875,24.073L500.875,18.625L486.125,18.625L486.125,33.375L491.625,33.375L491.625,34.625Z" style="fill:rgb(64,64,64);"/>
                </g>
                <g transform="matrix(4,0,0,4,-896,-2304)">
                    <rect x="320" y="640" width="32" height="32" style="fill:none;stroke:rgb(88,212,50);stroke-width:2.58px;"/>
                </g>
            </g>
        </g>
    </g>
</svg>
