<?xml version="1.0" encoding="UTF-8" standalone="no"?><!DOCTYPE svg PUBLIC "-//W3C//DTD SVG 1.1//EN" "http://www.w3.org/Graphics/SVG/1.1/DTD/svg11.dtd"><svg width="100%" height="100%" viewBox="0 0 17 15" version="1.1" xmlns="http://www.w3.org/2000/svg" xmlns:xlink="http://www.w3.org/1999/xlink" xml:space="preserve" xmlns:serif="http://www.serif.com/" style="fill-rule:evenodd;clip-rule:evenodd;stroke-linecap:round;stroke-linejoin:round;stroke-miterlimit:1.5;"><g id="operation-rotate-cw"><path d="M3.683,7.334l3.42,-6.84c0.019,-0.034 0.023,-0.043 0.048,-0.073c0.056,-0.067 0.135,-0.113 0.222,-0.129c0.038,-0.006 0.048,-0.005 0.087,-0.005c0.014,0.002 0.029,0.004 0.043,0.005c0.044,0.011 0.084,0.022 0.123,0.045c0.089,0.051 0.154,0.138 0.177,0.238c0.009,0.038 0.008,0.048 0.01,0.087l0,8.737l-0.75,-0.375l0,-6.774l-2.709,5.419l-0.671,-0.335Z" style="fill:#404040;"/><path d="M13.977,13.738l-13.077,-6.538l0,6.538l13.077,0Z" style="fill:none;stroke:url(#_Linear1);stroke-width:0.75px;"/><g><path d="M9.073,4.476c2.579,0 4.67,2.091 4.67,4.67" style="fill:none;stroke:#404040;stroke-width:0.75px;"/><path d="M12.186,8.368l1.557,1.556l1.557,-1.556" style="fill:none;stroke:#404040;stroke-width:0.75px;"/></g></g><defs><linearGradient id="_Linear1" x1="0" y1="0" x2="1" y2="0" gradientUnits="userSpaceOnUse" gradientTransform="matrix(8.23655e-16,13.4513,-13.4513,8.23655e-16,0.9,0.287079)"><stop offset="0" style="stop-color:#58d432;stop-opacity:1"/><stop offset="1" style="stop-color:#44ad24;stop-opacity:1"/></linearGradient></defs></svg>