<?xml version="1.0" encoding="UTF-8" standalone="no"?>
<!DOCTYPE svg PUBLIC "-//W3C//DTD SVG 1.1//EN" "http://www.w3.org/Graphics/SVG/1.1/DTD/svg11.dtd">
<svg width="100%" height="100%" viewBox="0 0 26 26" version="1.1" xmlns="http://www.w3.org/2000/svg" xmlns:xlink="http://www.w3.org/1999/xlink" xml:space="preserve" xmlns:serif="http://www.serif.com/" style="fill-rule:evenodd;clip-rule:evenodd;stroke-linejoin:round;stroke-miterlimit:1.41421;">
    <g transform="matrix(1,0,0,1,-725,-17)">
        <g transform="matrix(0.40625,0,0,0.222222,-517.891,0)">
            <g id="operation-difference" transform="matrix(0.615385,0,0,1.125,2151.12,34.3125)">
                <g transform="matrix(4,0,0,4,-1424,-30.5)">
                    <path d="M743.354,25.359C745.424,25.33 747.495,25.276 749.561,25.378C749.623,25.387 749.681,25.399 749.739,25.423C749.911,25.494 750.044,25.641 750.098,25.819C750.116,25.879 750.122,25.938 750.125,26L750.125,42C750.122,42.062 750.116,42.121 750.098,42.181C750.044,42.359 749.911,42.506 749.739,42.577C749.662,42.61 749.583,42.621 749.5,42.625L733.5,42.625C733.438,42.622 733.379,42.616 733.319,42.598C733.141,42.544 732.994,42.411 732.923,42.239C732.89,42.162 732.879,42.083 732.875,42L732.875,35.855C733.083,35.868 733.291,35.875 733.5,35.875C733.709,35.875 733.917,35.868 734.125,35.855L734.125,41.375L748.875,41.375L748.875,26.625L743.355,26.625C743.382,26.204 743.382,25.781 743.354,25.359Z" style="fill:rgb(64,64,64);"/>
                </g>
                <g transform="matrix(0.666667,0,0,0.666667,646,-363.833)">
                    <path d="M1311.74,697.688C1312.37,697.756 1312.94,697.905 1313.48,698.236C1314.99,699.161 1315.65,701.075 1315.04,702.733C1314.91,703.078 1314.73,703.404 1314.51,703.698C1314.02,704.345 1313.35,704.766 1312.59,705.028C1311.99,705.229 1311.38,705.421 1310.77,705.607C1308.51,706.266 1306.21,706.796 1303.87,707.153C1301.7,707.485 1299.52,707.664 1297.33,707.733L1296.87,707.742C1296.25,707.723 1295.66,707.62 1295.1,707.333C1293.76,706.651 1292.94,705.192 1293.06,703.696C1293.09,703.329 1293.18,702.967 1293.31,702.624C1293.44,702.281 1293.63,701.958 1293.86,701.669C1294.32,701.09 1294.94,700.653 1295.64,700.425C1295.96,700.324 1296.04,700.322 1296.36,700.268C1297.19,700.212 1298.02,700.207 1298.84,700.16C1302.74,699.888 1306.6,699.164 1310.29,697.887L1310.65,697.784L1311.01,697.716C1311.38,697.684 1311.37,697.684 1311.74,697.688ZM1265.94,689.39C1266.31,689.444 1266.66,689.511 1267.01,689.655C1267.31,689.779 1267.38,689.832 1267.66,689.999C1268.3,690.469 1268.9,690.978 1269.54,691.456C1272.7,693.796 1276.14,695.77 1279.82,697.194L1280.16,697.344C1280.7,697.654 1281.17,698.019 1281.54,698.537C1281.82,698.939 1282.02,699.396 1282.13,699.875C1282.23,700.354 1282.24,700.854 1282.16,701.338C1281.88,702.946 1280.54,704.216 1278.92,704.414C1278.27,704.492 1277.63,704.391 1277.03,704.157C1276.44,703.921 1275.86,703.679 1275.28,703.43C1273.18,702.494 1271.14,701.447 1269.17,700.251C1267.22,699.063 1265.36,697.741 1263.57,696.318L1263.21,696.029C1262.75,695.61 1262.37,695.153 1262.13,694.569C1261.44,692.938 1262.03,690.998 1263.49,690.012C1264.02,689.659 1264.59,689.486 1265.21,689.393C1265.57,689.373 1265.57,689.373 1265.94,689.39ZM1337.76,676.905C1338.25,677.003 1338.7,677.139 1339.13,677.398C1340.42,678.169 1341.14,679.68 1340.92,681.164C1340.83,681.777 1340.57,682.307 1340.25,682.83C1338.52,685.663 1336.53,688.332 1334.3,690.789C1333.05,692.169 1331.71,693.469 1330.33,694.714L1330.11,694.906C1329.85,695.109 1329.8,695.17 1329.51,695.334C1328.87,695.703 1328.13,695.877 1327.39,695.828C1327.02,695.804 1326.66,695.726 1326.32,695.596C1324.91,695.067 1323.94,693.709 1323.89,692.209C1323.88,691.841 1323.92,691.472 1324.01,691.116C1324.18,690.505 1324.49,690 1324.9,689.523C1325.56,688.888 1326.25,688.291 1326.9,687.656C1329.63,684.966 1332.02,681.973 1333.99,678.688L1334.19,678.382C1334.4,678.129 1334.44,678.057 1334.69,677.837C1335.14,677.424 1335.7,677.127 1336.3,676.978C1336.61,676.898 1336.7,676.902 1337.02,676.87C1337.39,676.869 1337.39,676.869 1337.76,676.905ZM1249.2,660.928C1249.52,660.98 1249.6,660.982 1249.92,661.081C1250.74,661.342 1251.46,661.889 1251.93,662.613C1252.13,662.929 1252.26,663.259 1252.38,663.614C1252.57,664.401 1252.71,665.2 1252.88,665.99C1253.8,669.825 1255.17,673.503 1257.04,676.978L1257.19,677.311C1257.31,677.618 1257.34,677.693 1257.41,678.014C1257.58,678.86 1257.45,679.753 1257.04,680.514C1256.87,680.839 1256.64,681.138 1256.38,681.398C1255.33,682.46 1253.69,682.788 1252.3,682.215C1251.85,682.027 1251.43,681.75 1251.08,681.403C1250.56,680.881 1250.25,680.203 1249.92,679.555C1249.54,678.809 1249.17,678.055 1248.83,677.292C1247.16,673.609 1245.96,669.75 1245.18,665.788L1245.09,665.338C1245.03,664.843 1245.01,664.368 1245.11,663.875C1245.37,662.661 1246.24,661.632 1247.39,661.172C1247.74,661.032 1248.09,660.969 1248.46,660.918C1248.83,660.905 1248.83,660.905 1249.2,660.928ZM1343.87,644.419C1344.24,644.488 1344.58,644.57 1344.92,644.727C1345.26,644.881 1345.57,645.084 1345.85,645.329C1346.4,645.818 1346.8,646.47 1346.99,647.184C1347.05,647.447 1347.12,647.886 1347.15,648.127C1347.25,648.771 1347.34,649.418 1347.41,650.066C1347.93,654.57 1347.85,659.134 1347.19,663.619L1347.12,663.98C1346.94,664.579 1346.69,665.119 1346.26,665.588C1345.26,666.701 1343.64,667.11 1342.22,666.607C1341.88,666.483 1341.55,666.308 1341.25,666.089C1340.95,665.87 1340.69,665.608 1340.47,665.312C1340.11,664.819 1339.86,664.237 1339.77,663.63C1339.72,663.306 1339.74,663.222 1339.74,662.896C1339.81,662.104 1339.94,661.317 1340.02,660.525C1340.22,658.451 1340.3,656.371 1340.22,654.288C1340.15,652.422 1339.95,650.569 1339.65,648.725L1339.61,648.359C1339.61,647.859 1339.65,647.386 1339.81,646.91C1340.18,645.857 1341.01,645.004 1342.06,644.618C1342.41,644.487 1342.76,644.432 1343.13,644.391C1343.5,644.387 1343.5,644.387 1343.87,644.419ZM1254.89,628.36C1255.51,628.475 1256.07,628.667 1256.59,629.038C1257.8,629.917 1258.38,631.484 1258.04,632.944C1257.9,633.497 1257.62,633.961 1257.35,634.451C1257.09,634.918 1256.84,635.391 1256.59,635.866C1256.27,636.505 1255.96,637.149 1255.66,637.8C1254.37,640.695 1253.37,643.698 1252.71,646.8L1252.62,647.156C1252.5,647.462 1252.48,647.545 1252.33,647.832C1251.91,648.588 1251.24,649.186 1250.43,649.506C1249.98,649.688 1249.49,649.78 1249,649.774C1248.63,649.77 1248.26,649.711 1247.91,649.599C1246.48,649.146 1245.43,647.842 1245.31,646.347C1245.25,645.656 1245.42,644.989 1245.58,644.321C1245.82,643.282 1246.09,642.25 1246.39,641.228C1247.54,637.392 1249.14,633.724 1251.11,630.245C1251.21,630.079 1251.21,630.085 1251.35,629.877C1251.55,629.622 1251.6,629.549 1251.84,629.326C1252.29,628.909 1252.84,628.605 1253.43,628.449C1253.75,628.365 1253.83,628.368 1254.16,628.332C1254.53,628.328 1254.53,628.328 1254.89,628.36ZM1327.48,615.666C1327.85,615.729 1328.19,615.804 1328.54,615.956C1329.04,616.178 1329.45,616.518 1329.86,616.877C1330.49,617.419 1331.1,617.976 1331.7,618.547C1334.86,621.556 1337.59,624.955 1339.92,628.639C1340.05,628.837 1340.04,628.838 1340.16,629.055C1340.29,629.355 1340.33,629.427 1340.42,629.744C1340.57,630.338 1340.58,630.968 1340.44,631.566C1340.06,633.155 1338.65,634.343 1337.02,634.444C1336.65,634.466 1336.28,634.435 1335.92,634.35C1335.21,634.179 1334.55,633.795 1334.04,633.254C1333.74,632.925 1333.52,632.537 1333.28,632.161C1332.99,631.712 1332.69,631.271 1332.39,630.831C1331.98,630.25 1331.56,629.677 1331.13,629.11C1329.18,626.6 1327.01,624.306 1324.59,622.238L1324.32,621.985C1323.91,621.513 1323.59,621.012 1323.42,620.403C1322.98,618.831 1323.64,617.108 1325.01,616.229C1325.55,615.888 1326.12,615.73 1326.74,615.651C1327.11,615.64 1327.11,615.64 1327.48,615.666ZM1280.27,607.124C1280.88,607.246 1281.45,607.443 1281.95,607.819C1282.25,608.038 1282.52,608.301 1282.73,608.596C1283.63,609.8 1283.71,611.47 1282.94,612.758C1282.55,613.412 1282,613.867 1281.33,614.222C1280.49,614.573 1279.63,614.877 1278.79,615.228C1275.28,616.739 1271.96,618.655 1268.94,621L1268.64,621.211C1268.35,621.371 1268.29,621.422 1267.98,621.54C1267.17,621.848 1266.27,621.868 1265.45,621.595C1264.99,621.44 1264.55,621.192 1264.18,620.871C1263.9,620.629 1263.66,620.347 1263.46,620.035C1262.66,618.765 1262.71,617.095 1263.58,615.87C1263.97,615.321 1264.51,614.937 1265.04,614.538C1265.87,613.917 1266.72,613.32 1267.59,612.749C1270.92,610.559 1274.48,608.787 1278.21,607.394L1278.46,607.306C1278.82,607.195 1279.16,607.127 1279.54,607.089C1279.9,607.089 1279.9,607.089 1280.27,607.124ZM1296.67,604.254C1298.86,604.296 1301.05,604.447 1303.23,604.752C1306.17,605.164 1309.07,605.842 1311.89,606.742L1312.24,606.871C1312.8,607.146 1313.29,607.482 1313.69,607.976C1313.92,608.264 1314.11,608.586 1314.24,608.928C1314.8,610.322 1314.45,611.956 1313.37,613.003C1313.11,613.26 1312.81,613.477 1312.48,613.647C1311.93,613.929 1311.32,614.074 1310.71,614.065C1310.38,614.061 1310.3,614.036 1309.98,613.983C1309.17,613.771 1308.38,613.506 1307.58,613.283C1305.63,612.766 1303.64,612.362 1301.64,612.106C1299.76,611.867 1297.87,611.762 1295.98,611.75L1295.61,611.73C1294.99,611.634 1294.42,611.46 1293.9,611.105C1293.59,610.898 1293.32,610.647 1293.09,610.361C1292.85,610.074 1292.66,609.754 1292.53,609.413C1291.96,608.023 1292.3,606.386 1293.37,605.332C1293.8,604.9 1294.35,604.579 1294.93,604.405C1295.25,604.311 1295.33,604.312 1295.66,604.266C1296.16,604.244 1296.16,604.251 1296.67,604.254Z" style="fill:rgb(64,64,64);fill-rule:nonzero;"/>
                </g>
            </g>
        </g>
    </g>
</svg>
