<?xml version="1.0" encoding="UTF-8" standalone="no"?>
<!DOCTYPE svg PUBLIC "-//W3C//DTD SVG 1.1//EN" "http://www.w3.org/Graphics/SVG/1.1/DTD/svg11.dtd">
<svg width="100%" height="100%" viewBox="0 0 26 25" version="1.1" xmlns="http://www.w3.org/2000/svg" xmlns:xlink="http://www.w3.org/1999/xlink" xml:space="preserve" xmlns:serif="http://www.serif.com/" style="fill-rule:evenodd;clip-rule:evenodd;stroke-linecap:round;stroke-linejoin:round;stroke-miterlimit:1.5;">
    <g transform="matrix(1,0,0,1,-484,-77)">
        <g transform="matrix(0.40625,0,0,0.222222,-517.891,0)">
            <g id="operation-send-backward" transform="matrix(0.299883,0,0,0.548223,2373.79,245.741)">
                <g transform="matrix(8,0,0,8,-3564,-432)">
                    <path d="M503.375,85.262C505.438,85.253 507.501,85.277 509.561,85.378C509.623,85.387 509.681,85.399 509.739,85.423C509.911,85.494 510.044,85.641 510.098,85.819C510.116,85.879 510.122,85.938 510.125,86L510.125,102C510.121,102.083 510.11,102.162 510.077,102.239C510.006,102.411 509.859,102.544 509.681,102.598C509.621,102.616 509.563,102.622 509.5,102.625L493.5,102.625C493.417,102.621 493.338,102.61 493.261,102.577C493.089,102.506 492.956,102.359 492.902,102.181C492.884,102.121 492.878,102.062 492.875,102L492.875,95.875L494.125,95.875L494.125,101.375L508.875,101.375L508.875,86.625L503.375,86.625L503.375,85.262Z" style="fill:rgb(88,212,50);"/>
                </g>
                <g transform="matrix(4,0,0,4,-960,-2368)">
                    <rect x="320" y="640" width="32" height="32" style="fill:none;stroke:rgb(64,64,64);stroke-width:2.57px;"/>
                </g>
            </g>
        </g>
    </g>
</svg>
