<?xml version="1.0" encoding="UTF-8" standalone="no"?><!DOCTYPE svg PUBLIC "-//W3C//DTD SVG 1.1//EN" "http://www.w3.org/Graphics/SVG/1.1/DTD/svg11.dtd"><svg width="100%" height="100%" viewBox="0 0 13 13" version="1.1" xmlns="http://www.w3.org/2000/svg" xmlns:xlink="http://www.w3.org/1999/xlink" xml:space="preserve" xmlns:serif="http://www.serif.com/" style="fill-rule:evenodd;clip-rule:evenodd;stroke-linejoin:round;stroke-miterlimit:1.41421;"><g id="operation-difference"><path d="M9.177,4.18c1.035,-0.015 2.07,-0.042 3.104,0.009c0.031,0.005 0.06,0.01 0.089,0.022c0.085,0.036 0.152,0.109 0.179,0.198c0.009,0.03 0.012,0.06 0.014,0.091l0,8c-0.002,0.031 -0.005,0.061 -0.014,0.091c-0.027,0.089 -0.094,0.162 -0.179,0.198c-0.039,0.016 -0.078,0.021 -0.12,0.024l-8,0c-0.031,-0.002 -0.061,-0.005 -0.091,-0.014c-0.089,-0.027 -0.162,-0.094 -0.198,-0.179c-0.016,-0.039 -0.021,-0.078 -0.023,-0.12l0,-3.072c0.103,0.006 0.208,0.01 0.312,0.01c0.104,0 0.209,-0.004 0.313,-0.01l0,2.76l7.375,0l0,-7.375l-2.76,0c0.013,-0.211 0.013,-0.423 -0.001,-0.633Z" style="fill:url(#_Linear1);"/><path d="M5.562,7.974c0.052,0.006 0.1,0.018 0.145,0.046c0.125,0.077 0.18,0.236 0.129,0.374c-0.01,0.029 -0.025,0.056 -0.044,0.081c-0.041,0.054 -0.096,0.089 -0.159,0.111c-0.051,0.016 -0.101,0.032 -0.152,0.048c-0.189,0.055 -0.38,0.099 -0.575,0.129c-0.181,0.027 -0.362,0.042 -0.545,0.048l-0.038,0.001c-0.052,-0.002 -0.101,-0.01 -0.148,-0.034c-0.112,-0.057 -0.18,-0.179 -0.17,-0.303c0.003,-0.031 0.01,-0.061 0.021,-0.09c0.011,-0.028 0.026,-0.055 0.045,-0.079c0.039,-0.049 0.091,-0.085 0.149,-0.104c0.026,-0.008 0.033,-0.008 0.06,-0.013c0.069,-0.005 0.138,-0.005 0.207,-0.009c0.325,-0.023 0.646,-0.083 0.954,-0.189l0.03,-0.009l0.03,-0.006c0.03,-0.002 0.03,-0.002 0.061,-0.002Zm-3.817,-0.691c0.031,0.004 0.06,0.01 0.089,0.022c0.025,0.01 0.031,0.014 0.054,0.028c0.053,0.039 0.104,0.082 0.157,0.122c0.263,0.195 0.55,0.359 0.857,0.478l0.028,0.012c0.045,0.026 0.084,0.057 0.115,0.1c0.023,0.033 0.04,0.071 0.049,0.111c0.009,0.04 0.01,0.082 0.003,0.122c-0.024,0.134 -0.135,0.24 -0.27,0.256c-0.054,0.007 -0.107,-0.001 -0.158,-0.021c-0.049,-0.02 -0.097,-0.04 -0.145,-0.061c-0.176,-0.078 -0.346,-0.165 -0.51,-0.264c-0.163,-0.099 -0.318,-0.21 -0.467,-0.328l-0.029,-0.024c-0.039,-0.035 -0.071,-0.073 -0.091,-0.122c-0.057,-0.136 -0.008,-0.297 0.114,-0.38c0.044,-0.029 0.091,-0.043 0.143,-0.051c0.031,-0.002 0.03,-0.002 0.061,0Zm5.985,-1.041c0.041,0.008 0.078,0.02 0.114,0.041c0.108,0.064 0.167,0.19 0.149,0.314c-0.008,0.051 -0.029,0.095 -0.055,0.139c-0.145,0.236 -0.31,0.458 -0.496,0.663c-0.105,0.115 -0.216,0.223 -0.331,0.327l-0.019,0.016c-0.021,0.017 -0.026,0.022 -0.049,0.036c-0.054,0.031 -0.116,0.045 -0.177,0.041c-0.031,-0.002 -0.061,-0.009 -0.09,-0.019c-0.117,-0.044 -0.198,-0.158 -0.202,-0.283c-0.001,-0.03 0.003,-0.061 0.011,-0.091c0.013,-0.051 0.04,-0.093 0.073,-0.132c0.055,-0.053 0.113,-0.103 0.167,-0.156c0.227,-0.224 0.427,-0.474 0.591,-0.747l0.017,-0.026c0.017,-0.021 0.021,-0.027 0.041,-0.045c0.038,-0.035 0.084,-0.059 0.134,-0.072c0.026,-0.007 0.033,-0.006 0.06,-0.009c0.031,0 0.031,0 0.062,0.003Zm-7.38,-1.331c0.027,0.004 0.034,0.004 0.06,0.012c0.068,0.022 0.128,0.068 0.167,0.128c0.017,0.026 0.028,0.054 0.038,0.083c0.016,0.066 0.027,0.133 0.042,0.199c0.076,0.319 0.191,0.626 0.346,0.915l0.013,0.028c0.009,0.026 0.013,0.032 0.018,0.059c0.014,0.07 0.003,0.144 -0.031,0.208c-0.014,0.027 -0.033,0.052 -0.054,0.074c-0.089,0.088 -0.225,0.115 -0.341,0.068c-0.038,-0.016 -0.072,-0.039 -0.101,-0.068c-0.044,-0.044 -0.07,-0.1 -0.097,-0.154c-0.032,-0.062 -0.062,-0.125 -0.091,-0.189c-0.139,-0.307 -0.239,-0.628 -0.304,-0.958l-0.007,-0.038c-0.006,-0.041 -0.007,-0.081 0.001,-0.122c0.022,-0.101 0.094,-0.187 0.19,-0.225c0.029,-0.012 0.059,-0.017 0.09,-0.021c0.03,-0.001 0.03,-0.001 0.061,0.001Zm7.889,-1.376c0.031,0.006 0.059,0.012 0.088,0.026c0.028,0.012 0.054,0.029 0.077,0.05c0.046,0.041 0.079,0.095 0.095,0.154c0.005,0.022 0.011,0.059 0.014,0.079c0.008,0.054 0.015,0.107 0.021,0.161c0.043,0.376 0.037,0.756 -0.018,1.13l-0.006,0.03c-0.015,0.05 -0.036,0.095 -0.071,0.134c-0.084,0.093 -0.219,0.127 -0.337,0.085c-0.029,-0.01 -0.056,-0.025 -0.081,-0.043c-0.025,-0.018 -0.047,-0.04 -0.065,-0.065c-0.031,-0.041 -0.051,-0.09 -0.058,-0.14c-0.004,-0.027 -0.003,-0.034 -0.003,-0.061c0.006,-0.066 0.016,-0.132 0.023,-0.198c0.017,-0.173 0.023,-0.346 0.017,-0.52c-0.006,-0.155 -0.023,-0.31 -0.047,-0.463l-0.004,-0.031c0,-0.041 0.003,-0.081 0.017,-0.121c0.03,-0.087 0.1,-0.158 0.187,-0.191c0.029,-0.01 0.059,-0.015 0.09,-0.018c0.03,-0.001 0.03,-0.001 0.061,0.002Zm-7.415,-1.338c0.052,0.009 0.099,0.025 0.141,0.056c0.102,0.073 0.15,0.204 0.121,0.326c-0.011,0.046 -0.034,0.084 -0.057,0.125c-0.022,0.039 -0.042,0.079 -0.063,0.118c-0.027,0.053 -0.053,0.107 -0.078,0.161c-0.107,0.242 -0.191,0.492 -0.246,0.75l-0.007,0.03c-0.01,0.026 -0.011,0.032 -0.024,0.056c-0.035,0.063 -0.091,0.113 -0.158,0.14c-0.038,0.015 -0.079,0.023 -0.12,0.022c-0.031,0 -0.061,-0.005 -0.091,-0.014c-0.119,-0.038 -0.206,-0.147 -0.217,-0.271c-0.005,-0.058 0.01,-0.114 0.023,-0.169c0.02,-0.087 0.043,-0.173 0.068,-0.258c0.095,-0.32 0.229,-0.625 0.393,-0.915c0.008,-0.014 0.009,-0.014 0.02,-0.031c0.017,-0.021 0.021,-0.027 0.041,-0.046c0.037,-0.035 0.083,-0.06 0.133,-0.073c0.026,-0.007 0.033,-0.007 0.06,-0.01c0.031,0 0.031,0 0.061,0.003Zm6.049,-1.058c0.031,0.005 0.06,0.011 0.088,0.024c0.043,0.018 0.076,0.047 0.111,0.077c0.052,0.045 0.103,0.091 0.153,0.139c0.263,0.251 0.491,0.534 0.685,0.841c0.011,0.016 0.01,0.016 0.02,0.035c0.011,0.025 0.014,0.031 0.021,0.057c0.013,0.05 0.014,0.102 0.002,0.152c-0.031,0.132 -0.149,0.231 -0.285,0.24c-0.03,0.002 -0.061,-0.001 -0.091,-0.008c-0.06,-0.014 -0.115,-0.046 -0.157,-0.092c-0.025,-0.027 -0.043,-0.059 -0.064,-0.091c-0.024,-0.037 -0.048,-0.074 -0.074,-0.11c-0.034,-0.049 -0.068,-0.097 -0.104,-0.144c-0.163,-0.209 -0.344,-0.4 -0.545,-0.572l-0.023,-0.022c-0.034,-0.039 -0.061,-0.081 -0.075,-0.131c-0.037,-0.131 0.018,-0.275 0.133,-0.348c0.044,-0.029 0.092,-0.042 0.144,-0.048c0.03,-0.001 0.03,-0.001 0.061,0.001Zm-3.934,-0.712c0.051,0.01 0.098,0.027 0.141,0.058c0.024,0.018 0.046,0.04 0.065,0.065c0.074,0.1 0.081,0.239 0.017,0.346c-0.032,0.055 -0.079,0.093 -0.134,0.123c-0.07,0.029 -0.142,0.054 -0.213,0.083c-0.292,0.126 -0.568,0.286 -0.82,0.481l-0.025,0.018c-0.024,0.013 -0.03,0.018 -0.055,0.027c-0.067,0.026 -0.142,0.028 -0.211,0.005c-0.038,-0.013 -0.075,-0.034 -0.106,-0.06c-0.023,-0.021 -0.043,-0.044 -0.059,-0.07c-0.067,-0.106 -0.063,-0.245 0.009,-0.347c0.033,-0.046 0.078,-0.078 0.122,-0.111c0.069,-0.052 0.14,-0.102 0.212,-0.149c0.278,-0.183 0.575,-0.33 0.886,-0.447l0.02,-0.007c0.03,-0.009 0.058,-0.015 0.09,-0.018c0.031,0 0.03,0 0.061,0.003Zm1.367,-0.239c0.183,0.003 0.365,0.016 0.546,0.041c0.246,0.035 0.487,0.091 0.723,0.166l0.028,0.011c0.047,0.023 0.088,0.051 0.121,0.092c0.019,0.024 0.035,0.051 0.046,0.079c0.046,0.116 0.017,0.253 -0.072,0.34c-0.022,0.021 -0.047,0.039 -0.075,0.054c-0.045,0.023 -0.096,0.035 -0.147,0.034c-0.028,0 -0.034,-0.002 -0.061,-0.006c-0.067,-0.018 -0.133,-0.04 -0.2,-0.059c-0.163,-0.043 -0.328,-0.077 -0.495,-0.098c-0.157,-0.02 -0.314,-0.029 -0.472,-0.03l-0.031,-0.001c-0.051,-0.008 -0.099,-0.023 -0.142,-0.052c-0.026,-0.017 -0.048,-0.038 -0.068,-0.062c-0.019,-0.024 -0.035,-0.051 -0.046,-0.079c-0.048,-0.116 -0.02,-0.252 0.069,-0.34c0.037,-0.036 0.082,-0.063 0.131,-0.078c0.026,-0.007 0.033,-0.007 0.06,-0.011c0.043,-0.002 0.042,-0.001 0.085,-0.001Z" style="fill:url(#_Linear2);fill-rule:nonzero;"/></g><defs><linearGradient id="_Linear1" x1="0" y1="0" x2="1" y2="0" gradientUnits="userSpaceOnUse" gradientTransform="matrix(7.34785e-16,12,-12,7.34785e-16,8.25,0.187546)"><stop offset="0" style="stop-color:#404040;stop-opacity:1"/><stop offset="1" style="stop-color:#797979;stop-opacity:1"/></linearGradient><linearGradient id="_Linear2" x1="0" y1="0" x2="1" y2="0" gradientUnits="userSpaceOnUse" gradientTransform="matrix(7.34785e-16,12,-12,7.34785e-16,6.28285,0.187546)"><stop offset="0" style="stop-color:#404040;stop-opacity:1"/><stop offset="1" style="stop-color:#797979;stop-opacity:1"/></linearGradient></defs></svg>