<?xml version="1.0" encoding="UTF-8" standalone="no"?><!DOCTYPE svg PUBLIC "-//W3C//DTD SVG 1.1//EN" "http://www.w3.org/Graphics/SVG/1.1/DTD/svg11.dtd"><svg width="100%" height="100%" viewBox="0 0 13 13" version="1.1" xmlns="http://www.w3.org/2000/svg" xmlns:xlink="http://www.w3.org/1999/xlink" xml:space="preserve" xmlns:serif="http://www.serif.com/" style="fill-rule:evenodd;clip-rule:evenodd;stroke-linecap:round;stroke-linejoin:round;stroke-miterlimit:1.5;"><g id="operation-send-backward"><path d="M9.433,4.039c1.005,-0.004 2.01,0.007 3.015,0.056c0.03,0.005 0.058,0.01 0.086,0.022c0.084,0.035 0.149,0.106 0.175,0.193c0.009,0.029 0.012,0.058 0.013,0.088l0,7.797c-0.002,0.041 -0.007,0.079 -0.023,0.117c-0.035,0.084 -0.106,0.149 -0.193,0.175c-0.029,0.009 -0.058,0.011 -0.088,0.013l-7.797,0c-0.041,-0.002 -0.079,-0.008 -0.117,-0.023c-0.083,-0.035 -0.148,-0.107 -0.175,-0.193c-0.009,-0.029 -0.011,-0.058 -0.013,-0.089l0,-2.984l0.609,0l0,2.68l7.188,0l0,-7.188l-2.68,0l0,-0.664Z" style="fill:url(#_Linear1);"/><rect x="0.722" y="0.5" width="7.797" height="7.797" style="fill:none;stroke:#404040;stroke-width:0.63px;"/></g><defs><linearGradient id="_Linear1" x1="0" y1="0" x2="1" y2="0" gradientUnits="userSpaceOnUse" gradientTransform="matrix(7.34788e-16,12,-12,7.34788e-16,8.51918,0.5)"><stop offset="0" style="stop-color:#58d432;stop-opacity:1"/><stop offset="1" style="stop-color:#44ad24;stop-opacity:1"/></linearGradient></defs></svg>