<?xml version="1.0" encoding="UTF-8" standalone="no"?><!DOCTYPE svg PUBLIC "-//W3C//DTD SVG 1.1//EN" "http://www.w3.org/Graphics/SVG/1.1/DTD/svg11.dtd"><svg width="100%" height="100%" viewBox="0 0 21 20" version="1.1" xmlns="http://www.w3.org/2000/svg" xmlns:xlink="http://www.w3.org/1999/xlink" xml:space="preserve" xmlns:serif="http://www.serif.com/" style="fill-rule:evenodd;clip-rule:evenodd;stroke-linecap:round;stroke-linejoin:round;stroke-miterlimit:1.5;"><g id="operation-send-forward"><path d="M5.683,13.476l-4.754,0c-0.064,-0.003 -0.125,-0.012 -0.185,-0.037c-0.133,-0.055 -0.237,-0.169 -0.279,-0.307c-0.014,-0.047 -0.018,-0.092 -0.021,-0.141l0,-12.417c0.003,-0.048 0.007,-0.094 0.021,-0.141c0.042,-0.138 0.146,-0.252 0.279,-0.307c0.06,-0.025 0.121,-0.034 0.185,-0.037c4.155,0 8.315,-0.202 12.465,0.002c0.048,0.007 0.093,0.016 0.138,0.035c0.134,0.055 0.237,0.169 0.279,0.307c0.014,0.047 0.019,0.093 0.021,0.141l0,4.706c-0.323,0.002 -0.647,0.005 -0.97,0.007l0,-4.228l-11.447,0l0,11.447l4.268,0l0,0.97Z" style="fill:#dfdfdf;"/><rect x="7.138" y="6.783" width="12.417" height="12.417" style="fill:none;stroke:#58d432;stroke-width:1px;"/></g></svg>