<?xml version="1.0" encoding="UTF-8" standalone="no"?><!DOCTYPE svg PUBLIC "-//W3C//DTD SVG 1.1//EN" "http://www.w3.org/Graphics/SVG/1.1/DTD/svg11.dtd"><svg width="100%" height="100%" viewBox="0 0 16 15" version="1.1" xmlns="http://www.w3.org/2000/svg" xmlns:xlink="http://www.w3.org/1999/xlink" xml:space="preserve" xmlns:serif="http://www.serif.com/" style="fill-rule:evenodd;clip-rule:evenodd;stroke-linecap:round;stroke-linejoin:round;stroke-miterlimit:1.5;"><g id="operation-send-backward"><path d="M11.319,4.847c1.207,-0.006 2.413,0.008 3.618,0.067c0.036,0.006 0.07,0.012 0.104,0.027c0.1,0.041 0.178,0.127 0.21,0.231c0.011,0.035 0.014,0.07 0.016,0.106l0,9.357c-0.003,0.048 -0.009,0.094 -0.028,0.139c-0.042,0.101 -0.128,0.179 -0.232,0.21c-0.035,0.011 -0.069,0.014 -0.106,0.016l-9.356,0c-0.049,-0.002 -0.095,-0.009 -0.14,-0.028c-0.1,-0.041 -0.178,-0.128 -0.21,-0.231c-0.011,-0.036 -0.014,-0.07 -0.016,-0.106l0,-3.582l0.731,0l0,3.216l8.626,0l0,-8.625l-3.217,0l0,-0.797Z" style="fill:url(#_Linear1);"/><rect x="0.867" y="0.6" width="9.356" height="9.356" style="fill:none;stroke:#404040;stroke-width:0.75px;"/></g><defs><linearGradient id="_Linear1" x1="0" y1="0" x2="1" y2="0" gradientUnits="userSpaceOnUse" gradientTransform="matrix(8.81746e-16,14.4,-14.4,8.81746e-16,10.223,0.6)"><stop offset="0" style="stop-color:#58d432;stop-opacity:1"/><stop offset="1" style="stop-color:#44ad24;stop-opacity:1"/></linearGradient></defs></svg>