<?xml version="1.0" encoding="UTF-8" standalone="no"?>
<!DOCTYPE svg PUBLIC "-//W3C//DTD SVG 1.1//EN" "http://www.w3.org/Graphics/SVG/1.1/DTD/svg11.dtd">
<svg width="100%" height="100%" viewBox="0 0 25 24" version="1.1" xmlns="http://www.w3.org/2000/svg" xmlns:xlink="http://www.w3.org/1999/xlink" xml:space="preserve" xmlns:serif="http://www.serif.com/" style="fill-rule:evenodd;clip-rule:evenodd;stroke-linecap:round;stroke-linejoin:round;stroke-miterlimit:1.5;">
    <g transform="matrix(1,0,0,1,-425,-138)">
        <g transform="matrix(0.40625,0,0,0.222222,-517.891,0)">
            <g id="operation-send-to-front" transform="matrix(0.291664,0,0,0.533199,2230.48,521.586)">
                <g transform="matrix(8,0,0,8,-3084,-912)">
                    <path d="M447.375,153.349C448.109,153.337 448.843,153.335 449.575,153.38C449.641,153.392 449.659,153.392 449.722,153.416C449.888,153.479 450.021,153.612 450.084,153.778C450.112,153.851 450.12,153.923 450.125,154L450.125,162C450.12,162.077 450.112,162.149 450.084,162.222C450.021,162.388 449.888,162.521 449.722,162.584C449.649,162.612 449.577,162.62 449.5,162.625L441.5,162.625C441.423,162.62 441.351,162.612 441.278,162.584C441.112,162.521 440.979,162.388 440.916,162.222C440.888,162.149 440.88,162.077 440.875,162L440.875,159.875L442.125,159.875L442.125,161.375L448.875,161.375L448.875,154.625L447.375,154.625L447.375,153.349ZM427.625,146.625L425.5,146.625C425.423,146.62 425.351,146.612 425.278,146.584C425.112,146.521 424.979,146.388 424.916,146.222C424.888,146.149 424.88,146.077 424.875,146L424.875,138C424.88,137.923 424.888,137.851 424.916,137.778C424.979,137.612 425.112,137.479 425.278,137.416C425.351,137.388 425.423,137.38 425.5,137.375C428.192,137.375 430.888,137.217 433.575,137.38C433.641,137.392 433.659,137.392 433.722,137.416C433.888,137.479 434.021,137.612 434.084,137.778C434.112,137.851 434.12,137.923 434.125,138L434.125,140.098C433.708,140.102 433.292,140.106 432.875,140.109L432.875,138.625L426.125,138.625L426.125,145.375L427.625,145.375L427.625,146.625Z" style="fill:rgb(64,64,64);"/>
                </g>
                <g transform="matrix(1,0,0,1,-6.82121e-13,-448)">
                    <rect x="352" y="672" width="128" height="128" style="fill:none;stroke:rgb(88,212,50);stroke-width:10.55px;"/>
                </g>
            </g>
        </g>
    </g>
</svg>
