<?xml version="1.0" encoding="UTF-8" standalone="no"?>
<!DOCTYPE svg PUBLIC "-//W3C//DTD SVG 1.1//EN" "http://www.w3.org/Graphics/SVG/1.1/DTD/svg11.dtd">
<svg width="100%" height="100%" viewBox="0 0 27 24" version="1.1" xmlns="http://www.w3.org/2000/svg" xmlns:xlink="http://www.w3.org/1999/xlink" xml:space="preserve" xmlns:serif="http://www.serif.com/" style="fill-rule:evenodd;clip-rule:evenodd;stroke-linecap:round;stroke-linejoin:round;stroke-miterlimit:1.5;">
    <g transform="matrix(1,0,0,1,-544,-18)">
        <g transform="matrix(0.40625,0,0,0.222222,-517.891,0)">
            <g id="operation-rotate-cw" transform="matrix(0.419127,9.38344e-17,-5.13282e-17,0.766216,2456.63,-36.6324)">
                <g transform="matrix(5.87302,-7.19237e-16,7.19237e-16,5.87302,-2819.73,47.8095)">
                    <path d="M550.138,30.223L555.838,18.823C555.87,18.767 555.876,18.751 555.918,18.702C556.012,18.59 556.144,18.513 556.288,18.487C556.352,18.476 556.369,18.479 556.433,18.479C556.457,18.482 556.481,18.484 556.505,18.487C556.578,18.504 556.644,18.524 556.709,18.561C556.858,18.647 556.966,18.792 557.005,18.958C557.02,19.022 557.019,19.038 557.022,19.103L557.022,33.665L555.772,33.04L555.772,21.75L551.256,30.782L550.138,30.223Z" style="fill:rgb(64,64,64);"/>
                </g>
                <g transform="matrix(3.06162e-16,1,-1,3.06162e-16,1120,-160)">
                    <path d="M448,608L384,736L448,736L448,608Z" style="fill:none;stroke:rgb(88,212,50);stroke-width:7.34px;"/>
                </g>
                <g transform="matrix(3.80952,-9.33064e-16,-9.33064e-16,-3.80952,-343.619,3900.19)">
                    <g transform="matrix(0.75,0,0,0.75,32,-36)">
                        <path d="M240,1344C248.837,1344 256,1336.84 256,1328" style="fill:none;stroke:rgb(64,64,64);stroke-width:2.57px;"/>
                    </g>
                    <g transform="matrix(-5.35783e-17,-0.125,0.125,-5.35783e-17,52,998)">
                        <path d="M288,1344L320,1376L288,1408" style="fill:none;stroke:rgb(64,64,64);stroke-width:15.42px;"/>
                    </g>
                </g>
            </g>
        </g>
    </g>
</svg>
