<?xml version="1.0" encoding="UTF-8" standalone="no"?>
<!DOCTYPE svg PUBLIC "-//W3C//DTD SVG 1.1//EN" "http://www.w3.org/Graphics/SVG/1.1/DTD/svg11.dtd">
<svg width="100%" height="100%" viewBox="0 0 27 26" version="1.1" xmlns="http://www.w3.org/2000/svg" xmlns:xlink="http://www.w3.org/1999/xlink" xml:space="preserve" xmlns:serif="http://www.serif.com/" style="fill-rule:evenodd;clip-rule:evenodd;stroke-linejoin:round;stroke-miterlimit:1.41421;">
    <g transform="matrix(1,0,0,1,-724,-197)">
        <g transform="matrix(0.40625,0,0,0.222222,-517.891,0)">
            <g id="operation-xor" transform="matrix(0.615385,0,0,1.125,2233.58,779.625)">
                <g transform="matrix(4,0,0,4,-1558,-693)">
                    <path d="M743.223,205.263C745.337,205.252 747.45,205.274 749.561,205.378C749.623,205.387 749.681,205.399 749.739,205.423C749.911,205.494 750.044,205.641 750.098,205.819C750.116,205.879 750.122,205.938 750.125,206L750.125,222C750.121,222.083 750.11,222.162 750.077,222.239C750.006,222.411 749.859,222.544 749.681,222.598C749.621,222.616 749.562,222.622 749.5,222.625L733.5,222.625C733.417,222.621 733.338,222.61 733.261,222.577C733.089,222.506 732.956,222.359 732.902,222.181C732.884,222.121 732.878,222.062 732.875,222L732.875,215.767C732.983,215.806 733.095,215.834 733.21,215.852C733.348,215.874 733.487,215.876 733.627,215.874C733.754,215.873 733.88,215.869 734.006,215.862C734.046,215.86 734.085,215.858 734.125,215.855L734.125,221.375L748.875,221.375L748.875,206.625L743.355,206.625C743.358,206.585 743.36,206.546 743.362,206.506C743.369,206.38 743.373,206.253 743.374,206.127C743.376,205.987 743.374,205.848 743.352,205.71C743.328,205.556 743.285,205.405 743.223,205.263Z" style="fill:rgb(64,64,64);"/>
                </g>
                <g transform="matrix(4,0,0,4,-1558,-693)">
                    <path d="M731.677,214.431C731.186,214.325 730.705,214.177 730.241,213.987C729.245,213.58 728.329,212.984 727.55,212.242C726.799,211.526 726.177,210.674 725.726,209.738C725.341,208.94 725.082,208.083 724.959,207.205C724.827,206.264 724.851,205.302 725.029,204.369C725.176,203.606 725.427,202.863 725.772,202.168C726.638,200.427 728.095,199.004 729.856,198.181C730.595,197.836 731.382,197.598 732.188,197.474C732.586,197.414 732.986,197.383 733.389,197.376C733.5,197.375 733.5,197.375 733.611,197.376C734.014,197.383 734.414,197.414 734.812,197.474C735.618,197.598 736.405,197.836 737.144,198.181C738.905,199.004 740.362,200.427 741.228,202.168C741.544,202.805 741.781,203.481 741.931,204.177C741.815,204.15 741.696,204.134 741.576,204.127C741.261,204.12 740.945,204.115 740.63,204.11C740.503,203.632 740.328,203.167 740.108,202.724C739.368,201.235 738.121,200.018 736.615,199.314C735.984,199.019 735.311,198.815 734.623,198.71C734.283,198.658 733.94,198.632 733.595,198.626C733.5,198.625 733.5,198.625 733.405,198.626C733.06,198.632 732.717,198.658 732.377,198.71C731.689,198.815 731.016,199.019 730.385,199.314C728.879,200.018 727.632,201.235 726.892,202.724C726.596,203.318 726.382,203.952 726.257,204.604C726.104,205.402 726.084,206.226 726.197,207.031C726.302,207.781 726.524,208.514 726.852,209.196C727.238,209.996 727.77,210.724 728.413,211.338C729.079,211.972 729.862,212.482 730.714,212.83C731.006,212.949 731.306,213.05 731.612,213.13C731.615,213.445 731.62,213.761 731.627,214.076C731.634,214.196 731.65,214.315 731.677,214.431Z" style="fill:rgb(64,64,64);"/>
                </g>
                <g transform="matrix(1,0,0,1,96,-509)">
                    <path d="M1280.18,664.773C1280.48,664.806 1280.76,664.867 1281.04,664.993C1281.69,665.292 1282.2,665.872 1282.4,666.563C1282.47,666.794 1282.49,667.027 1282.5,667.267L1282.5,669.395C1283.04,669.35 1283.59,669.289 1284.13,669.213C1284.43,669.171 1284.73,669.118 1285.03,669.081C1285.2,669.072 1285.2,669.072 1285.38,669.075C1285.93,669.125 1286.43,669.303 1286.85,669.657C1287.03,669.81 1287.19,669.99 1287.33,670.188C1287.93,671.101 1287.86,672.34 1287.16,673.18C1286.85,673.545 1286.44,673.818 1285.99,673.959C1285.75,674.033 1285.49,674.065 1285.25,674.102C1284.82,674.168 1284.39,674.226 1283.96,674.275C1283.08,674.375 1282.21,674.441 1281.33,674.475C1281.04,674.486 1280.74,674.494 1280.44,674.497C1280.19,674.501 1279.93,674.512 1279.67,674.479C1278.81,674.365 1278.06,673.796 1277.71,673C1277.59,672.734 1277.54,672.459 1277.51,672.171C1277.45,670.537 1277.5,668.902 1277.5,667.267C1277.51,667.027 1277.53,666.794 1277.6,666.563C1277.79,665.931 1278.22,665.388 1278.8,665.073C1279.07,664.928 1279.35,664.846 1279.64,664.792C1279.83,664.773 1280,664.767 1280.18,664.773ZM1304.57,658.192C1305.05,658.241 1305.5,658.386 1305.89,658.676C1306.78,659.328 1307.13,660.516 1306.76,661.546C1306.67,661.769 1306.56,661.981 1306.42,662.173C1306.15,662.532 1305.83,662.862 1305.53,663.193C1305.07,663.703 1304.59,664.2 1304.1,664.682C1302.3,666.434 1300.31,668.006 1298.18,669.322C1298.02,669.41 1298.02,669.409 1297.86,669.487C1297.47,669.641 1297.06,669.721 1296.64,669.683C1296.34,669.656 1296.05,669.576 1295.78,669.447C1295.52,669.318 1295.27,669.141 1295.07,668.927C1294.26,668.09 1294.14,666.767 1294.79,665.802C1295,665.49 1295.27,665.238 1295.59,665.042C1295.99,664.788 1296.39,664.528 1296.78,664.26C1298.23,663.24 1299.6,662.111 1300.86,660.855C1301.27,660.438 1301.68,660.008 1302.07,659.566C1302.26,659.355 1302.44,659.138 1302.63,658.93C1302.76,658.807 1302.76,658.807 1302.9,658.695C1303.3,658.41 1303.72,658.25 1304.21,658.194C1304.39,658.187 1304.39,658.187 1304.57,658.192ZM1280.18,642.273C1280.48,642.306 1280.76,642.367 1281.04,642.493C1281.64,642.766 1282.11,643.276 1282.34,643.893C1282.43,644.12 1282.47,644.349 1282.49,644.589C1282.62,647.979 1282.5,651.374 1282.5,654.767C1282.48,655.373 1282.29,655.941 1281.89,656.404C1281.69,656.629 1281.46,656.819 1281.2,656.961C1280.29,657.456 1279.14,657.332 1278.36,656.656C1278.18,656.5 1278.03,656.319 1277.9,656.119C1277.67,655.76 1277.55,655.366 1277.51,654.945C1277.38,651.555 1277.5,648.16 1277.5,644.767C1277.51,644.527 1277.53,644.294 1277.6,644.063C1277.79,643.431 1278.22,642.888 1278.8,642.573C1279.07,642.428 1279.35,642.346 1279.64,642.292C1279.83,642.273 1280,642.267 1280.18,642.273ZM1312.01,637.5C1312.21,637.494 1312.43,637.53 1312.63,637.581C1313.69,637.855 1314.46,638.822 1314.5,639.919C1314.51,640.389 1314.49,640.862 1314.48,641.331C1314.41,642.788 1314.27,644.237 1314.03,645.676C1313.76,647.345 1313.35,648.985 1312.84,650.597C1312.78,650.766 1312.78,650.765 1312.71,650.928C1312.51,651.302 1312.26,651.626 1311.91,651.873C1311.67,652.046 1311.39,652.175 1311.11,652.253C1309.92,652.572 1308.64,651.954 1308.16,650.826C1307.92,650.263 1307.91,649.665 1308.07,649.081C1308.22,648.63 1308.35,648.178 1308.48,647.722C1308.94,645.961 1309.26,644.174 1309.41,642.358C1309.3,642.324 1309.31,642.321 1309.19,642.274C1308.82,642.085 1308.49,641.839 1308.23,641.498C1307.57,640.62 1307.57,639.38 1308.23,638.502C1308.37,638.311 1308.54,638.141 1308.74,637.999C1309.13,637.706 1309.57,637.558 1310.06,637.506C1310.71,637.483 1311.35,637.477 1312.01,637.5ZM1297.91,637.506C1298.51,637.571 1299.07,637.799 1299.5,638.232C1300.37,639.1 1300.47,640.515 1299.73,641.498C1299.56,641.736 1299.34,641.942 1299.09,642.103C1298.73,642.334 1298.33,642.448 1297.91,642.494C1294.52,642.615 1291.13,642.5 1287.73,642.5C1287.31,642.485 1286.91,642.398 1286.54,642.194C1286.33,642.08 1286.13,641.936 1285.96,641.768C1285.24,641.038 1285.03,639.901 1285.46,638.961C1285.58,638.691 1285.76,638.443 1285.96,638.232C1286.4,637.799 1286.95,637.571 1287.56,637.506C1291.01,637.383 1294.46,637.383 1297.91,637.506Z" style="fill:rgb(64,64,64);fill-rule:nonzero;"/>
                </g>
            </g>
        </g>
    </g>
</svg>
