<?xml version="1.0" encoding="UTF-8" standalone="no"?>
<!DOCTYPE svg PUBLIC "-//W3C//DTD SVG 1.1//EN" "http://www.w3.org/Graphics/SVG/1.1/DTD/svg11.dtd">
<svg width="100%" height="100%" viewBox="0 0 27 26" version="1.1" xmlns="http://www.w3.org/2000/svg" xmlns:xlink="http://www.w3.org/1999/xlink" xml:space="preserve" xmlns:serif="http://www.serif.com/" style="fill-rule:evenodd;clip-rule:evenodd;stroke-linecap:round;stroke-linejoin:round;stroke-miterlimit:1.5;">
    <g transform="matrix(1,0,0,1,-544,-197)">
        <g transform="matrix(0.40625,0,0,0.222222,-517.891,0)">
            <g id="option-snap" transform="matrix(2.46154,0,0,4.5,1487.78,-1543.59)">
                <g transform="matrix(-0.0543633,-0.0543633,0.0543633,-0.0543633,462.46,631.125)">
                    <path d="M576,704L576,832C576,832 575.342,896 640,896C704.658,896 704,832 704,832L704,704L768,704L768,832C768,832 769.316,960 640,960C510.684,960 512,832 512,832L512,704L576,704Z" style="fill:none;stroke:rgb(64,64,64);stroke-width:16.26px;"/>
                </g>
                <g transform="matrix(-0.0543633,-0.0543633,0.0543633,-0.0543633,462.46,631.125)">
                    <path d="M704,768L768,768" style="fill:none;stroke:rgb(64,64,64);stroke-width:16.26px;"/>
                </g>
                <g transform="matrix(-0.0543633,-0.0543633,0.0543633,-0.0543633,462.46,631.125)">
                    <path d="M512,768L576,768" style="fill:none;stroke:rgb(64,64,64);stroke-width:16.26px;"/>
                </g>
            </g>
        </g>
    </g>
</svg>
