<?xml version="1.0" encoding="UTF-8" standalone="no"?><!DOCTYPE svg PUBLIC "-//W3C//DTD SVG 1.1//EN" "http://www.w3.org/Graphics/SVG/1.1/DTD/svg11.dtd"><svg width="100%" height="100%" viewBox="0 0 17 16" version="1.1" xmlns="http://www.w3.org/2000/svg" xmlns:xlink="http://www.w3.org/1999/xlink" xml:space="preserve" xmlns:serif="http://www.serif.com/" style="fill-rule:evenodd;clip-rule:evenodd;stroke-linecap:round;stroke-linejoin:round;stroke-miterlimit:1.5;"><g id="option-snap"><path d="M7.163,12.912l4.175,-4.175c0,0 2.109,-2.066 0,-4.175c-2.109,-2.109 -4.175,0 -4.175,0l-4.175,4.175l-2.088,-2.087l4.175,-4.175c0,0 4.132,-4.218 8.35,0c4.218,4.218 0,8.35 0,8.35l-4.175,4.175l-2.087,-2.088Z" style="fill:none;stroke:url(#_Linear1);stroke-width:0.75px;"/><path d="M5.075,6.65l-2.087,-2.088" style="fill:none;stroke:url(#_Linear2);stroke-width:0.75px;"/><path d="M11.338,12.912l-2.088,-2.087" style="fill:none;stroke:url(#_Linear3);stroke-width:0.75px;"/></g><defs><linearGradient id="_Linear1" x1="0" y1="0" x2="1" y2="0" gradientUnits="userSpaceOnUse" gradientTransform="matrix(1.77636e-15,12.4216,-12.4216,-1.77636e-15,36.6,1.37837)"><stop offset="0" style="stop-color:#e1e1e1;stop-opacity:1"/><stop offset="1" style="stop-color:#9b9b9b;stop-opacity:1"/></linearGradient><linearGradient id="_Linear2" x1="0" y1="0" x2="1" y2="0" gradientUnits="userSpaceOnUse" gradientTransform="matrix(1.77636e-15,12.4216,-12.4216,-1.77636e-15,36.6,1.37837)"><stop offset="0" style="stop-color:#e1e1e1;stop-opacity:1"/><stop offset="1" style="stop-color:#9b9b9b;stop-opacity:1"/></linearGradient><linearGradient id="_Linear3" x1="0" y1="0" x2="1" y2="0" gradientUnits="userSpaceOnUse" gradientTransform="matrix(1.77636e-15,12.4216,-12.4216,-1.77636e-15,36.6,1.37837)"><stop offset="0" style="stop-color:#e1e1e1;stop-opacity:1"/><stop offset="1" style="stop-color:#9b9b9b;stop-opacity:1"/></linearGradient></defs></svg>