<?xml version="1.0" encoding="UTF-8" standalone="no"?>
<!DOCTYPE svg PUBLIC "-//W3C//DTD SVG 1.1//EN" "http://www.w3.org/Graphics/SVG/1.1/DTD/svg11.dtd">
<svg width="100%" height="100%" viewBox="0 0 25 26" version="1.1" xmlns="http://www.w3.org/2000/svg" xmlns:xlink="http://www.w3.org/1999/xlink" xml:space="preserve" style="fill-rule:evenodd;clip-rule:evenodd;stroke-linecap:round;stroke-linejoin:round;stroke-miterlimit:1.5;">
    <g transform="matrix(1,0,0,1,-305,-197)">
        <g transform="matrix(0.28125,0,0,0.222222,-270.078,0)">
            <g id="pen" transform="matrix(0.288288,0,0,0.364865,2028.05,718.784)">
                <g transform="matrix(1,0,0,1,-1.36424e-12,-448)">
                    <path d="M64,1216L96,1152L320,928L352,960L128,1184L64,1216Z" style="fill:none;stroke:rgb(64,64,64);stroke-width:7.71px;"/>
                </g>
                <g transform="matrix(0.5,0,0,0.5,-128,160)">
                    <path d="M384,1216L416,1184" style="fill:none;stroke:rgb(64,64,64);stroke-width:15.42px;"/>
                </g>
                <g transform="matrix(0.25,0,0,0.25,143,264)">
                    <path d="M610,962L544,896L224,1216L256,1248L544,960L578,994" style="fill:none;stroke:rgb(64,64,64);stroke-width:30.83px;"/>
                </g>
                <g transform="matrix(-0.25,-3.06162e-17,3.06162e-17,-0.25,472,728)">
                    <path d="M528,912L448,992L480,1024L560,944L528,912Z" style="fill:none;stroke:rgb(64,64,64);stroke-width:30.83px;"/>
                </g>
            </g>
        </g>
    </g>
</svg>
