<?xml version="1.0" encoding="UTF-8" standalone="no"?>
<!DOCTYPE svg PUBLIC "-//W3C//DTD SVG 1.1//EN" "http://www.w3.org/Graphics/SVG/1.1/DTD/svg11.dtd">
<svg width="100%" height="100%" viewBox="0 0 25 26" version="1.1" xmlns="http://www.w3.org/2000/svg" xmlns:xlink="http://www.w3.org/1999/xlink" xml:space="preserve" style="fill-rule:evenodd;clip-rule:evenodd;stroke-linecap:round;stroke-linejoin:round;stroke-miterlimit:1.5;">
    <g transform="matrix(1,0,0,1,-305,-137)">
        <g transform="matrix(0.28125,0,0,0.222222,-270.078,0)">
            <g id="pencil" transform="matrix(0.296296,0,0,0.375,2027.54,441)">
                <g transform="matrix(1,0,0,1,-1.36424e-12,-448)">
                    <path d="M64,1216L96,1152L320,928L352,960L128,1184L64,1216Z" style="fill:none;stroke:rgb(64,64,64);stroke-width:7.5px;"/>
                </g>
                <g transform="matrix(-0.333333,0,0,-0.333333,256,991.333)">
                    <path d="M384,768L416,768L416,800L448,800L448,832L480,832L480,864" style="fill:none;stroke:rgb(64,64,64);stroke-width:22.5px;"/>
                </g>
                <g transform="matrix(1,0,0,1,-6.82121e-13,-448)">
                    <path d="M74.889,1194.22L85.778,1205.11" style="fill:none;stroke:rgb(64,64,64);stroke-width:7.5px;"/>
                </g>
                <g transform="matrix(1,0,0,1,-6.82121e-13,-448)">
                    <path d="M288,960L320,992" style="fill:none;stroke:rgb(64,64,64);stroke-width:7.5px;"/>
                </g>
            </g>
        </g>
    </g>
</svg>
