<?xml version="1.0" encoding="UTF-8" standalone="no"?><!DOCTYPE svg PUBLIC "-//W3C//DTD SVG 1.1//EN" "http://www.w3.org/Graphics/SVG/1.1/DTD/svg11.dtd"><svg width="100%" height="100%" viewBox="0 0 22 18" version="1.1" xmlns="http://www.w3.org/2000/svg" xmlns:xlink="http://www.w3.org/1999/xlink" xml:space="preserve" style="fill-rule:evenodd;clip-rule:evenodd;stroke-linecap:round;stroke-linejoin:round;stroke-miterlimit:1.5;"><path id="rotate" d="M14.777,8.8c0,-2.954 -2.395,-5.349 -5.348,-5.349c-2.952,0 -5.349,2.397 -5.349,5.349c0,2.952 2.397,5.349 5.349,5.349c1.418,0 2.779,-0.564 3.782,-1.567l2.036,2.036c-1.543,1.544 -3.636,2.411 -5.818,2.411c-4.542,0 -8.229,-3.688 -8.229,-8.229c0,-4.541 3.687,-8.229 8.229,-8.229c4.544,0 8.228,3.684 8.228,8.229l2.743,0l-4.114,4.114l-4.115,-4.114l2.606,0Z" style="fill:#fff;stroke:#404040;stroke-width:1px;"/></svg>