<?xml version="1.0" encoding="UTF-8" standalone="no"?>
<!DOCTYPE svg PUBLIC "-//W3C//DTD SVG 1.1//EN" "http://www.w3.org/Graphics/SVG/1.1/DTD/svg11.dtd">
<svg width="100%" height="100%" viewBox="0 0 25 24" version="1.1" xmlns="http://www.w3.org/2000/svg" xmlns:xlink="http://www.w3.org/1999/xlink" xml:space="preserve" style="fill-rule:evenodd;clip-rule:evenodd;stroke-linecap:round;stroke-linejoin:round;stroke-miterlimit:1.5;">
    <g transform="matrix(1,0,0,1,-545,-78)">
        <g transform="matrix(0.28125,0,0,0.222222,-270.078,0)">
            <g id="rotate-ccw" transform="matrix(0.605405,9.38344e-17,-7.41408e-17,0.766216,2668.51,233.368)">
                <g transform="matrix(5.87302,-7.19237e-16,7.19237e-16,5.87302,-2821.63,-304.571)">
                    <path d="M557.659,95.568L567.759,100.618C567.817,100.653 567.865,100.692 567.897,100.754C567.975,100.906 567.913,101.098 567.761,101.176C567.715,101.199 567.67,101.206 567.619,101.21L557.605,101.21C557.641,101.108 557.654,101.005 557.659,100.897L557.659,100.585L566.295,100.585L557.659,96.267L557.659,95.568ZM545.512,99.426L545.512,90C545.515,89.957 545.514,89.945 545.527,89.904C545.557,89.81 545.633,89.734 545.726,89.703C545.768,89.69 545.779,89.691 545.823,89.688C545.839,89.689 545.855,89.69 545.871,89.691C545.919,89.702 545.919,89.702 545.964,89.72L549.484,91.481L549.205,92.04L546.137,90.506L546.137,98.176L545.512,99.426Z" style="fill:rgb(64,64,64);"/>
                </g>
                <g transform="matrix(1,-2.44929e-16,2.44929e-16,1,-5.18696e-13,-448)">
                    <path d="M448,608L384,736L448,736L448,608Z" style="fill:none;stroke:rgb(88,212,50);stroke-width:3.67px;"/>
                </g>
                <g transform="matrix(-2.33266e-16,-3.80952,3.80952,-2.33266e-16,-3181.71,1062.1)">
                    <g transform="matrix(0.75,0,0,0.75,32,-36)">
                        <path d="M240,1344C248.837,1344 256,1336.84 256,1328" style="fill:none;stroke:rgb(64,64,64);stroke-width:1.28px;"/>
                    </g>
                    <g transform="matrix(-5.35783e-17,-0.125,0.125,-5.35783e-17,52,998)">
                        <path d="M288,1344L320,1376L288,1408" style="fill:none;stroke:rgb(64,64,64);stroke-width:7.71px;"/>
                    </g>
                </g>
            </g>
        </g>
    </g>
</svg>
