<?xml version="1.0" encoding="UTF-8" standalone="no"?>
<!DOCTYPE svg PUBLIC "-//W3C//DTD SVG 1.1//EN" "http://www.w3.org/Graphics/SVG/1.1/DTD/svg11.dtd">
<svg width="100%" height="100%" viewBox="0 0 25 24" version="1.1" xmlns="http://www.w3.org/2000/svg" xmlns:xlink="http://www.w3.org/1999/xlink" xml:space="preserve" style="fill-rule:evenodd;clip-rule:evenodd;stroke-linecap:round;stroke-linejoin:round;stroke-miterlimit:1.5;">
    <g transform="matrix(1,0,0,1,-545,-18)">
        <g transform="matrix(0.28125,0,0,0.222222,-270.078,0)">
            <g id="rotate-cw" transform="matrix(0.605405,9.38344e-17,-7.41408e-17,0.766216,2667.36,-36.6324)">
                <g transform="matrix(5.87302,-7.19237e-16,7.19237e-16,5.87302,-2819.73,47.8095)">
                    <path d="M549.999,31.201L556.118,18.963C556.162,18.89 556.216,18.833 556.299,18.806C556.341,18.792 556.353,18.794 556.396,18.79C556.412,18.791 556.429,18.793 556.445,18.794C556.487,18.804 556.499,18.804 556.538,18.824C556.612,18.861 556.669,18.927 556.694,19.006C556.708,19.048 556.706,19.059 556.71,19.103L556.71,34.557L556.085,34.244L556.085,20.426L550.558,31.481L549.999,31.201Z" style="fill:rgb(64,64,64);"/>
                </g>
                <g transform="matrix(3.06162e-16,1,-1,3.06162e-16,1120,-160)">
                    <path d="M448,608L384,736L448,736L448,608Z" style="fill:none;stroke:rgb(88,212,50);stroke-width:3.67px;"/>
                </g>
                <g transform="matrix(3.80952,-9.33064e-16,-9.33064e-16,-3.80952,-343.619,3900.19)">
                    <g transform="matrix(0.75,0,0,0.75,32,-36)">
                        <path d="M240,1344C248.837,1344 256,1336.84 256,1328" style="fill:none;stroke:rgb(64,64,64);stroke-width:1.28px;"/>
                    </g>
                    <g transform="matrix(-5.35783e-17,-0.125,0.125,-5.35783e-17,52,998)">
                        <path d="M288,1344L320,1376L288,1408" style="fill:none;stroke:rgb(64,64,64);stroke-width:7.71px;"/>
                    </g>
                </g>
            </g>
        </g>
    </g>
</svg>
