<?xml version="1.0" encoding="UTF-8" standalone="no"?><!DOCTYPE svg PUBLIC "-//W3C//DTD SVG 1.1//EN" "http://www.w3.org/Graphics/SVG/1.1/DTD/svg11.dtd"><svg width="100%" height="100%" viewBox="0 0 22 20" version="1.1" xmlns="http://www.w3.org/2000/svg" xmlns:xlink="http://www.w3.org/1999/xlink" xml:space="preserve" style="fill-rule:evenodd;clip-rule:evenodd;stroke-linecap:round;stroke-linejoin:round;stroke-miterlimit:1.5;"><g id="rotate-cw"><path d="M4.911,9.778l4.56,-9.119c0.025,-0.045 0.03,-0.058 0.063,-0.098c0.075,-0.089 0.181,-0.151 0.296,-0.171c0.052,-0.009 0.065,-0.007 0.116,-0.007c0.02,0.002 0.039,0.004 0.058,0.007c0.058,0.013 0.111,0.029 0.164,0.059c0.118,0.068 0.205,0.185 0.236,0.318c0.012,0.05 0.011,0.064 0.014,0.115l0,11.65l-1,-0.5l0,-9.032l-3.613,7.226l-0.894,-0.448Z" style="fill:#404040;"/><path d="M18.636,18.318l-17.436,-8.718l0,8.718l17.436,0Z" style="fill:none;stroke:#58d432;stroke-width:1px;"/><g><path d="M12.097,5.968c3.439,0 6.227,2.788 6.227,6.227" style="fill:none;stroke:#404040;stroke-width:1px;"/><path d="M16.249,11.157l2.075,2.075l2.076,-2.075" style="fill:none;stroke:#404040;stroke-width:1px;"/></g></g></svg>