<?xml version="1.0" encoding="UTF-8" standalone="no"?><!DOCTYPE svg PUBLIC "-//W3C//DTD SVG 1.1//EN" "http://www.w3.org/Graphics/SVG/1.1/DTD/svg11.dtd"><svg width="100%" height="100%" viewBox="0 0 20 20" version="1.1" xmlns="http://www.w3.org/2000/svg" xmlns:xlink="http://www.w3.org/1999/xlink" xml:space="preserve" style="fill-rule:evenodd;clip-rule:evenodd;stroke-linecap:round;stroke-linejoin:round;stroke-miterlimit:1.5;"><g id="rotate-ccw"><path d="M10.877,14.15l7.442,3.721c0.017,0.009 0.034,0.018 0.05,0.029c0.065,0.042 0.12,0.1 0.159,0.167c0.109,0.189 0.081,0.435 -0.069,0.594c-0.04,0.042 -0.087,0.077 -0.139,0.104c-0.072,0.036 -0.146,0.048 -0.225,0.053l-7.304,0l0.007,-0.018c0.031,-0.093 0.054,-0.189 0.066,-0.286c0.012,-0.087 0.01,-0.109 0.013,-0.196l0,-0.5l5.1,0l-5.1,-2.55l0,-1.118Zm-10.718,1.814l0,-6.364c0.004,-0.058 0.01,-0.111 0.029,-0.166c0.051,-0.144 0.167,-0.258 0.311,-0.307c0.055,-0.019 0.109,-0.024 0.166,-0.027c0.019,0.001 0.038,0.003 0.057,0.004c0.018,0.003 0.037,0.006 0.055,0.01c0.049,0.012 0.06,0.019 0.106,0.039l2.146,1.073l-0.448,0.894l-1.422,-0.711l0,3.555l-1,2Z" style="fill:#404040;"/><path d="M9.377,0.882l-8.718,17.436l8.718,0l0,-17.436Z" style="fill:none;stroke:#58d432;stroke-width:1px;"/><g><path d="M19.341,13.751c0,-3.439 -2.788,-6.227 -6.227,-6.227" style="fill:none;stroke:#404040;stroke-width:1px;"/><path d="M14.151,9.6l-2.075,-2.076l2.075,-2.075" style="fill:none;stroke:#404040;stroke-width:1px;"/></g></g></svg>