<?xml version="1.0" encoding="UTF-8" standalone="no"?>
<!DOCTYPE svg PUBLIC "-//W3C//DTD SVG 1.1//EN" "http://www.w3.org/Graphics/SVG/1.1/DTD/svg11.dtd">
<svg width="100%" height="100%" viewBox="0 0 21 26" version="1.1" xmlns="http://www.w3.org/2000/svg" xmlns:xlink="http://www.w3.org/1999/xlink" xml:space="preserve" style="fill-rule:evenodd;clip-rule:evenodd;stroke-linejoin:round;stroke-miterlimit:1.41421;">
    <g transform="matrix(1,0,0,1,-367,-197)">
        <g transform="matrix(0.28125,0,0,0.222222,-270.078,0)">
            <g id="text" transform="matrix(7.61905,0,0,9.64286,2040.95,-5468.25)">
                <path d="M38.724,659.188L38.758,659.195L38.792,659.205L38.824,659.22L38.854,659.238L38.882,659.26L38.907,659.285L38.928,659.312L38.947,659.342L38.961,659.375L38.972,659.408L38.978,659.443L38.98,659.478L38.98,662.358L38.978,662.393L38.972,662.428L38.961,662.461L38.947,662.494L38.928,662.524L38.907,662.551L38.882,662.576L38.854,662.598L38.824,662.616L38.792,662.631L38.758,662.641L38.724,662.648L38.688,662.65L37.648,662.65L37.613,662.648L37.579,662.641L37.545,662.631L37.513,662.616L37.483,662.598L37.455,662.577L37.43,662.552L37.409,662.524L37.39,662.494L37.376,662.462L37.365,662.429L37.021,661.05L35.46,661.05L35.46,669.159L36.826,669.432L36.858,669.44L36.889,669.452L36.919,669.468L36.946,669.487L36.971,669.509L36.994,669.533L37.014,669.56L37.03,669.589L37.043,669.62L37.052,669.652L37.058,669.685L37.06,669.718L37.06,670.678L37.058,670.713L37.052,670.748L37.041,670.781L37.027,670.814L37.008,670.844L36.987,670.871L36.962,670.896L36.934,670.918L36.904,670.936L36.872,670.951L36.838,670.961L36.804,670.968L36.768,670.97L31.888,670.97L31.853,670.968L31.819,670.961L31.785,670.951L31.753,670.936L31.723,670.918L31.695,670.896L31.67,670.871L31.648,670.844L31.63,670.814L31.616,670.781L31.605,670.748L31.599,670.713L31.597,670.678L31.597,669.718L31.599,669.685L31.604,669.652L31.614,669.62L31.627,669.589L31.643,669.56L31.663,669.533L31.685,669.509L31.711,669.487L31.738,669.468L31.768,669.452L31.799,669.44L31.831,669.432L33.197,669.159L33.197,661.05L31.636,661.05L31.291,662.429L31.281,662.462L31.266,662.494L31.248,662.524L31.226,662.552L31.201,662.577L31.174,662.598L31.144,662.616L31.112,662.631L31.078,662.641L31.043,662.648L31.008,662.65L29.968,662.65L29.933,662.648L29.899,662.641L29.865,662.631L29.833,662.616L29.803,662.598L29.775,662.576L29.75,662.551L29.728,662.524L29.71,662.494L29.696,662.461L29.685,662.428L29.679,662.393L29.677,662.358L29.677,659.478L29.679,659.443L29.685,659.408L29.696,659.375L29.71,659.342L29.728,659.312L29.75,659.285L29.775,659.26L29.803,659.238L29.833,659.22L29.865,659.205L29.899,659.195L29.933,659.188L29.968,659.186L38.688,659.186L38.724,659.188ZM29.968,659.478L29.968,662.358L31.008,662.358L31.408,660.758L33.488,660.758L33.488,669.398L31.888,669.718L31.888,670.678L36.768,670.678L36.768,669.718L35.168,669.398L35.168,660.758L37.248,660.758L37.648,662.358L38.688,662.358L38.688,659.478L29.968,659.478Z"/>
            </g>
        </g>
    </g>
</svg>
