<?xml version="1.0" encoding="UTF-8" standalone="no"?><!DOCTYPE svg PUBLIC "-//W3C//DTD SVG 1.1//EN" "http://www.w3.org/Graphics/SVG/1.1/DTD/svg11.dtd"><svg width="100%" height="100%" viewBox="0 0 22 21" version="1.1" xmlns="http://www.w3.org/2000/svg" xmlns:xlink="http://www.w3.org/1999/xlink" xml:space="preserve" style="fill-rule:evenodd;clip-rule:evenodd;stroke-linecap:round;stroke-linejoin:round;stroke-miterlimit:1.5;"><g id="to-front"><path d="M18.7,13.079c0.587,-0.009 1.174,-0.011 1.76,0.025c0.053,0.009 0.067,0.009 0.117,0.028c0.133,0.051 0.24,0.158 0.291,0.291c0.022,0.058 0.028,0.115 0.032,0.177l0,6.4c-0.004,0.062 -0.01,0.119 -0.032,0.177c-0.051,0.133 -0.158,0.24 -0.291,0.291c-0.058,0.022 -0.115,0.028 -0.177,0.032l-6.4,0c-0.062,-0.004 -0.119,-0.01 -0.177,-0.032c-0.133,-0.051 -0.24,-0.158 -0.291,-0.291c-0.022,-0.058 -0.028,-0.115 -0.032,-0.177l0,-1.7l1,0l0,1.2l5.4,0l0,-5.4l-1.2,0l0,-1.021Zm-15.8,-5.379l-1.7,0c-0.062,-0.004 -0.119,-0.01 -0.177,-0.032c-0.133,-0.051 -0.24,-0.158 -0.29,-0.291c-0.023,-0.058 -0.029,-0.115 -0.033,-0.177l0,-6.4c0.004,-0.062 0.01,-0.119 0.033,-0.177c0.05,-0.133 0.157,-0.24 0.29,-0.291c0.058,-0.022 0.115,-0.028 0.177,-0.032c2.153,0 4.311,-0.126 6.46,0.004c0.053,0.009 0.067,0.009 0.117,0.028c0.133,0.051 0.24,0.158 0.291,0.291c0.022,0.058 0.028,0.115 0.032,0.177l0,1.678c-0.333,0.004 -0.667,0.007 -1,0.009l0,-1.187l-5.4,0l0,5.4l1.2,0l0,1Z" style="fill:#404040;"/><rect x="4.4" y="4" width="12.8" height="12.8" style="fill:none;stroke:#58d432;stroke-width:1px;"/></g></svg>