<?xml version="1.0" encoding="UTF-8" standalone="no"?>
<!DOCTYPE svg PUBLIC "-//W3C//DTD SVG 1.1//EN" "http://www.w3.org/Graphics/SVG/1.1/DTD/svg11.dtd">
<svg width="100%" height="100%" viewBox="0 0 25 26" version="1.1" xmlns="http://www.w3.org/2000/svg" xmlns:xlink="http://www.w3.org/1999/xlink" xml:space="preserve" style="fill-rule:evenodd;clip-rule:evenodd;stroke-linecap:round;stroke-linejoin:round;stroke-miterlimit:1.5;">
    <g transform="matrix(1,0,0,1,-425,-137)">
        <g transform="matrix(0.28125,0,0,0.222222,-270.078,0)">
            <g id="to-front" transform="matrix(0.444444,0,0,0.5625,2330.94,513)">
                <g transform="matrix(8,0,0,8,-3084,-912)">
                    <path d="M446.438,153.589C447.478,153.58 448.518,153.602 449.554,153.692C449.601,153.705 449.614,153.705 449.656,153.729C449.72,153.766 449.769,153.824 449.794,153.893C449.81,153.939 449.808,153.952 449.813,154L449.813,162C449.808,162.048 449.81,162.061 449.794,162.107C449.762,162.193 449.693,162.262 449.607,162.294C449.561,162.31 449.548,162.308 449.5,162.312L441.5,162.312C441.452,162.308 441.439,162.31 441.393,162.294C441.307,162.262 441.238,162.193 441.206,162.107C441.19,162.061 441.192,162.048 441.187,162L441.187,158.938L441.812,158.938L441.812,161.688L449.188,161.688L449.188,154.313L446.438,154.313L446.438,153.589ZM428.563,146.312L425.5,146.312C425.452,146.308 425.439,146.31 425.393,146.294C425.307,146.262 425.238,146.193 425.206,146.107C425.19,146.061 425.192,146.048 425.188,146L425.188,138C425.192,137.952 425.19,137.939 425.206,137.893C425.238,137.807 425.307,137.738 425.393,137.706C425.439,137.69 425.452,137.692 425.5,137.687C428.185,137.687 430.88,137.458 433.554,137.692C433.601,137.705 433.614,137.705 433.656,137.729C433.72,137.766 433.769,137.824 433.794,137.893C433.81,137.939 433.808,137.952 433.812,138L433.812,141.03L433.519,141.033L433.187,141.037L433.187,138.313L425.813,138.313L425.813,145.687L428.563,145.687L428.563,146.312Z" style="fill:rgb(64,64,64);"/>
                </g>
                <g transform="matrix(1,0,0,1,-6.82121e-13,-448)">
                    <rect x="352" y="672" width="128" height="128" style="fill:none;stroke:rgb(88,212,50);stroke-width:5px;"/>
                </g>
            </g>
        </g>
    </g>
</svg>
