<?xml version="1.0" encoding="UTF-8" standalone="no"?><!DOCTYPE svg PUBLIC "-//W3C//DTD SVG 1.1//EN" "http://www.w3.org/Graphics/SVG/1.1/DTD/svg11.dtd"><svg width="100%" height="100%" viewBox="0 0 16 8" version="1.1" xmlns="http://www.w3.org/2000/svg" xmlns:xlink="http://www.w3.org/1999/xlink" xml:space="preserve" xmlns:serif="http://www.serif.com/" style="fill-rule:evenodd;clip-rule:evenodd;"><g id="tool-mask"><path id="path4669" d="M6.357,3.98c0,0 -1.813,-1.183 -2.785,0c1.017,1.426 2.785,0 2.785,0Z" style="fill:none;stroke:url(#_Linear1);stroke-width:0.63px;"/><path id="path4673" d="M1.831,1.597c0,0 -0.431,3.135 0.696,4.178c0.912,0.844 3.262,0.705 4.527,0.348c0.298,-0.084 0.554,-0.609 0.696,-0.696c0.142,0.087 0.398,0.612 0.696,0.696c1.265,0.357 3.615,0.496 4.527,-0.348c1.127,-1.043 0.696,-4.178 0.696,-4.178c0,0 -0.083,0.137 -0.696,0.696c-1.484,-1.042 -5.223,0 -5.223,0c0,0 -3.739,-1.042 -5.223,0c-0.613,-0.559 -0.696,-0.696 -0.696,-0.696Z" style="fill:none;stroke:url(#_Linear2);stroke-width:0.63px;"/><path id="path4689" d="M9.143,3.98c0,0 1.813,-1.183 2.785,0c-1.017,1.426 -2.785,0 -2.785,0l0,0Z" style="fill:none;stroke:url(#_Linear3);stroke-width:0.63px;"/></g><defs><linearGradient id="_Linear1" x1="0" y1="0" x2="1" y2="0" gradientUnits="userSpaceOnUse" gradientTransform="matrix(7.34788e-16,12,-12,7.34788e-16,97.75,-2)"><stop offset="0" style="stop-color:#e1e1e1;stop-opacity:1"/><stop offset="1" style="stop-color:#9b9b9b;stop-opacity:1"/></linearGradient><linearGradient id="_Linear2" x1="0" y1="0" x2="1" y2="0" gradientUnits="userSpaceOnUse" gradientTransform="matrix(7.34788e-16,12,-12,7.34788e-16,97.75,-2)"><stop offset="0" style="stop-color:#e1e1e1;stop-opacity:1"/><stop offset="1" style="stop-color:#9b9b9b;stop-opacity:1"/></linearGradient><linearGradient id="_Linear3" x1="0" y1="0" x2="1" y2="0" gradientUnits="userSpaceOnUse" gradientTransform="matrix(7.34788e-16,12,-12,7.34788e-16,97.75,-2)"><stop offset="0" style="stop-color:#e1e1e1;stop-opacity:1"/><stop offset="1" style="stop-color:#9b9b9b;stop-opacity:1"/></linearGradient></defs></svg>