<?xml version="1.0" encoding="UTF-8" standalone="no"?><!DOCTYPE svg PUBLIC "-//W3C//DTD SVG 1.1//EN" "http://www.w3.org/Graphics/SVG/1.1/DTD/svg11.dtd"><svg width="100%" height="100%" viewBox="0 0 14 17" version="1.1" xmlns="http://www.w3.org/2000/svg" xmlns:xlink="http://www.w3.org/1999/xlink" xml:space="preserve" xmlns:serif="http://www.serif.com/" style="fill-rule:evenodd;clip-rule:evenodd;stroke-linejoin:round;stroke-miterlimit:1.41421;"><path id="tool-text" d="M12.571,0.453l0.065,0.008l0.064,0.015l0.062,0.019l0.061,0.025l0.058,0.03l0.055,0.036l0.052,0.039l0.048,0.045l0.044,0.048l0.04,0.052l0.035,0.055l0.03,0.058l0.025,0.06l0.02,0.063l0.014,0.064l0.009,0.065l0.003,0.065l0,3.703l-0.003,0.065l-0.009,0.065l-0.014,0.064l-0.02,0.062l-0.025,0.061l-0.03,0.058l-0.035,0.055l-0.04,0.052l-0.044,0.048l-0.048,0.044l-0.052,0.04l-0.055,0.035l-0.058,0.031l-0.061,0.025l-0.062,0.019l-0.064,0.014l-0.065,0.009l-0.065,0.003l-1.337,0l-0.063,-0.003l-0.061,-0.007l-0.061,-0.013l-0.059,-0.018l-0.058,-0.023l-0.056,-0.027l-0.053,-0.032l-0.051,-0.036l-0.047,-0.04l-0.044,-0.044l-0.04,-0.048l-0.036,-0.05l-0.032,-0.054l-0.027,-0.056l-0.022,-0.058l-0.018,-0.059l-0.372,-1.489l-1.339,0l0,9.743l1.454,0.291l0.063,0.016l0.061,0.02l0.059,0.026l0.056,0.031l0.054,0.035l0.05,0.04l0.047,0.044l0.043,0.048l0.039,0.052l0.034,0.054l0.029,0.058l0.024,0.059l0.019,0.062l0.014,0.063l0.008,0.063l0.003,0.065l0,1.234l-0.003,0.065l-0.008,0.065l-0.014,0.064l-0.02,0.063l-0.025,0.06l-0.03,0.058l-0.035,0.055l-0.04,0.052l-0.045,0.048l-0.048,0.045l-0.052,0.039l-0.055,0.036l-0.058,0.03l-0.06,0.025l-0.063,0.019l-0.064,0.015l-0.064,0.008l-0.066,0.003l-6.274,0l-0.066,-0.003l-0.064,-0.008l-0.064,-0.015l-0.063,-0.019l-0.06,-0.025l-0.058,-0.03l-0.055,-0.036l-0.052,-0.039l-0.048,-0.045l-0.045,-0.048l-0.04,-0.052l-0.035,-0.055l-0.03,-0.058l-0.025,-0.06l-0.02,-0.063l-0.014,-0.064l-0.008,-0.065l-0.003,-0.065l0,-1.234l0.003,-0.065l0.008,-0.063l0.014,-0.063l0.019,-0.062l0.024,-0.059l0.029,-0.058l0.034,-0.054l0.039,-0.052l0.043,-0.048l0.047,-0.044l0.05,-0.04l0.054,-0.035l0.056,-0.031l0.059,-0.026l0.061,-0.02l0.063,-0.016l1.454,-0.291l0,-9.743l-1.339,0l-0.372,1.489l-0.018,0.059l-0.022,0.058l-0.027,0.056l-0.032,0.054l-0.036,0.05l-0.04,0.048l-0.044,0.044l-0.047,0.04l-0.051,0.036l-0.053,0.032l-0.056,0.027l-0.058,0.023l-0.059,0.018l-0.061,0.013l-0.062,0.007l-0.062,0.003l-1.337,0l-0.065,-0.003l-0.065,-0.009l-0.064,-0.014l-0.062,-0.019l-0.061,-0.025l-0.058,-0.031l-0.055,-0.035l-0.052,-0.04l-0.048,-0.044l-0.044,-0.048l-0.04,-0.052l-0.035,-0.055l-0.03,-0.058l-0.025,-0.061l-0.02,-0.062l-0.014,-0.064l-0.009,-0.065l-0.003,-0.065l0,-3.703l0.003,-0.065l0.009,-0.065l0.014,-0.064l0.02,-0.063l0.025,-0.06l0.03,-0.058l0.035,-0.055l0.04,-0.052l0.044,-0.048l0.048,-0.045l0.052,-0.039l0.055,-0.036l0.058,-0.03l0.061,-0.025l0.062,-0.019l0.064,-0.015l0.065,-0.008l0.065,-0.003l11.212,0l0.065,0.003Zm-11.277,0.747l0,3.703l1.337,0l0.515,-2.057l2.674,0l0,11.108l-2.057,0.412l0,1.234l6.274,0l0,-1.234l-2.057,-0.412l0,-11.108l2.674,0l0.515,2.057l1.337,0l0,-3.703l-11.212,0Z" style="fill:url(#_Linear1);"/><defs><linearGradient id="_Linear1" x1="0" y1="0" x2="1" y2="0" gradientUnits="userSpaceOnUse" gradientTransform="matrix(7.60605e-16,12.4216,-12.4216,7.60605e-16,143.4,1.97837)"><stop offset="0" style="stop-color:#e1e1e1;stop-opacity:1"/><stop offset="1" style="stop-color:#9b9b9b;stop-opacity:1"/></linearGradient></defs></svg>