<?xml version="1.0" encoding="UTF-8" standalone="no"?><!DOCTYPE svg PUBLIC "-//W3C//DTD SVG 1.1//EN" "http://www.w3.org/Graphics/SVG/1.1/DTD/svg11.dtd"><svg width="100%" height="100%" viewBox="0 0 19 10" version="1.1" xmlns="http://www.w3.org/2000/svg" xmlns:xlink="http://www.w3.org/1999/xlink" xml:space="preserve" xmlns:serif="http://www.serif.com/" style="fill-rule:evenodd;clip-rule:evenodd;"><g id="tool-mask"><path id="path4669" d="M7.629,4.777c0,0 -2.176,-1.42 -3.343,0c1.221,1.71 3.343,0 3.343,0Z" style="fill:none;stroke:url(#_Linear1);stroke-width:0.75px;"/><path id="path4673" d="M2.197,1.916c0,0 -0.517,3.763 0.836,5.014c1.094,1.013 3.913,0.846 5.431,0.418c0.359,-0.101 0.666,-0.731 0.836,-0.836c0.17,0.105 0.477,0.735 0.836,0.836c1.518,0.428 4.337,0.595 5.431,-0.418c1.353,-1.251 0.836,-5.014 0.836,-5.014c0,0 -0.099,0.165 -0.836,0.836c-1.781,-1.251 -6.267,0 -6.267,0c0,0 -4.486,-1.251 -6.267,0c-0.737,-0.671 -0.836,-0.836 -0.836,-0.836Z" style="fill:none;stroke:url(#_Linear2);stroke-width:0.75px;"/><path id="path4689" d="M10.971,4.777c0,0 2.176,-1.42 3.343,0c-1.221,1.71 -3.343,0 -3.343,0l0,0Z" style="fill:none;stroke:url(#_Linear3);stroke-width:0.75px;"/></g><defs><linearGradient id="_Linear1" x1="0" y1="0" x2="1" y2="0" gradientUnits="userSpaceOnUse" gradientTransform="matrix(8.81746e-16,14.4,-14.4,8.81746e-16,117.3,-2.4)"><stop offset="0" style="stop-color:#e1e1e1;stop-opacity:1"/><stop offset="1" style="stop-color:#9b9b9b;stop-opacity:1"/></linearGradient><linearGradient id="_Linear2" x1="0" y1="0" x2="1" y2="0" gradientUnits="userSpaceOnUse" gradientTransform="matrix(8.81746e-16,14.4,-14.4,8.81746e-16,117.3,-2.4)"><stop offset="0" style="stop-color:#e1e1e1;stop-opacity:1"/><stop offset="1" style="stop-color:#9b9b9b;stop-opacity:1"/></linearGradient><linearGradient id="_Linear3" x1="0" y1="0" x2="1" y2="0" gradientUnits="userSpaceOnUse" gradientTransform="matrix(8.81746e-16,14.4,-14.4,8.81746e-16,117.3,-2.4)"><stop offset="0" style="stop-color:#e1e1e1;stop-opacity:1"/><stop offset="1" style="stop-color:#9b9b9b;stop-opacity:1"/></linearGradient></defs></svg>