<?xml version="1.0" encoding="UTF-8" standalone="no"?>
<!DOCTYPE svg PUBLIC "-//W3C//DTD SVG 1.1//EN" "http://www.w3.org/Graphics/SVG/1.1/DTD/svg11.dtd">
<svg width="100%" height="100%" viewBox="0 0 23 28" version="1.1" xmlns="http://www.w3.org/2000/svg" xmlns:xlink="http://www.w3.org/1999/xlink" xml:space="preserve" xmlns:serif="http://www.serif.com/" style="fill-rule:evenodd;clip-rule:evenodd;stroke-linejoin:round;stroke-miterlimit:1.41421;">
    <g transform="matrix(1,0,0,1,-366,-196)">
        <g transform="matrix(0.40625,0,0,0.222222,-517.891,0)">
            <g id="tool-text" transform="matrix(5.27473,0,0,9.64286,2022.97,-5468.25)">
                <path d="M38.739,658.897L38.79,658.904L38.839,658.915L38.888,658.93L38.935,658.949L38.98,658.973L39.023,659L39.063,659.031L39.101,659.066L39.135,659.103L39.166,659.143L39.194,659.186L39.217,659.231L39.237,659.278L39.252,659.327L39.263,659.377L39.269,659.427L39.272,659.478L39.272,662.358L39.269,662.409L39.263,662.459L39.252,662.509L39.237,662.558L39.217,662.605L39.194,662.65L39.166,662.693L39.135,662.733L39.101,662.77L39.063,662.805L39.023,662.836L38.98,662.863L38.935,662.887L38.888,662.906L38.839,662.921L38.79,662.932L38.739,662.939L38.688,662.941L37.648,662.941L37.6,662.939L37.552,662.933L37.505,662.923L37.459,662.91L37.414,662.892L37.37,662.871L37.329,662.846L37.289,662.818L37.253,662.786L37.218,662.752L37.187,662.715L37.159,662.676L37.135,662.634L37.114,662.591L37.096,662.546L37.082,662.499L36.793,661.341L35.752,661.341L35.752,668.92L36.883,669.146L36.931,669.158L36.979,669.174L37.025,669.194L37.069,669.218L37.11,669.245L37.15,669.277L37.186,669.311L37.219,669.348L37.25,669.388L37.276,669.431L37.299,669.475L37.318,669.522L37.332,669.569L37.343,669.618L37.35,669.668L37.352,669.718L37.352,670.678L37.349,670.729L37.343,670.779L37.332,670.829L37.317,670.878L37.297,670.925L37.274,670.97L37.246,671.013L37.215,671.053L37.181,671.09L37.143,671.125L37.103,671.156L37.06,671.183L37.015,671.207L36.968,671.226L36.919,671.241L36.87,671.252L36.819,671.259L36.768,671.261L31.888,671.261L31.838,671.259L31.787,671.252L31.737,671.241L31.689,671.226L31.642,671.207L31.597,671.183L31.554,671.156L31.513,671.125L31.476,671.09L31.442,671.053L31.411,671.013L31.383,670.97L31.36,670.925L31.34,670.878L31.325,670.829L31.314,670.779L31.307,670.729L31.305,670.678L31.305,669.718L31.307,669.668L31.314,669.618L31.324,669.569L31.339,669.522L31.358,669.475L31.381,669.431L31.407,669.388L31.437,669.348L31.471,669.311L31.507,669.277L31.546,669.245L31.588,669.218L31.632,669.194L31.678,669.174L31.725,669.158L31.774,669.146L32.905,668.92L32.905,661.341L31.864,661.341L31.574,662.499L31.561,662.546L31.543,662.591L31.522,662.634L31.497,662.676L31.469,662.715L31.438,662.752L31.404,662.786L31.367,662.818L31.328,662.846L31.287,662.871L31.243,662.892L31.198,662.91L31.152,662.923L31.105,662.933L31.057,662.939L31.008,662.941L29.968,662.941L29.918,662.939L29.867,662.932L29.817,662.921L29.769,662.906L29.722,662.887L29.677,662.863L29.634,662.836L29.593,662.805L29.556,662.77L29.522,662.733L29.491,662.693L29.463,662.65L29.44,662.605L29.42,662.558L29.405,662.509L29.394,662.459L29.387,662.409L29.385,662.358L29.385,659.478L29.387,659.427L29.394,659.377L29.405,659.327L29.42,659.278L29.44,659.231L29.463,659.186L29.491,659.143L29.522,659.103L29.556,659.066L29.593,659.031L29.634,659L29.677,658.973L29.722,658.949L29.769,658.93L29.817,658.915L29.867,658.904L29.918,658.897L29.968,658.895L38.688,658.895L38.739,658.897ZM29.968,659.478L29.968,662.358L31.008,662.358L31.408,660.758L33.488,660.758L33.488,669.398L31.888,669.718L31.888,670.678L36.768,670.678L36.768,669.718L35.168,669.398L35.168,660.758L37.248,660.758L37.648,662.358L38.688,662.358L38.688,659.478L29.968,659.478Z" style="fill:rgb(64,64,64);"/>
            </g>
        </g>
    </g>
</svg>
