<?xml version="1.0" encoding="UTF-8" standalone="no"?><!DOCTYPE svg PUBLIC "-//W3C//DTD SVG 1.1//EN" "http://www.w3.org/Graphics/SVG/1.1/DTD/svg11.dtd"><svg width="100%" height="100%" viewBox="0 0 22 21" version="1.1" xmlns="http://www.w3.org/2000/svg" xmlns:xlink="http://www.w3.org/1999/xlink" xml:space="preserve" style="fill-rule:evenodd;clip-rule:evenodd;stroke-linejoin:round;stroke-miterlimit:1.41421;"><g id="xor"><path d="M15.379,6.61c1.691,-0.008 3.381,0.009 5.07,0.092c0.049,0.008 0.096,0.017 0.142,0.036c0.138,0.057 0.244,0.175 0.288,0.317c0.014,0.048 0.019,0.095 0.021,0.145l0,12.8c-0.003,0.067 -0.012,0.129 -0.038,0.191c-0.057,0.137 -0.175,0.244 -0.317,0.287c-0.048,0.015 -0.095,0.019 -0.145,0.022l-12.8,0c-0.067,-0.003 -0.129,-0.012 -0.191,-0.038c-0.137,-0.057 -0.244,-0.175 -0.287,-0.317c-0.015,-0.048 -0.019,-0.095 -0.022,-0.145l0,-4.986c0.087,0.031 0.176,0.054 0.268,0.068c0.111,0.017 0.222,0.019 0.334,0.017c0.101,-0.001 0.202,-0.004 0.303,-0.009c0.032,-0.002 0.063,-0.004 0.095,-0.006l0,4.416l11.8,0l0,-11.8l-4.416,0c0.002,-0.032 0.004,-0.063 0.006,-0.095c0.005,-0.101 0.008,-0.202 0.009,-0.303c0.002,-0.113 0,-0.223 -0.017,-0.334c-0.019,-0.124 -0.054,-0.244 -0.103,-0.358Z" style="fill:#404040;"/><path d="M6.141,13.945c-0.392,-0.085 -0.777,-0.204 -1.148,-0.356c-0.797,-0.325 -1.53,-0.802 -2.153,-1.395c-0.601,-0.574 -1.098,-1.255 -1.459,-2.003c-0.308,-0.639 -0.516,-1.325 -0.614,-2.027c-0.105,-0.753 -0.087,-1.523 0.057,-2.269c0.117,-0.611 0.317,-1.204 0.594,-1.761c0.692,-1.393 1.858,-2.531 3.267,-3.189c0.591,-0.276 1.221,-0.467 1.865,-0.566c0.319,-0.048 0.639,-0.072 0.961,-0.079c0.089,0 0.089,0 0.178,0c0.322,0.007 0.642,0.031 0.961,0.079c0.644,0.099 1.274,0.29 1.865,0.566c1.409,0.658 2.575,1.796 3.267,3.189c0.254,0.51 0.443,1.051 0.563,1.607c-0.093,-0.021 -0.188,-0.034 -0.284,-0.04c-0.252,-0.005 -0.505,-0.009 -0.757,-0.013c-0.101,-0.383 -0.241,-0.755 -0.417,-1.109c-0.593,-1.191 -1.59,-2.165 -2.795,-2.728c-0.505,-0.236 -1.043,-0.399 -1.593,-0.483c-0.273,-0.042 -0.547,-0.062 -0.823,-0.068c-0.076,0 -0.076,0 -0.152,0c-0.276,0.006 -0.55,0.026 -0.822,0.068c-0.551,0.084 -1.089,0.247 -1.594,0.483c-1.205,0.563 -2.202,1.537 -2.795,2.728c-0.236,0.476 -0.407,0.983 -0.507,1.504c-0.123,0.639 -0.139,1.298 -0.049,1.942c0.084,0.6 0.262,1.186 0.525,1.731c0.309,0.641 0.734,1.224 1.248,1.714c0.533,0.508 1.16,0.915 1.841,1.194c0.234,0.096 0.474,0.176 0.718,0.24c0.003,0.252 0.007,0.504 0.012,0.757c0.006,0.096 0.019,0.191 0.04,0.284Z" style="fill:#404040;"/><path d="M7.636,12.155c0.06,0.006 0.117,0.018 0.172,0.044c0.131,0.059 0.231,0.175 0.272,0.313c0.013,0.047 0.018,0.093 0.02,0.141l0,0.426c0.109,-0.009 0.217,-0.021 0.325,-0.036c0.06,-0.009 0.12,-0.019 0.181,-0.027c0.035,-0.002 0.035,-0.002 0.071,-0.001c0.108,0.01 0.209,0.046 0.293,0.116c0.037,0.031 0.069,0.067 0.095,0.107c0.122,0.182 0.108,0.43 -0.033,0.598c-0.062,0.073 -0.144,0.127 -0.235,0.156c-0.048,0.015 -0.098,0.021 -0.147,0.028c-0.086,0.014 -0.172,0.025 -0.259,0.035c-0.174,0.02 -0.349,0.033 -0.525,0.04c-0.058,0.002 -0.118,0.004 -0.177,0.004c-0.051,0.001 -0.103,0.003 -0.154,-0.003c-0.172,-0.023 -0.324,-0.137 -0.393,-0.296c-0.023,-0.053 -0.035,-0.108 -0.041,-0.166c-0.011,-0.327 -0.001,-0.654 -0.001,-0.981c0.002,-0.048 0.007,-0.094 0.02,-0.141c0.037,-0.126 0.125,-0.234 0.24,-0.298c0.054,-0.029 0.11,-0.045 0.169,-0.056c0.036,-0.003 0.07,-0.005 0.107,-0.003Zm4.878,-1.317c0.096,0.01 0.186,0.039 0.265,0.097c0.176,0.131 0.247,0.368 0.172,0.574c-0.016,0.045 -0.039,0.087 -0.067,0.125c-0.054,0.072 -0.117,0.138 -0.177,0.205c-0.093,0.102 -0.189,0.201 -0.288,0.297c-0.359,0.351 -0.756,0.665 -1.184,0.928c-0.031,0.018 -0.03,0.018 -0.063,0.033c-0.079,0.031 -0.159,0.047 -0.244,0.04c-0.059,-0.006 -0.117,-0.022 -0.171,-0.048c-0.054,-0.025 -0.103,-0.061 -0.144,-0.104c-0.161,-0.167 -0.184,-0.432 -0.055,-0.625c0.042,-0.062 0.097,-0.112 0.16,-0.152c0.081,-0.05 0.16,-0.103 0.238,-0.156c0.29,-0.204 0.564,-0.43 0.815,-0.681c0.084,-0.083 0.165,-0.17 0.243,-0.258c0.037,-0.042 0.073,-0.086 0.112,-0.127c0.026,-0.025 0.026,-0.025 0.053,-0.047c0.081,-0.057 0.165,-0.089 0.264,-0.1c0.036,-0.002 0.035,-0.002 0.071,-0.001Zm-4.878,-3.183c0.06,0.006 0.117,0.018 0.172,0.044c0.12,0.054 0.215,0.156 0.261,0.28c0.016,0.045 0.025,0.091 0.03,0.139c0.024,0.678 0.001,1.357 0.001,2.035c-0.004,0.121 -0.042,0.235 -0.122,0.328c-0.039,0.045 -0.086,0.083 -0.138,0.111c-0.182,0.099 -0.411,0.074 -0.567,-0.061c-0.036,-0.031 -0.068,-0.067 -0.094,-0.107c-0.046,-0.072 -0.069,-0.151 -0.078,-0.235c-0.024,-0.678 -0.001,-1.357 -0.001,-2.036c0.002,-0.048 0.007,-0.094 0.02,-0.141c0.037,-0.126 0.125,-0.234 0.24,-0.298c0.054,-0.029 0.11,-0.045 0.169,-0.056c0.036,-0.003 0.07,-0.005 0.107,-0.003Zm6.366,-0.955c0.041,-0.001 0.083,0.006 0.123,0.016c0.212,0.055 0.368,0.248 0.374,0.468c0.004,0.094 -0.001,0.188 -0.004,0.282c-0.013,0.292 -0.04,0.581 -0.088,0.869c-0.055,0.334 -0.137,0.662 -0.239,0.984c-0.012,0.034 -0.012,0.034 -0.027,0.067c-0.039,0.074 -0.09,0.139 -0.159,0.189c-0.049,0.034 -0.103,0.06 -0.161,0.075c-0.237,0.064 -0.492,-0.059 -0.589,-0.285c-0.048,-0.112 -0.05,-0.232 -0.017,-0.349c0.028,-0.09 0.055,-0.18 0.081,-0.272c0.093,-0.352 0.155,-0.709 0.185,-1.072c-0.02,-0.007 -0.02,-0.008 -0.042,-0.017c-0.076,-0.038 -0.141,-0.087 -0.193,-0.155c-0.131,-0.176 -0.131,-0.424 0,-0.6c0.029,-0.038 0.063,-0.072 0.101,-0.1c0.078,-0.059 0.168,-0.088 0.264,-0.099c0.13,-0.004 0.26,-0.006 0.391,-0.001Zm-2.82,0.001c0.121,0.013 0.232,0.059 0.318,0.145c0.174,0.174 0.194,0.457 0.047,0.654c-0.036,0.047 -0.08,0.088 -0.13,0.121c-0.072,0.046 -0.151,0.069 -0.235,0.078c-0.678,0.024 -1.357,0.001 -2.035,0.001c-0.085,-0.003 -0.165,-0.02 -0.24,-0.061c-0.042,-0.023 -0.08,-0.052 -0.114,-0.086c-0.146,-0.146 -0.187,-0.373 -0.101,-0.561c0.025,-0.054 0.059,-0.104 0.101,-0.146c0.087,-0.086 0.197,-0.132 0.318,-0.145c0.69,-0.024 1.381,-0.024 2.071,0Z" style="fill:#404040;fill-rule:nonzero;"/></g></svg>