<?xml version="1.0" encoding="UTF-8" standalone="no"?><!DOCTYPE svg PUBLIC "-//W3C//DTD SVG 1.1//EN" "http://www.w3.org/Graphics/SVG/1.1/DTD/svg11.dtd"><svg width="100%" height="100%" viewBox="0 0 14 10" version="1.1" xmlns="http://www.w3.org/2000/svg" xmlns:xlink="http://www.w3.org/1999/xlink" xml:space="preserve" xmlns:serif="http://www.serif.com/" style="fill-rule:evenodd;clip-rule:evenodd;stroke-linecap:round;stroke-linejoin:round;stroke-miterlimit:1.5;"><g id="icon-restore"><path d="M1.454,1.28l0,-0.482c0.002,-0.036 0.006,-0.069 0.018,-0.103c0.031,-0.089 0.103,-0.161 0.192,-0.192c0.034,-0.012 0.067,-0.016 0.103,-0.018c3.704,0 7.414,-0.205 11.112,0.002c0.035,0.006 0.068,0.014 0.1,0.029c0.074,0.036 0.133,0.101 0.16,0.179c0.012,0.034 0.015,0.067 0.017,0.103l0,7.384c-0.002,0.036 -0.005,0.07 -0.017,0.104c-0.031,0.089 -0.103,0.16 -0.192,0.191c-0.034,0.012 -0.067,0.016 -0.103,0.018l-0.486,0l0,-0.625l0.173,0l0,-6.76l-10.452,0l0,0.166c-0.208,0.001 -0.416,0.003 -0.625,0.004Z" style="fill:#dfdfdf;"/><rect x="0.344" y="2.221" width="11.077" height="7.385" style="fill:#fff;fill-opacity:0;stroke:#dfdfdf;stroke-width:0.63px;"/></g></svg>