<?xml version="1.0" encoding="UTF-8" standalone="no"?><!DOCTYPE svg PUBLIC "-//W3C//DTD SVG 1.1//EN" "http://www.w3.org/Graphics/SVG/1.1/DTD/svg11.dtd"><svg width="100%" height="100%" viewBox="0 0 14 13" version="1.1" xmlns="http://www.w3.org/2000/svg" xmlns:xlink="http://www.w3.org/1999/xlink" xml:space="preserve" xmlns:serif="http://www.serif.com/" style="fill-rule:evenodd;clip-rule:evenodd;stroke-linecap:round;stroke-linejoin:round;stroke-miterlimit:1.5;"><g id="icon-end-flat"><path d="M7.812,6.5l-7.062,0" style="fill:none;stroke:#58d432;stroke-width:0.63px;"/><path d="M10.437,9.421c0.104,0.011 0.209,0.017 0.313,0.017c0.104,0 0.209,-0.006 0.312,-0.017l0,3.079c-0.002,0.039 -0.006,0.074 -0.02,0.111c-0.031,0.083 -0.098,0.15 -0.181,0.181c-0.037,0.014 -0.072,0.018 -0.111,0.02l-10,0c-0.033,-0.002 -0.042,-0.001 -0.075,-0.009c-0.061,-0.015 -0.117,-0.049 -0.159,-0.096c-0.103,-0.117 -0.103,-0.297 0,-0.414c0.025,-0.029 0.055,-0.052 0.089,-0.07c0.046,-0.024 0.093,-0.032 0.145,-0.036l9.687,0l0,-2.766Zm0,-5.842l0,-2.767l-9.687,0c-0.052,-0.003 -0.099,-0.011 -0.145,-0.035c-0.034,-0.018 -0.064,-0.041 -0.089,-0.07c-0.103,-0.117 -0.103,-0.297 0,-0.414c0.042,-0.047 0.098,-0.081 0.159,-0.096c0.033,-0.008 0.042,-0.007 0.075,-0.01c3.346,0 6.698,-0.199 10.038,0.003c0.038,0.007 0.073,0.015 0.107,0.033c0.079,0.042 0.137,0.116 0.158,0.202c0.008,0.033 0.007,0.042 0.009,0.075l0,3.079c-0.078,-0.008 -0.157,-0.013 -0.237,-0.016c-0.075,-0.001 -0.075,-0.001 -0.15,0c-0.08,0.003 -0.159,0.008 -0.238,0.016Z" style="fill:#404040;"/><circle cx="10.75" cy="6.5" r="2" style="fill:none;stroke:#404040;stroke-width:0.63px;"/></g></svg>