<?xml version="1.0" encoding="UTF-8" standalone="no"?><!DOCTYPE svg PUBLIC "-//W3C//DTD SVG 1.1//EN" "http://www.w3.org/Graphics/SVG/1.1/DTD/svg11.dtd"><svg width="100%" height="100%" viewBox="0 0 13 12" version="1.1" xmlns="http://www.w3.org/2000/svg" xmlns:xlink="http://www.w3.org/1999/xlink" xml:space="preserve" xmlns:serif="http://www.serif.com/" style="fill-rule:evenodd;clip-rule:evenodd;stroke-linecap:round;stroke-linejoin:round;stroke-miterlimit:1.5;"><g id="operation-send-to-front"><path d="M10.947,7.604c0.348,-0.006 0.695,-0.007 1.042,0.014c0.032,0.006 0.04,0.006 0.07,0.017c0.078,0.03 0.142,0.093 0.172,0.172c0.013,0.035 0.017,0.069 0.019,0.105l0,3.792c-0.002,0.036 -0.006,0.07 -0.019,0.105c-0.03,0.078 -0.094,0.142 -0.172,0.172c-0.035,0.013 -0.069,0.017 -0.105,0.019l-3.792,0c-0.036,-0.002 -0.07,-0.006 -0.105,-0.019c-0.079,-0.03 -0.142,-0.094 -0.172,-0.172c-0.013,-0.035 -0.017,-0.069 -0.019,-0.105l0,-1.007l0.592,0l0,0.711l3.2,0l0,-3.2l-0.711,0l0,-0.604Zm-9.361,-3.187l-1.007,0c-0.037,-0.002 -0.071,-0.006 -0.105,-0.02c-0.079,-0.029 -0.142,-0.093 -0.172,-0.171c-0.013,-0.035 -0.017,-0.069 -0.019,-0.105l0,-3.792c0.002,-0.037 0.006,-0.071 0.019,-0.105c0.03,-0.079 0.093,-0.142 0.172,-0.172c0.034,-0.013 0.068,-0.017 0.105,-0.019l3.827,0.002c0.031,0.006 0.04,0.006 0.07,0.017c0.078,0.03 0.142,0.093 0.171,0.172c0.014,0.034 0.018,0.068 0.02,0.105l0,0.994c-0.198,0.002 -0.395,0.004 -0.593,0.005l0,-0.703l-3.199,0l0,3.199l0.711,0l0,0.593Z" style="fill:#404040;"/><rect x="2.475" y="2.225" width="7.583" height="7.583" style="fill:none;stroke:url(#_Linear1);stroke-width:0.62px;"/></g><defs><linearGradient id="_Linear1" x1="0" y1="0" x2="1" y2="0" gradientUnits="userSpaceOnUse" gradientTransform="matrix(7.32789e-16,11.9674,-11.9674,7.32789e-16,6.25,0.0326447)"><stop offset="0" style="stop-color:#58d432;stop-opacity:1"/><stop offset="1" style="stop-color:#44ad24;stop-opacity:1"/></linearGradient></defs></svg>