<?xml version="1.0" encoding="UTF-8" standalone="no"?><!DOCTYPE svg PUBLIC "-//W3C//DTD SVG 1.1//EN" "http://www.w3.org/Graphics/SVG/1.1/DTD/svg11.dtd"><svg width="100%" height="100%" viewBox="0 0 13 13" version="1.1" xmlns="http://www.w3.org/2000/svg" xmlns:xlink="http://www.w3.org/1999/xlink" xml:space="preserve" xmlns:serif="http://www.serif.com/" style="fill-rule:evenodd;clip-rule:evenodd;stroke-linecap:round;stroke-linejoin:round;stroke-miterlimit:1.5;"><g id="operation-send-forward"><path d="M3.552,8.423l-2.971,0c-0.04,-0.002 -0.078,-0.008 -0.116,-0.023c-0.083,-0.035 -0.148,-0.106 -0.174,-0.192c-0.009,-0.03 -0.012,-0.058 -0.013,-0.088l0,-7.761c0.001,-0.031 0.004,-0.059 0.013,-0.088c0.026,-0.086 0.091,-0.158 0.174,-0.192c0.038,-0.016 0.076,-0.021 0.116,-0.023c2.597,0 5.197,-0.126 7.791,0.001c0.029,0.004 0.058,0.01 0.086,0.022c0.083,0.034 0.148,0.106 0.174,0.192c0.009,0.029 0.011,0.057 0.013,0.088l0,2.941c-0.202,0.001 -0.404,0.003 -0.606,0.005l0,-2.643l-7.155,0l0,7.154l2.668,0l0,0.607Z" style="fill:#404040;"/><rect x="4.461" y="4.239" width="7.761" height="7.761" style="fill:none;stroke:url(#_Linear1);stroke-width:0.63px;"/></g><defs><linearGradient id="_Linear1" x1="0" y1="0" x2="1" y2="0" gradientUnits="userSpaceOnUse" gradientTransform="matrix(7.31386e-16,11.9444,-11.9444,7.31386e-16,8.34179,0.0555641)"><stop offset="0" style="stop-color:#58d432;stop-opacity:1"/><stop offset="1" style="stop-color:#44ad24;stop-opacity:1"/></linearGradient></defs></svg>