<?xml version="1.0" encoding="UTF-8" standalone="no"?><!DOCTYPE svg PUBLIC "-//W3C//DTD SVG 1.1//EN" "http://www.w3.org/Graphics/SVG/1.1/DTD/svg11.dtd"><svg width="100%" height="100%" viewBox="0 0 13 12" version="1.1" xmlns="http://www.w3.org/2000/svg" xmlns:xlink="http://www.w3.org/1999/xlink" xml:space="preserve" xmlns:serif="http://www.serif.com/" style="fill-rule:evenodd;clip-rule:evenodd;stroke-linecap:round;stroke-linejoin:round;stroke-miterlimit:1.5;"><g id="operation-rotate-ccw"><path d="M6.798,8.844l4.651,2.325c0.011,0.006 0.022,0.012 0.032,0.018c0.04,0.027 0.075,0.063 0.099,0.105c0.068,0.118 0.051,0.272 -0.043,0.371c-0.025,0.026 -0.055,0.049 -0.087,0.065c-0.045,0.022 -0.091,0.03 -0.141,0.033l-4.564,0l0.004,-0.011c0.019,-0.058 0.033,-0.118 0.041,-0.179c0.007,-0.054 0.007,-0.068 0.008,-0.122l0,-0.313l3.188,0l-3.188,-1.594l0,-0.698Zm-6.698,1.133l0,-3.977c0.002,-0.036 0.005,-0.07 0.017,-0.104c0.032,-0.09 0.105,-0.161 0.195,-0.192c0.034,-0.012 0.068,-0.015 0.104,-0.016c0.012,0 0.023,0.001 0.035,0.002c0.012,0.002 0.023,0.004 0.035,0.006c0.03,0.008 0.037,0.012 0.066,0.024l1.341,0.671l-0.28,0.559l-0.888,-0.444l0,2.221l-0.625,1.25Z" style="fill:#404040;"/><path d="M5.861,0.551l-5.449,10.898l5.449,0l0,-10.898Z" style="fill:none;stroke:url(#_Linear1);stroke-width:0.63px;"/><g><path d="M12.088,8.595c0,-2.15 -1.743,-3.892 -3.892,-3.892" style="fill:none;stroke:#404040;stroke-width:0.63px;"/><path d="M8.845,6l-1.298,-1.297l1.298,-1.298" style="fill:none;stroke:#404040;stroke-width:0.63px;"/></g></g><defs><linearGradient id="_Linear1" x1="0" y1="0" x2="1" y2="0" gradientUnits="userSpaceOnUse" gradientTransform="matrix(6.67267e-16,10.8973,-10.8973,6.67267e-16,5.69865,0.551351)"><stop offset="0" style="stop-color:#58d432;stop-opacity:1"/><stop offset="1" style="stop-color:#44ad24;stop-opacity:1"/></linearGradient></defs></svg>