<?xml version="1.0" encoding="UTF-8" standalone="no"?><!DOCTYPE svg PUBLIC "-//W3C//DTD SVG 1.1//EN" "http://www.w3.org/Graphics/SVG/1.1/DTD/svg11.dtd"><svg width="100%" height="100%" viewBox="0 0 14 13" version="1.1" xmlns="http://www.w3.org/2000/svg" xmlns:xlink="http://www.w3.org/1999/xlink" xml:space="preserve" xmlns:serif="http://www.serif.com/" style="fill-rule:evenodd;clip-rule:evenodd;stroke-linejoin:round;stroke-miterlimit:1.41421;"><g id="operation-xor"><path d="M9.612,4.131c1.057,-0.005 2.113,0.006 3.169,0.058c0.031,0.005 0.06,0.01 0.089,0.022c0.085,0.036 0.152,0.109 0.179,0.198c0.009,0.03 0.012,0.06 0.014,0.091l0,8c-0.002,0.042 -0.008,0.081 -0.024,0.12c-0.036,0.085 -0.109,0.152 -0.198,0.179c-0.03,0.009 -0.06,0.012 -0.091,0.013l-8,0c-0.042,-0.002 -0.081,-0.007 -0.12,-0.023c-0.085,-0.036 -0.152,-0.11 -0.179,-0.198c-0.009,-0.03 -0.012,-0.06 -0.013,-0.091l0,-3.116c0.054,0.019 0.11,0.033 0.167,0.042c0.069,0.011 0.139,0.012 0.209,0.011c0.063,-0.001 0.126,-0.003 0.189,-0.006c0.02,-0.001 0.04,-0.002 0.06,-0.003l0,2.759l7.375,0l0,-7.375l-2.76,0c0.001,-0.019 0.002,-0.039 0.003,-0.059c0.003,-0.063 0.005,-0.126 0.006,-0.19c0.001,-0.07 0,-0.139 -0.011,-0.208c-0.012,-0.077 -0.034,-0.152 -0.064,-0.224Z" style="fill:url(#_Linear1);"/><path d="M3.838,8.715c-0.245,-0.052 -0.485,-0.127 -0.718,-0.222c-0.497,-0.203 -0.956,-0.501 -1.345,-0.872c-0.376,-0.358 -0.686,-0.784 -0.912,-1.252c-0.192,-0.399 -0.322,-0.828 -0.384,-1.267c-0.066,-0.47 -0.054,-0.951 0.036,-1.418c0.073,-0.381 0.198,-0.752 0.371,-1.1c0.433,-0.871 1.161,-1.582 2.042,-1.993c0.369,-0.173 0.763,-0.292 1.166,-0.354c0.199,-0.03 0.399,-0.045 0.6,-0.049c0.056,-0.001 0.056,-0.001 0.112,0c0.201,0.004 0.401,0.019 0.6,0.049c0.403,0.062 0.797,0.181 1.166,0.354c0.881,0.411 1.609,1.122 2.042,1.993c0.158,0.318 0.277,0.657 0.352,1.004c-0.058,-0.013 -0.118,-0.021 -0.178,-0.025c-0.158,-0.003 -0.315,-0.006 -0.473,-0.008c-0.063,-0.239 -0.151,-0.472 -0.261,-0.693c-0.37,-0.745 -0.993,-1.353 -1.747,-1.705c-0.315,-0.147 -0.651,-0.249 -0.995,-0.302c-0.171,-0.026 -0.342,-0.039 -0.514,-0.042c-0.048,-0.001 -0.048,-0.001 -0.096,0c-0.172,0.003 -0.343,0.016 -0.514,0.042c-0.344,0.053 -0.68,0.155 -0.995,0.302c-0.754,0.352 -1.377,0.96 -1.747,1.705c-0.148,0.297 -0.255,0.614 -0.317,0.94c-0.077,0.399 -0.087,0.811 -0.031,1.214c0.053,0.375 0.164,0.741 0.328,1.082c0.193,0.4 0.459,0.764 0.78,1.071c0.333,0.317 0.725,0.572 1.151,0.746c0.146,0.06 0.296,0.11 0.449,0.15c0.002,0.158 0.004,0.315 0.007,0.473c0.004,0.06 0.012,0.119 0.025,0.177Z" style="fill:url(#_Linear2);"/><path d="M4.772,7.597c0.038,0.004 0.073,0.011 0.108,0.027c0.082,0.037 0.145,0.11 0.17,0.196c0.008,0.029 0.011,0.058 0.013,0.088l0,0.266c0.067,-0.005 0.135,-0.013 0.203,-0.022c0.037,-0.006 0.075,-0.012 0.112,-0.017c0.023,-0.001 0.023,-0.001 0.045,-0.001c0.068,0.007 0.131,0.029 0.184,0.073c0.022,0.019 0.042,0.042 0.059,0.066c0.076,0.115 0.067,0.269 -0.021,0.374c-0.039,0.046 -0.09,0.08 -0.147,0.098c-0.03,0.009 -0.061,0.013 -0.092,0.018c-0.054,0.008 -0.107,0.015 -0.161,0.021c-0.109,0.013 -0.219,0.021 -0.329,0.025c-0.036,0.002 -0.074,0.003 -0.11,0.003c-0.032,0.001 -0.065,0.002 -0.097,-0.002c-0.107,-0.014 -0.202,-0.086 -0.245,-0.185c-0.015,-0.033 -0.022,-0.068 -0.026,-0.104c-0.007,-0.204 0,-0.408 0,-0.613c0.001,-0.03 0.004,-0.059 0.012,-0.088c0.023,-0.079 0.078,-0.147 0.15,-0.186c0.034,-0.018 0.069,-0.028 0.106,-0.035c0.022,-0.002 0.044,-0.003 0.066,-0.002Zm3.049,-0.823c0.06,0.006 0.117,0.024 0.166,0.06c0.11,0.082 0.154,0.23 0.107,0.359c-0.01,0.028 -0.024,0.055 -0.042,0.079c-0.033,0.045 -0.073,0.086 -0.11,0.127c-0.058,0.064 -0.118,0.126 -0.18,0.186c-0.224,0.219 -0.473,0.416 -0.74,0.58c-0.019,0.011 -0.019,0.011 -0.039,0.021c-0.05,0.019 -0.1,0.029 -0.153,0.024c-0.037,-0.003 -0.073,-0.013 -0.107,-0.029c-0.033,-0.016 -0.064,-0.038 -0.09,-0.065c-0.101,-0.105 -0.115,-0.27 -0.034,-0.391c0.026,-0.039 0.06,-0.07 0.1,-0.095c0.05,-0.032 0.1,-0.064 0.148,-0.098c0.182,-0.127 0.353,-0.268 0.51,-0.425c0.052,-0.052 0.103,-0.106 0.152,-0.161c0.023,-0.027 0.046,-0.054 0.07,-0.08c0.016,-0.015 0.016,-0.015 0.033,-0.029c0.051,-0.036 0.103,-0.056 0.165,-0.063c0.022,-0.001 0.022,-0.001 0.044,0Zm-3.049,-1.99c0.038,0.004 0.073,0.012 0.108,0.028c0.075,0.034 0.134,0.098 0.163,0.175c0.01,0.028 0.016,0.057 0.019,0.087c0.015,0.423 0.001,0.848 0.001,1.272c-0.003,0.076 -0.027,0.147 -0.077,0.204c-0.024,0.029 -0.054,0.052 -0.086,0.07c-0.113,0.062 -0.257,0.047 -0.355,-0.038c-0.022,-0.019 -0.042,-0.042 -0.058,-0.067c-0.029,-0.045 -0.043,-0.094 -0.049,-0.147c-0.015,-0.424 0,-0.848 0,-1.272c0.001,-0.03 0.004,-0.059 0.012,-0.088c0.023,-0.079 0.078,-0.147 0.15,-0.186c0.034,-0.019 0.069,-0.029 0.106,-0.035c0.022,-0.003 0.044,-0.004 0.066,-0.003Zm3.979,-0.597c0.026,0 0.052,0.004 0.077,0.011c0.133,0.034 0.23,0.155 0.234,0.292c0.002,0.059 -0.001,0.118 -0.003,0.176c-0.008,0.182 -0.025,0.364 -0.055,0.543c-0.034,0.209 -0.085,0.414 -0.149,0.616c-0.008,0.021 -0.008,0.021 -0.017,0.041c-0.024,0.047 -0.056,0.087 -0.099,0.118c-0.031,0.022 -0.065,0.038 -0.101,0.048c-0.148,0.039 -0.307,-0.038 -0.368,-0.179c-0.03,-0.07 -0.031,-0.145 -0.011,-0.218c0.018,-0.056 0.035,-0.113 0.051,-0.17c0.058,-0.22 0.097,-0.443 0.116,-0.67c-0.013,-0.005 -0.013,-0.005 -0.027,-0.011c-0.047,-0.023 -0.088,-0.054 -0.12,-0.097c-0.082,-0.11 -0.082,-0.265 0,-0.374c0.018,-0.024 0.039,-0.045 0.063,-0.063c0.049,-0.037 0.105,-0.055 0.165,-0.062c0.081,-0.003 0.162,-0.003 0.244,-0.001Zm-1.762,0.001c0.075,0.008 0.144,0.037 0.199,0.091c0.108,0.108 0.121,0.285 0.029,0.408c-0.022,0.03 -0.05,0.056 -0.081,0.076c-0.045,0.029 -0.094,0.043 -0.147,0.049c-0.424,0.015 -0.848,0 -1.272,0c-0.053,-0.001 -0.103,-0.012 -0.15,-0.038c-0.026,-0.014 -0.05,-0.032 -0.071,-0.053c-0.092,-0.091 -0.117,-0.233 -0.064,-0.351c0.016,-0.034 0.037,-0.065 0.064,-0.091c0.054,-0.054 0.123,-0.083 0.198,-0.091c0.432,-0.015 0.864,-0.015 1.295,0Z" style="fill:url(#_Linear3);fill-rule:nonzero;"/></g><defs><linearGradient id="_Linear1" x1="0" y1="0" x2="1" y2="0" gradientUnits="userSpaceOnUse" gradientTransform="matrix(7.53921e-16,12.3125,-12.3125,7.53921e-16,-51,0.18754)"><stop offset="0" style="stop-color:#404040;stop-opacity:1"/><stop offset="1" style="stop-color:#797979;stop-opacity:1"/></linearGradient><linearGradient id="_Linear2" x1="0" y1="0" x2="1" y2="0" gradientUnits="userSpaceOnUse" gradientTransform="matrix(7.53921e-16,12.3125,-12.3125,7.53921e-16,-51,0.18754)"><stop offset="0" style="stop-color:#404040;stop-opacity:1"/><stop offset="1" style="stop-color:#797979;stop-opacity:1"/></linearGradient><linearGradient id="_Linear3" x1="0" y1="0" x2="1" y2="0" gradientUnits="userSpaceOnUse" gradientTransform="matrix(7.53921e-16,12.3125,-12.3125,7.53921e-16,-51,0.18754)"><stop offset="0" style="stop-color:#404040;stop-opacity:1"/><stop offset="1" style="stop-color:#797979;stop-opacity:1"/></linearGradient></defs></svg>