<?xml version="1.0" encoding="UTF-8" standalone="no"?><!DOCTYPE svg PUBLIC "-//W3C//DTD SVG 1.1//EN" "http://www.w3.org/Graphics/SVG/1.1/DTD/svg11.dtd"><svg width="100%" height="100%" viewBox="0 0 12 14" version="1.1" xmlns="http://www.w3.org/2000/svg" xmlns:xlink="http://www.w3.org/1999/xlink" xml:space="preserve" xmlns:serif="http://www.serif.com/" style="fill-rule:evenodd;clip-rule:evenodd;stroke-linejoin:round;stroke-miterlimit:1.41421;"><g id="tool-text"><path id="tool-text1" serif:id="tool-text" d="M10.476,0.377l0.054,0.007l0.053,0.012l0.052,0.017l0.051,0.021l0.048,0.025l0.046,0.029l0.043,0.033l0.04,0.037l0.037,0.04l0.033,0.044l0.03,0.045l0.025,0.049l0.021,0.05l0.016,0.052l0.012,0.053l0.007,0.055l0.002,0.054l0,3.086l-0.002,0.054l-0.007,0.054l-0.012,0.053l-0.016,0.052l-0.021,0.051l-0.025,0.048l-0.03,0.046l-0.033,0.043l-0.037,0.041l-0.04,0.036l-0.043,0.034l-0.046,0.029l-0.048,0.025l-0.051,0.021l-0.052,0.016l-0.053,0.012l-0.054,0.007l-0.055,0.003l-1.114,0l-0.052,-0.002l-0.051,-0.007l-0.051,-0.01l-0.049,-0.015l-0.048,-0.019l-0.047,-0.023l-0.044,-0.027l-0.042,-0.03l-0.04,-0.033l-0.036,-0.037l-0.034,-0.039l-0.03,-0.043l-0.026,-0.044l-0.023,-0.047l-0.019,-0.048l-0.014,-0.05l-0.31,-1.241l-1.116,0l0,8.12l1.212,0.243l0.052,0.012l0.051,0.018l0.049,0.021l0.047,0.026l0.045,0.029l0.042,0.033l0.039,0.037l0.036,0.04l0.032,0.043l0.028,0.046l0.025,0.047l0.02,0.05l0.016,0.051l0.011,0.053l0.007,0.053l0.002,0.053l0,1.029l-0.002,0.054l-0.007,0.055l-0.012,0.053l-0.016,0.052l-0.021,0.05l-0.025,0.048l-0.03,0.046l-0.033,0.044l-0.037,0.04l-0.04,0.037l-0.043,0.033l-0.046,0.029l-0.049,0.025l-0.05,0.021l-0.052,0.017l-0.053,0.011l-0.054,0.008l-0.055,0.002l-5.228,0l-0.055,-0.002l-0.054,-0.008l-0.053,-0.011l-0.052,-0.017l-0.05,-0.021l-0.049,-0.025l-0.046,-0.029l-0.043,-0.033l-0.04,-0.037l-0.037,-0.04l-0.033,-0.044l-0.03,-0.046l-0.025,-0.048l-0.021,-0.05l-0.016,-0.052l-0.012,-0.053l-0.007,-0.055l-0.002,-0.054l0,-1.029l0.002,-0.053l0.007,-0.053l0.011,-0.053l0.016,-0.051l0.02,-0.05l0.025,-0.047l0.028,-0.046l0.032,-0.043l0.036,-0.04l0.039,-0.037l0.042,-0.033l0.045,-0.029l0.047,-0.026l0.049,-0.021l0.051,-0.018l0.052,-0.012l1.212,-0.243l0,-8.12l-1.116,0l-0.31,1.241l-0.014,0.05l-0.019,0.048l-0.023,0.047l-0.026,0.044l-0.03,0.043l-0.034,0.039l-0.036,0.037l-0.04,0.033l-0.042,0.03l-0.044,0.027l-0.047,0.023l-0.048,0.019l-0.049,0.015l-0.051,0.01l-0.051,0.007l-0.052,0.002l-1.114,0l-0.055,-0.003l-0.054,-0.007l-0.053,-0.012l-0.052,-0.016l-0.051,-0.021l-0.048,-0.025l-0.046,-0.029l-0.043,-0.034l-0.04,-0.036l-0.037,-0.041l-0.033,-0.043l-0.03,-0.046l-0.025,-0.048l-0.021,-0.051l-0.016,-0.052l-0.012,-0.053l-0.007,-0.054l-0.002,-0.054l0,-3.086l0.002,-0.054l0.007,-0.055l0.012,-0.053l0.016,-0.052l0.021,-0.05l0.025,-0.049l0.03,-0.045l0.033,-0.044l0.037,-0.04l0.04,-0.037l0.043,-0.033l0.046,-0.029l0.048,-0.025l0.051,-0.021l0.052,-0.017l0.053,-0.012l0.054,-0.007l0.055,-0.002l9.342,0l0.055,0.002Zm-9.397,0.623l0,3.086l1.114,0l0.428,-1.715l2.229,0l0,9.258l-1.714,0.342l0,1.029l5.228,0l0,-1.029l-1.714,-0.342l0,-9.258l2.229,0l0.428,1.715l1.114,0l0,-3.086l-9.342,0Z" style="fill:url(#_Linear1);"/></g><defs><linearGradient id="_Linear1" x1="0" y1="0" x2="1" y2="0" gradientUnits="userSpaceOnUse" gradientTransform="matrix(7.34788e-16,12,-12,7.34788e-16,5.75,1)"><stop offset="0" style="stop-color:#404040;stop-opacity:1"/><stop offset="1" style="stop-color:#797979;stop-opacity:1"/></linearGradient></defs></svg>