<?xml version="1.0" encoding="UTF-8" standalone="no"?><!DOCTYPE svg PUBLIC "-//W3C//DTD SVG 1.1//EN" "http://www.w3.org/Graphics/SVG/1.1/DTD/svg11.dtd"><svg width="100%" height="100%" viewBox="0 0 17 15" version="1.1" xmlns="http://www.w3.org/2000/svg" xmlns:xlink="http://www.w3.org/1999/xlink" xml:space="preserve" xmlns:serif="http://www.serif.com/" style="fill-rule:evenodd;clip-rule:evenodd;stroke-linecap:round;stroke-linejoin:round;stroke-miterlimit:1.5;"><g id="tool-flood"><path d="M10.088,5.284c0,0 -3.581,-3.464 -5.748,-3.318c-0.703,0.047 -0.585,0.452 -0.119,0.958" style="fill:none;stroke:url(#_Linear1);stroke-width:0.75px;"/><path d="M13.511,8.776l-2.11,-7.875l-10.501,2.813l2.11,7.876l10.501,-2.814Z" style="fill:none;stroke:url(#_Linear2);stroke-width:0.75px;"/><path d="M11.401,0.901c0,0 1.759,5.863 2.11,7.875c0.241,1.378 -0.256,3.496 0,4.196c0.256,0.699 1.28,0.708 1.536,0c0.256,-0.708 0.41,-2.893 0,-4.249c-0.608,-2.012 -3.646,-7.822 -3.646,-7.822Z" style="fill:none;stroke:url(#_Linear3);stroke-width:0.75px;"/></g><defs><linearGradient id="_Linear1" x1="0" y1="0" x2="1" y2="0" gradientUnits="userSpaceOnUse" gradientTransform="matrix(8.88178e-16,14.4,-14.4,8.88178e-16,36.6,-3.45447e-06)"><stop offset="0" style="stop-color:#e1e1e1;stop-opacity:1"/><stop offset="1" style="stop-color:#9b9b9b;stop-opacity:1"/></linearGradient><linearGradient id="_Linear2" x1="0" y1="0" x2="1" y2="0" gradientUnits="userSpaceOnUse" gradientTransform="matrix(8.88178e-16,14.4,-14.4,1.77636e-15,36.6,-3.45448e-06)"><stop offset="0" style="stop-color:#e1e1e1;stop-opacity:1"/><stop offset="1" style="stop-color:#9b9b9b;stop-opacity:1"/></linearGradient><linearGradient id="_Linear3" x1="0" y1="0" x2="1" y2="0" gradientUnits="userSpaceOnUse" gradientTransform="matrix(8.81746e-16,14.4,-14.4,8.81746e-16,36.6,-3.45447e-06)"><stop offset="0" style="stop-color:#e1e1e1;stop-opacity:1"/><stop offset="1" style="stop-color:#9b9b9b;stop-opacity:1"/></linearGradient></defs></svg>