<?xml version="1.0" encoding="UTF-8" standalone="no"?><!DOCTYPE svg PUBLIC "-//W3C//DTD SVG 1.1//EN" "http://www.w3.org/Graphics/SVG/1.1/DTD/svg11.dtd"><svg width="100%" height="100%" viewBox="0 0 14 12" version="1.1" xmlns="http://www.w3.org/2000/svg" xmlns:xlink="http://www.w3.org/1999/xlink" xml:space="preserve" xmlns:serif="http://www.serif.com/" style="fill-rule:evenodd;clip-rule:evenodd;stroke-linecap:round;stroke-linejoin:round;stroke-miterlimit:1.5;"><g id="tool-flood"><path d="M8.407,4.404c0,0 -2.984,-2.887 -4.79,-2.766c-0.586,0.039 -0.488,0.377 -0.1,0.799" style="fill:none;stroke:url(#_Linear1);stroke-width:0.63px;"/><path d="M11.259,7.314l-1.758,-6.564l-8.751,2.345l1.759,6.563l8.75,-2.344Z" style="fill:none;stroke:url(#_Linear2);stroke-width:0.63px;"/><path d="M9.501,0.75c0,0 1.465,4.887 1.758,6.564c0.201,1.148 -0.213,2.913 0,3.496c0.214,0.582 1.067,0.59 1.28,0c0.214,-0.59 0.342,-2.411 0,-3.541c-0.506,-1.676 -3.038,-6.519 -3.038,-6.519Z" style="fill:none;stroke:url(#_Linear3);stroke-width:0.62px;"/></g><defs><linearGradient id="_Linear1" x1="0" y1="0" x2="1" y2="0" gradientUnits="userSpaceOnUse" gradientTransform="matrix(8.88178e-16,12,-12,1.77636e-15,30.5,-2.87873e-06)"><stop offset="0" style="stop-color:#e1e1e1;stop-opacity:1"/><stop offset="1" style="stop-color:#9b9b9b;stop-opacity:1"/></linearGradient><linearGradient id="_Linear2" x1="0" y1="0" x2="1" y2="0" gradientUnits="userSpaceOnUse" gradientTransform="matrix(8.88178e-16,12,-12,1.77636e-15,30.5,-2.87873e-06)"><stop offset="0" style="stop-color:#e1e1e1;stop-opacity:1"/><stop offset="1" style="stop-color:#9b9b9b;stop-opacity:1"/></linearGradient><linearGradient id="_Linear3" x1="0" y1="0" x2="1" y2="0" gradientUnits="userSpaceOnUse" gradientTransform="matrix(7.34788e-16,12,-12,7.34788e-16,30.5,-2.87873e-06)"><stop offset="0" style="stop-color:#e1e1e1;stop-opacity:1"/><stop offset="1" style="stop-color:#9b9b9b;stop-opacity:1"/></linearGradient></defs></svg>